<svg width="168" height="118" viewBox="0 0 168 118" fill="none" xmlns="http://www.w3.org/2000/svg">
<g filter="url(#filter0_d)">
<rect x="9" y="5" width="150" height="100" rx="20" fill="white"/>
</g>
<path d="M48.5224 79.889H43.4394L42.2494 83H40.8214L45.1904 71.78H46.8054L51.1574 83H49.7124L48.5224 79.889ZM48.0294 78.614L46.5164 74.636L45.9894 73.072H45.9554L45.4624 74.585L43.9324 78.614H48.0294ZM57.0591 71.78C58.8271 71.78 60.2097 72.2673 61.2071 73.242C62.2044 74.2167 62.7031 75.5993 62.7031 77.39C62.7031 79.1807 62.2044 80.5633 61.2071 81.538C60.2097 82.5127 58.8271 83 57.0591 83H53.4381V71.78H57.0591ZM57.1951 81.725C58.4757 81.725 59.4731 81.3453 60.1871 80.586C60.9124 79.8153 61.2751 78.75 61.2751 77.39C61.2751 76.03 60.9124 74.9703 60.1871 74.211C59.4731 73.4403 58.4757 73.055 57.1951 73.055H54.7981V81.725H57.1951ZM70.212 71.61C71.266 71.61 72.184 71.848 72.966 72.324C73.748 72.7887 74.3487 73.4573 74.768 74.33C75.1987 75.1913 75.414 76.2113 75.414 77.39C75.414 78.5687 75.1987 79.5943 74.768 80.467C74.3487 81.3283 73.748 81.997 72.966 82.473C72.184 82.9377 71.266 83.17 70.212 83.17C69.158 83.17 68.24 82.9377 67.458 82.473C66.676 81.997 66.0697 81.3283 65.639 80.467C65.2197 79.5943 65.01 78.5687 65.01 77.39C65.01 76.2113 65.2197 75.1913 65.639 74.33C66.0697 73.4573 66.676 72.7887 67.458 72.324C68.24 71.848 69.158 71.61 70.212 71.61ZM70.212 72.885C69.0447 72.885 68.121 73.2873 67.441 74.092C66.7723 74.8853 66.438 75.9847 66.438 77.39C66.438 78.7953 66.7723 79.9003 67.441 80.705C68.121 81.4983 69.0447 81.895 70.212 81.895C71.3793 81.895 72.2973 81.4983 72.966 80.705C73.646 79.9003 73.986 78.7953 73.986 77.39C73.986 75.9847 73.646 74.8853 72.966 74.092C72.2973 73.2873 71.3793 72.885 70.212 72.885ZM78.4068 71.78H82.4018C83.6938 71.78 84.6515 72.052 85.2748 72.596C85.9095 73.1287 86.2268 73.888 86.2268 74.874C86.2268 75.4633 86.0568 75.9847 85.7168 76.438C85.3881 76.8913 84.9291 77.1747 84.3398 77.288V77.305C84.9971 77.4297 85.5241 77.73 85.9208 78.206C86.3175 78.682 86.5158 79.2317 86.5158 79.855C86.5158 80.8183 86.1531 81.5833 85.4278 82.15C84.7025 82.7167 83.6881 83 82.3848 83H78.4068V71.78ZM82.4188 76.71C83.2235 76.71 83.8185 76.5627 84.2038 76.268C84.6005 75.962 84.7988 75.4973 84.7988 74.874C84.7988 73.6613 84.0055 73.055 82.4188 73.055H79.7668V76.71H82.4188ZM82.7078 81.725C83.5011 81.725 84.0961 81.5663 84.4928 81.249C84.8895 80.9203 85.0878 80.4557 85.0878 79.855C85.0878 79.2543 84.8895 78.7953 84.4928 78.478C84.0961 78.1493 83.5011 77.985 82.7078 77.985H79.7668V81.725H82.7078ZM97.6392 81.725V83H89.5132V71.78H97.3842V73.055H90.8732V76.676H95.9392V77.951H90.8732V81.725H97.6392ZM115.192 80.127C114.841 81.079 114.263 81.827 113.458 82.371C112.653 82.9037 111.724 83.17 110.67 83.17C109.616 83.17 108.698 82.9377 107.916 82.473C107.134 81.997 106.528 81.3283 106.097 80.467C105.678 79.5943 105.468 78.5687 105.468 77.39C105.468 76.2227 105.678 75.2027 106.097 74.33C106.528 73.4573 107.134 72.7887 107.916 72.324C108.698 71.848 109.605 71.61 110.636 71.61C111.713 71.61 112.614 71.831 113.339 72.273C114.076 72.715 114.625 73.3667 114.988 74.228L113.645 74.857C113.396 74.1997 113.033 73.7067 112.557 73.378C112.081 73.0493 111.475 72.885 110.738 72.885C109.967 72.885 109.293 73.0663 108.715 73.429C108.137 73.7803 107.689 74.296 107.372 74.976C107.055 75.656 106.896 76.4607 106.896 77.39C106.896 78.7953 107.23 79.9003 107.899 80.705C108.579 81.4983 109.503 81.895 110.67 81.895C111.429 81.895 112.087 81.7023 112.642 81.317C113.197 80.9317 113.594 80.365 113.832 79.617L115.192 80.127ZM126.846 80.127C126.495 81.079 125.917 81.827 125.112 82.371C124.308 82.9037 123.378 83.17 122.324 83.17C121.27 83.17 120.352 82.9377 119.57 82.473C118.788 81.997 118.182 81.3283 117.751 80.467C117.332 79.5943 117.122 78.5687 117.122 77.39C117.122 76.2227 117.332 75.2027 117.751 74.33C118.182 73.4573 118.788 72.7887 119.57 72.324C120.352 71.848 121.259 71.61 122.29 71.61C123.367 71.61 124.268 71.831 124.993 72.273C125.73 72.715 126.28 73.3667 126.642 74.228L125.299 74.857C125.05 74.1997 124.687 73.7067 124.211 73.378C123.735 73.0493 123.129 72.885 122.392 72.885C121.622 72.885 120.947 73.0663 120.369 73.429C119.791 73.7803 119.344 74.296 119.026 74.976C118.709 75.656 118.55 76.4607 118.55 77.39C118.55 78.7953 118.885 79.9003 119.553 80.705C120.233 81.4983 121.157 81.895 122.324 81.895C123.084 81.895 123.741 81.7023 124.296 81.317C124.852 80.9317 125.248 80.365 125.486 79.617L126.846 80.127Z" fill="#777777"/>
<g clip-path="url(#clip0)">
<path d="M100.888 39.9437V41.0595C100.877 41.1201 100.864 41.1795 100.857 41.2398C100.799 41.7251 100.762 42.2136 100.682 42.6954C100.422 44.2612 99.8584 45.7165 99.0217 47.0622C97.751 49.1053 96.0332 50.6633 93.8744 51.7273C92.6284 52.3443 91.285 52.7408 89.9038 52.8992C89.597 52.9346 89.2904 52.9664 88.9836 53.0002H77.0785C77.0185 52.989 76.9589 52.9712 76.8983 52.9675C75.6979 52.8919 74.5429 52.6183 73.4421 52.1365C71.0454 51.0876 69.2584 49.3876 68.0886 47.0477C67.5717 46.0156 67.2372 44.9018 67.0999 43.7557C67.0661 43.477 67.0332 43.1986 67 42.9202V41.8376C67.0114 41.7776 67.029 41.7176 67.0326 41.6574C67.0948 40.6171 67.3082 39.607 67.6839 38.6362C68.695 36.024 70.4574 34.0866 72.962 32.8327C74.2615 32.1819 75.6466 31.8399 77.0953 31.764C77.8045 31.7272 78.5132 31.7668 79.2183 31.8614C79.2822 31.87 79.3742 31.8416 79.4186 31.7961C80.4324 30.7603 81.5869 29.919 82.8886 29.2813C84.1512 28.6628 85.4799 28.2642 86.8787 28.1046C87.2078 28.067 87.5377 28.036 87.8674 28.002H88.8824C88.9488 28.0123 89.0154 28.024 89.0818 28.0318C89.5847 28.0904 90.0904 28.1272 90.5885 28.2106C92.1426 28.4714 93.5893 29.0294 94.9281 29.8582C96.9809 31.1291 98.5453 32.8495 99.6141 35.0153C100.232 36.2621 100.629 37.6067 100.787 38.9894C100.823 39.3077 100.854 39.626 100.888 39.9437ZM81.94 32.7234C81.9603 32.7501 81.9653 32.7627 81.974 32.7669C82.671 33.1105 83.3372 33.5134 83.9652 33.9712C84.0048 33.9999 84.1029 33.9879 84.1509 33.9578C85.8768 32.864 87.7478 32.4865 89.7576 32.843C91.727 33.1923 93.3297 34.1765 94.5541 35.7484C95.9406 37.5273 96.4691 39.5389 96.0864 41.777C95.8298 43.277 95.2291 44.6227 94.208 45.75C92.3448 47.8051 90.0117 48.6551 87.2653 48.2952C85.5745 48.0737 84.1149 47.3442 82.907 46.1232C81.3565 44.5569 79.796 43.0008 78.241 41.4387C78.0338 41.2305 77.8031 41.0632 77.5047 41.0266C76.9834 40.9627 76.5104 41.223 76.2853 41.6914C76.0845 42.1096 76.1104 42.581 76.5461 43.0095C78.2795 44.7114 79.9976 46.429 81.7291 48.1326C82.0255 48.4256 82.3433 48.6962 82.6799 48.9419C83.9448 49.8605 85.3709 50.3685 86.9152 50.5729C88.1274 50.7331 89.33 50.6987 90.5235 50.4304C92.8 49.9191 94.6857 48.7569 96.1709 46.9637C97.3973 45.4819 98.1389 43.7791 98.3975 41.8674C98.5473 40.7773 98.516 39.6698 98.3049 38.5899C97.9604 36.8241 97.2135 35.2441 96.0167 33.8992C93.7332 31.3347 90.8604 30.1898 87.4418 30.4454C86.1267 30.5436 84.8828 30.9299 83.7122 31.5428C83.0805 31.8711 82.4863 32.2669 81.94 32.7234V32.7234ZM81.1035 50.6259C81.0565 50.5823 81.0096 50.5385 80.9629 50.4945C80.2542 49.8253 79.5416 49.1603 78.8412 48.4824C78.7057 48.3513 78.581 48.2874 78.3891 48.2919C77.6799 48.3092 76.97 48.3122 76.2711 48.1543C72.7958 47.3682 70.7779 43.5892 72.0586 40.2639C73.0689 37.642 75.8655 36.0452 78.6234 36.5376C79.8596 36.7582 80.9445 37.2816 81.8351 38.2002C82.9212 39.3216 84.0396 40.411 85.1374 41.5209C85.3873 41.7737 85.6743 41.8889 86.0205 41.8395C86.4678 41.7756 86.824 41.5625 86.9858 41.1237C87.1442 40.6919 87.0675 40.2829 86.7406 39.9518C85.5884 38.7843 84.4636 37.5876 83.2648 36.4698C80.9398 34.3009 78.1981 33.6559 75.1657 34.5782C71.0872 35.8176 68.7003 40.0299 69.6321 44.1864C70.4814 47.9736 73.7929 50.6315 77.6679 50.6349C78.7498 50.636 79.8319 50.6354 80.9138 50.6349C80.9674 50.6349 81.021 50.6301 81.1035 50.6259Z" fill="#DA1F26"/>
</g>
<defs>
<filter id="filter0_d" x="0" y="0" width="168" height="118" filterUnits="userSpaceOnUse" color-interpolation-filters="sRGB">
<feFlood flood-opacity="0" result="BackgroundImageFix"/>
<feColorMatrix in="SourceAlpha" type="matrix" values="0 0 0 0 0 0 0 0 0 0 0 0 0 0 0 0 0 0 127 0"/>
<feOffset dy="4"/>
<feGaussianBlur stdDeviation="4.5"/>
<feColorMatrix type="matrix" values="0 0 0 0 0.592 0 0 0 0 0.592 0 0 0 0 0.592 0 0 0 0.25 0"/>
<feBlend mode="normal" in2="BackgroundImageFix" result="effect1_dropShadow"/>
<feBlend mode="normal" in="SourceGraphic" in2="effect1_dropShadow" result="shape"/>
</filter>
<clipPath id="clip0">
<rect width="33.8879" height="25" fill="white" transform="translate(67 28)"/>
</clipPath>
</defs>
</svg>
