<svg width="1074" height="125" viewBox="0 0 1074 125" fill="none" xmlns="http://www.w3.org/2000/svg">
<path fill-rule="evenodd" clip-rule="evenodd" d="M106.586 40.5343H111.771V44.8546H113.5V33.6218H118.685V44.8546H120.413V37.078H125.599V46.5828H106.586V40.5343ZM123.87 38.8062H122.142V44.8546H123.87V38.8062ZM116.957 35.3499H115.228V44.8546H116.957V35.3499ZM108.314 44.8546H110.043V42.2624H108.314V44.8546Z" fill="#AE8D92"/>
<path fill-rule="evenodd" clip-rule="evenodd" d="M134.852 51.514L133.302 53.0633L141.556 61.316C142.412 62.1714 142.883 63.3094 142.883 64.5191C142.883 67.0163 140.85 69.0485 138.352 69.0485C137.142 69.0485 136.004 68.5776 135.148 67.7222L126.894 59.4695L125.345 61.0188L124.123 59.797L125.672 58.2477L124.041 56.6172C121.684 57.9271 118.975 58.6797 116.092 58.6797C107.878 58.6797 101.073 52.6114 99.878 44.7259C96.715 45.5762 94.4871 48.4302 94.4871 51.7672H92.7587C92.7587 47.5411 95.6486 43.9465 99.7095 42.9917C99.7054 42.9035 99.6994 42.8158 99.6934 42.7281C99.6829 42.5739 99.6723 42.4194 99.6723 42.2625C99.6723 34.0495 105.742 27.2459 113.628 26.0509C112.778 22.8884 109.924 20.6608 106.586 20.6608V18.9327C110.813 18.9327 114.408 21.8221 115.363 25.8824C115.451 25.8783 115.539 25.8723 115.627 25.8663C115.781 25.8558 115.935 25.8452 116.092 25.8452C124.307 25.8452 131.111 31.9135 132.307 39.799C135.47 38.9488 137.698 36.0948 137.698 32.7577H139.426C139.426 36.9839 136.536 40.5784 132.475 41.5332C132.479 41.6208 132.485 41.7079 132.491 41.7949L132.491 41.7967C132.502 41.951 132.512 42.1055 132.512 42.2625C132.512 45.145 131.76 47.853 130.449 50.211L132.08 51.8415L133.63 50.2922L134.852 51.514ZM130.609 40.1196C129.566 33.0342 123.464 27.5733 116.092 27.5733C116.012 27.5733 115.933 27.579 115.854 27.5846C115.795 27.5889 115.736 27.5931 115.676 27.5949L115.961 29.3084C115.971 29.3082 115.981 29.3077 115.991 29.3071L116.022 29.305C116.045 29.3032 116.069 29.3015 116.092 29.3015C122.608 29.3015 128 34.1359 128.906 40.403L130.609 40.1196ZM127.327 42.2625C127.327 36.0688 122.287 31.0296 116.092 31.0296C109.898 31.0296 104.858 36.0688 104.858 42.2625C104.858 48.4561 109.898 53.4953 116.092 53.4953C122.287 53.4953 127.327 48.4561 127.327 42.2625ZM113.949 27.7479C106.863 28.7908 101.401 34.892 101.401 42.2625C101.401 42.3429 101.406 42.4216 101.412 42.5004C101.416 42.5596 101.421 42.6189 101.422 42.679L103.136 42.3938C103.136 42.3777 103.135 42.3618 103.134 42.3459L103.133 42.3336L103.13 42.3013C103.13 42.2884 103.129 42.2755 103.129 42.2625C103.129 35.7483 107.964 30.3565 114.233 29.451L113.949 27.7479ZM101.575 44.4054C102.618 51.4907 108.721 56.9516 116.092 56.9516C124.193 56.9516 130.784 50.3622 130.784 42.2625C130.784 42.1821 130.778 42.1034 130.773 42.0246C130.768 41.9653 130.764 41.9061 130.762 41.846L129.049 42.1311C129.049 42.1513 129.05 42.1714 129.052 42.1914C129.053 42.2042 129.054 42.2174 129.055 42.2302L129.055 42.2501L129.055 42.2625C129.055 49.4092 123.24 55.2235 116.092 55.2235C109.577 55.2235 104.184 50.389 103.279 44.1219L101.575 44.4054ZM129.501 51.7067C128.416 53.243 127.075 54.5841 125.538 55.6693L126.895 57.0259L130.858 53.0633L129.501 51.7067ZM136.371 66.5004C136.9 67.0292 137.604 67.3204 138.353 67.3204C139.898 67.3204 141.154 66.0641 141.154 64.5191C141.154 63.7708 140.863 63.0666 140.334 62.5378L132.08 54.2851L128.117 58.2477L136.371 66.5004Z" fill="#AE8D92"/>
<path fill-rule="evenodd" clip-rule="evenodd" d="M135.105 31.0296C139.394 31.0296 142.883 27.5414 142.883 23.253C142.883 18.9646 139.394 15.4764 135.105 15.4764C130.816 15.4764 127.327 18.9646 127.327 23.253C127.327 27.5414 130.816 31.0296 135.105 31.0296ZM137.698 28.7096C136.91 29.0846 136.033 29.3015 135.105 29.3015C134.177 29.3015 133.3 29.0846 132.512 28.7096V27.5733C132.512 26.1442 133.675 24.9811 135.105 24.9811C136.534 24.9811 137.698 26.1442 137.698 27.5733V28.7096ZM133.376 21.5249C133.376 20.5718 134.152 19.7967 135.105 19.7967C136.058 19.7967 136.833 20.5718 136.833 21.5249C136.833 22.4779 136.058 23.253 135.105 23.253C134.152 23.253 133.376 22.4779 133.376 21.5249ZM135.105 17.2045C138.44 17.2045 141.154 19.9186 141.154 23.253C141.154 24.9008 140.49 26.3947 139.417 27.4869C139.388 26.0344 138.646 24.753 137.519 23.9918C138.161 23.3645 138.562 22.4917 138.562 21.5249C138.562 19.6187 137.011 18.0686 135.105 18.0686C133.198 18.0686 131.648 19.6187 131.648 21.5249C131.648 22.4917 132.049 23.3645 132.69 23.9918C131.563 24.7539 130.821 26.0344 130.792 27.4869C129.72 26.3947 129.055 24.9008 129.055 23.253C129.055 19.9186 131.77 17.2045 135.105 17.2045Z" fill="#AE8D92"/>
<path fill-rule="evenodd" clip-rule="evenodd" d="M104.858 23.253C104.858 27.5414 101.369 31.0296 97.0797 31.0296C92.7906 31.0296 89.3018 27.5414 89.3018 23.253C89.3018 18.9646 92.7906 15.4764 97.0797 15.4764C101.369 15.4764 104.858 18.9646 104.858 23.253ZM97.0797 29.3015C98.0079 29.3015 98.885 29.0846 99.6723 28.7096V27.5733C99.6723 26.1442 98.5091 24.9811 97.0797 24.9811C95.6503 24.9811 94.4871 26.1442 94.4871 27.5733V28.7096C95.2744 29.0846 96.1516 29.3015 97.0797 29.3015ZM97.0797 19.7967C96.1265 19.7967 95.3513 20.5718 95.3513 21.5249C95.3513 22.4779 96.1265 23.253 97.0797 23.253C98.0329 23.253 98.8081 22.4779 98.8081 21.5249C98.8081 20.5718 98.0329 19.7967 97.0797 19.7967ZM103.129 23.253C103.129 19.9186 100.415 17.2045 97.0797 17.2045C93.7447 17.2045 91.0303 19.9186 91.0303 23.253C91.0303 24.9008 91.6948 26.3947 92.7673 27.4869C92.7967 26.0344 93.5391 24.7539 94.6651 23.9918C94.0239 23.3645 93.6229 22.4917 93.6229 21.5249C93.6229 19.6187 95.1733 18.0686 97.0797 18.0686C98.9862 18.0686 100.537 19.6187 100.537 21.5249C100.537 22.4917 100.136 23.3645 99.4943 23.9918C100.62 24.753 101.363 26.0344 101.392 27.4869C102.465 26.3947 103.129 24.9008 103.129 23.253Z" fill="#AE8D92"/>
<path fill-rule="evenodd" clip-rule="evenodd" d="M97.0797 53.4953C92.7906 53.4953 89.3018 56.9835 89.3018 61.2719C89.3018 65.5603 92.7906 69.0485 97.0797 69.0485C101.369 69.0485 104.858 65.5603 104.858 61.2719C104.858 56.9835 101.369 53.4953 97.0797 53.4953ZM99.6723 66.7285C98.885 67.1035 98.0079 67.3204 97.0797 67.3204C96.1516 67.3204 95.2744 67.1035 94.4871 66.7285V65.5922C94.4871 64.1631 95.6503 63 97.0797 63C98.5091 63 99.6723 64.1631 99.6723 65.5922V66.7285ZM95.3513 59.5438C95.3513 58.5907 96.1265 57.8156 97.0797 57.8156C98.0329 57.8156 98.8081 58.5907 98.8081 59.5438C98.8081 60.4968 98.0329 61.2719 97.0797 61.2719C96.1265 61.2719 95.3513 60.4968 95.3513 59.5438ZM101.392 65.5058C101.363 64.0533 100.62 62.7719 99.4943 62.0107C100.136 61.3834 100.537 60.5107 100.537 59.5438C100.537 57.6376 98.9862 56.0875 97.0797 56.0875C95.1733 56.0875 93.6229 57.6376 93.6229 59.5438C93.6229 60.5107 94.0239 61.3834 94.6651 62.0107C93.5391 62.7728 92.7967 64.0533 92.7673 65.5058C91.6948 64.4137 91.0303 62.9197 91.0303 61.2719C91.0303 57.9375 93.7447 55.2234 97.0797 55.2234C100.415 55.2234 103.129 57.9375 103.129 61.2719C103.129 62.9197 102.465 64.4137 101.392 65.5058Z" fill="#AE8D92"/>
<path fill-rule="evenodd" clip-rule="evenodd" d="M335.885 76.1166L332.374 72.6065L325.204 71.6972L323.519 73.3814L331.425 74.4824L335.03 78.0865L348.16 81.587L347.701 83.3086L346.088 82.8785L338.501 90.4637L340.544 92.5057L339.284 93.765L319.949 74.4333L332.158 62.227L333.417 63.4863L326.797 70.1052L333.202 70.9162L336.818 74.5311L349.066 78.0295L348.576 79.742L335.885 76.1166ZM338.473 80.8491L334.836 79.8789L331.376 83.339L333.679 85.642L338.473 80.8491ZM327.813 79.7767L330.116 82.0797L333.31 78.8862L331.007 76.5832L327.813 79.7767ZM323.167 75.1317L326.553 78.5174L329.112 75.9596L323.167 75.1317ZM334.939 86.9013L337.242 89.2043L344.098 82.3484L340.462 81.3787L334.939 86.9013Z" fill="#AE8D92"/>
<path fill-rule="evenodd" clip-rule="evenodd" d="M327.444 88.6825C327.444 83.7718 323.448 79.7768 318.537 79.7768C313.625 79.7768 309.629 83.7718 309.629 88.6825C309.629 93.5933 313.625 97.5883 318.537 97.5883C323.448 97.5883 327.444 93.5933 327.444 88.6825ZM325.601 87.7919H323.801C323.424 85.5594 321.66 83.797 319.427 83.4191V81.6192C322.645 82.0236 325.197 84.5749 325.601 87.7919ZM318.537 92.2448C316.572 92.2448 314.974 90.6472 314.974 88.6825C314.974 86.7179 316.572 85.1202 318.537 85.1202C320.502 85.1202 322.1 86.7179 322.1 88.6825C322.1 90.6472 320.502 92.2448 318.537 92.2448ZM313.272 87.7919H311.472C311.635 86.4935 312.149 85.3055 312.914 84.3205L314.185 85.5912C313.727 86.2343 313.41 86.9822 313.272 87.7919ZM317.646 83.4191C316.836 83.5565 316.088 83.8735 315.445 84.3318L314.174 83.0612C315.159 82.2954 316.347 81.7823 317.646 81.6192V83.4191ZM311.472 89.5731H313.272C313.649 91.8056 315.413 93.5681 317.646 93.946V95.7458C314.428 95.3414 311.877 92.7897 311.472 89.5731ZM319.427 95.7458V93.946C321.66 93.5689 323.423 91.8056 323.801 89.5731H325.601C325.197 92.7897 322.645 95.3414 319.427 95.7458Z" fill="#AE8D92"/>
<path d="M321.838 101.411L320.578 102.67L325.923 108.014L327.182 106.754L321.838 101.411Z" fill="#AE8D92"/>
<path d="M323.25 99.9987L324.51 98.7393L329.854 104.082L328.595 105.342L323.25 99.9987Z" fill="#AE8D92"/>
<path d="M327.183 96.0676L325.923 97.327L331.267 102.67L332.526 101.411L327.183 96.0676Z" fill="#AE8D92"/>
<path d="M328.595 94.6552L329.855 93.3959L335.199 98.7393L333.939 99.9986L328.595 94.6552Z" fill="#AE8D92"/>
<path d="M332.527 90.7241L331.267 91.9839L336.611 97.3269L337.871 96.0676L332.527 90.7241Z" fill="#AE8D92"/>
<path fill-rule="evenodd" clip-rule="evenodd" d="M334.472 58.8272C333.542 57.8974 332.034 57.8974 331.104 58.8272L302.928 86.9989C301.998 87.9287 301.998 89.4363 302.928 90.3661L323.979 111.413C324.909 112.343 326.416 112.343 327.346 111.413L355.523 83.2415C356.453 82.3117 356.453 80.8041 355.523 79.8743L334.472 58.8272ZM305.447 90.3661C304.517 89.4363 304.517 87.9287 305.447 86.9989L331.104 61.3459C332.034 60.416 333.542 60.416 334.472 61.3459L353.004 79.8743C353.934 80.8041 353.934 82.3117 353.004 83.2415L327.346 108.895C326.416 109.824 324.909 109.824 323.979 108.895L305.447 90.3661Z" fill="#AE8D92"/>
<path d="M782.282 87.4657H762.309C760.189 87.4628 758.471 85.745 758.468 83.6251V49.8305C758.471 47.7105 760.189 45.9927 762.309 45.9902H796.109C798.23 45.9927 799.948 47.7105 799.95 49.8305V67.4957H798.414V49.8305C798.414 48.5576 797.383 47.5263 796.109 47.5263H762.309C761.036 47.5263 760.005 48.5576 760.005 49.8305V83.6251C760.005 84.8976 761.036 85.9293 762.309 85.9293H782.282V87.4657Z" fill="#AE8D92"/>
<path d="M761.541 49.0628H763.077V50.5986H761.541V49.0628Z" fill="#AE8D92"/>
<path d="M766.15 49.0628H764.614V50.5986H766.15V49.0628Z" fill="#AE8D92"/>
<path d="M767.686 49.0628H769.223V50.5986H767.686V49.0628Z" fill="#AE8D92"/>
<path d="M796.878 52.1346H761.541V53.6711H796.878V52.1346Z" fill="#AE8D92"/>
<path fill-rule="evenodd" clip-rule="evenodd" d="M769.448 55.4319L767.497 57.3829C765.847 56.2911 763.639 56.6261 762.387 58.1577C761.135 59.6891 761.248 61.92 762.646 63.3182C764.045 64.717 766.276 64.8292 767.808 63.5777C769.34 62.3264 769.675 60.1177 768.583 58.469L770.534 56.5181L769.448 55.4319ZM765.382 62.8873C764.109 62.8873 763.077 61.8559 763.077 60.5834C763.077 59.3107 764.109 58.2794 765.382 58.2794C765.724 58.2805 766.062 58.3591 766.369 58.5094L764.839 60.0395L765.925 61.1257L767.456 59.5965C767.606 59.9038 767.685 60.2409 767.686 60.5834C767.686 61.8559 766.655 62.8873 765.382 62.8873Z" fill="#AE8D92"/>
<path d="M784.586 58.2794H771.527V59.8153H784.586V58.2794Z" fill="#AE8D92"/>
<path d="M771.527 61.3515H776.905V62.8873H771.527V61.3515Z" fill="#AE8D92"/>
<path d="M789.195 61.3515H778.441V62.8873H789.195V61.3515Z" fill="#AE8D92"/>
<path d="M786.123 58.2794H793.805V59.8153H786.123V58.2794Z" fill="#AE8D92"/>
<path fill-rule="evenodd" clip-rule="evenodd" d="M767.497 66.5995L769.448 64.6486L770.534 65.7348L768.583 67.6857C769.675 69.3349 769.34 71.5428 767.808 72.7944C766.276 74.0459 764.045 73.9336 762.646 72.5352C761.248 71.1366 761.135 68.906 762.387 67.3744C763.639 65.8428 765.847 65.5078 767.497 66.5995ZM763.077 69.8C763.077 71.0725 764.109 72.1042 765.382 72.1042C766.655 72.1042 767.686 71.0725 767.686 69.8C767.685 69.4576 767.606 69.1205 767.456 68.813L765.925 70.3423L764.839 69.2566L766.369 67.7261C766.062 67.5758 765.724 67.497 765.382 67.4957C764.109 67.4957 763.077 68.5273 763.077 69.8Z" fill="#AE8D92"/>
<path d="M771.527 67.4957H784.586V69.0319H771.527V67.4957Z" fill="#AE8D92"/>
<path d="M776.905 70.5682H771.527V72.1042H776.905V70.5682Z" fill="#AE8D92"/>
<path d="M778.441 70.5682H784.586V72.1042H778.441V70.5682Z" fill="#AE8D92"/>
<path d="M789.195 67.4957H786.123V69.0319H789.195V67.4957Z" fill="#AE8D92"/>
<path fill-rule="evenodd" clip-rule="evenodd" d="M769.448 73.8654L767.497 75.8163C765.847 74.7246 763.639 75.0596 762.387 76.5912C761.135 78.1228 761.248 80.3535 762.646 81.7521C764.045 83.1507 766.276 83.2625 767.808 82.0112C769.34 80.7597 769.675 78.5515 768.583 76.9023L770.534 74.9516L769.448 73.8654ZM765.382 81.321C764.109 81.321 763.077 80.2894 763.077 79.0168C763.077 77.7441 764.109 76.7127 765.382 76.7127C765.724 76.7138 766.062 76.7924 766.369 76.9429L764.839 78.4734L765.925 79.5592L767.456 78.0298C767.606 78.3373 767.685 78.6746 767.686 79.0168C767.686 80.2894 766.655 81.321 765.382 81.321Z" fill="#AE8D92"/>
<path d="M781.514 76.7126H771.527V78.249H781.514V76.7126Z" fill="#AE8D92"/>
<path d="M771.527 79.7848H776.905V81.3209H771.527V79.7848Z" fill="#AE8D92"/>
<path d="M781.514 79.7848H778.441V81.3209H781.514V79.7848Z" fill="#AE8D92"/>
<path d="M788.512 81.6639L789.887 80.9774L790.942 83.0966L799.407 74.6334L800.493 75.7195L791.275 84.9362C791.131 85.0802 790.935 85.1612 790.732 85.1612C790.692 85.1607 790.652 85.1574 790.613 85.1512C790.369 85.1118 790.159 84.9572 790.049 84.7362L788.512 81.6639Z" fill="#AE8D92"/>
<path fill-rule="evenodd" clip-rule="evenodd" d="M794.573 92.0741C800.937 92.0741 806.096 86.9155 806.096 80.553C806.096 74.1899 800.937 69.0319 794.573 69.0319C788.209 69.0319 783.05 74.1899 783.05 80.553C783.058 86.9126 788.212 92.0664 794.573 92.0741ZM794.573 70.5682C800.088 70.5682 804.56 75.0385 804.56 80.553C804.56 86.0675 800.088 90.5376 794.573 90.5376C789.057 90.5376 784.586 86.0675 784.586 80.553C784.593 75.0412 789.06 70.5743 794.573 70.5682Z" fill="#AE8D92"/>
<path d="M546.126 33.6865H549.658C550.043 33.6865 550.355 33.3748 550.355 32.9897C550.355 32.605 550.043 32.2929 549.658 32.2929H546.126C545.741 32.2929 545.429 32.605 545.429 32.9897C545.429 33.3748 545.741 33.6865 546.126 33.6865Z" fill="#AE8D92"/>
<path d="M553.747 33.6865H552.074C551.689 33.6865 551.377 33.3748 551.377 32.9897C551.377 32.605 551.689 32.2929 552.074 32.2929H553.747C554.132 32.2929 554.444 32.605 554.444 32.9897C554.444 33.3748 554.132 33.6865 553.747 33.6865Z" fill="#AE8D92"/>
<path d="M551.424 34.7528H549.1C548.715 34.7528 548.403 35.0649 548.403 35.45C548.403 35.8348 548.715 36.1469 549.1 36.1469H551.424C551.809 36.1469 552.121 35.8348 552.121 35.45C552.121 35.0649 551.809 34.7528 551.424 34.7528Z" fill="#AE8D92"/>
<path d="M560.067 37.3011H562.39C562.776 37.3011 563.087 37.6132 563.087 37.9979C563.087 38.3827 562.776 38.6948 562.39 38.6948H560.067C559.682 38.6948 559.37 38.3827 559.37 37.9979C559.37 37.6132 559.682 37.3011 560.067 37.3011Z" fill="#AE8D92"/>
<path d="M552.864 35.45C552.864 35.8348 553.177 36.1469 553.561 36.1469H559.138C559.523 36.1469 559.835 35.8348 559.835 35.45C559.835 35.0649 559.523 34.7528 559.138 34.7528H553.561C553.177 34.7528 552.864 35.0649 552.864 35.45Z" fill="#AE8D92"/>
<path d="M551.331 38.6948C550.946 38.6948 550.634 38.3827 550.634 37.9979C550.634 37.6132 550.946 37.3011 551.331 37.3011H552.539C552.924 37.3011 553.236 37.6132 553.236 37.9979C553.236 38.3827 552.924 38.6948 552.539 38.6948H551.331Z" fill="#AE8D92"/>
<path d="M557.929 38.6948C558.315 38.6948 558.627 38.3827 558.627 37.9979C558.627 37.6132 558.315 37.3011 557.929 37.3011H554.584C554.199 37.3011 553.887 37.6132 553.887 37.9979C553.887 38.3827 554.199 38.6948 554.584 38.6948H557.929Z" fill="#AE8D92"/>
<path d="M549.658 46.3341C550.043 46.3341 550.355 46.6458 550.355 47.0309C550.355 47.4156 550.043 47.7277 549.658 47.7277H546.126C545.741 47.7277 545.429 47.4156 545.429 47.0309C545.429 46.6458 545.741 46.3341 546.126 46.3341H549.658Z" fill="#AE8D92"/>
<path d="M552.074 46.3341C551.689 46.3341 551.377 46.6458 551.377 47.0309C551.377 47.4156 551.689 47.7277 552.074 47.7277H553.747C554.132 47.7277 554.444 47.4156 554.444 47.0309C554.444 46.6458 554.132 46.3341 553.747 46.3341H552.074Z" fill="#AE8D92"/>
<path d="M551.424 48.794C551.809 48.794 552.121 49.1061 552.121 49.4909C552.121 49.876 551.809 50.188 551.424 50.188H549.1C548.715 50.188 548.403 49.876 548.403 49.4909C548.403 49.1061 548.715 48.794 549.1 48.794H551.424Z" fill="#AE8D92"/>
<path d="M552.539 51.3423H551.331C550.946 51.3423 550.634 51.654 550.634 52.0391C550.634 52.4239 550.946 52.7359 551.331 52.7359H552.539C552.924 52.7359 553.236 52.4239 553.236 52.0391C553.236 51.654 552.924 51.3423 552.539 51.3423Z" fill="#AE8D92"/>
<path d="M560.067 51.3423H562.39C562.776 51.3423 563.087 51.654 563.087 52.0391C563.087 52.4239 562.776 52.7359 562.39 52.7359H560.067C559.682 52.7359 559.37 52.4239 559.37 52.0391C559.37 51.654 559.682 51.3423 560.067 51.3423Z" fill="#AE8D92"/>
<path d="M559.835 49.4909C559.835 49.1061 559.523 48.794 559.138 48.794H553.561C553.177 48.794 552.864 49.1061 552.864 49.4909C552.864 49.876 553.177 50.188 553.561 50.188H559.138C559.523 50.188 559.835 49.876 559.835 49.4909Z" fill="#AE8D92"/>
<path d="M554.584 51.3423H557.929C558.315 51.3423 558.627 51.654 558.627 52.0391C558.627 52.4239 558.315 52.7359 557.929 52.7359H554.584C554.199 52.7359 553.887 52.4239 553.887 52.0391C553.887 51.654 554.199 51.3423 554.584 51.3423Z" fill="#AE8D92"/>
<path d="M546.126 41.8883H548.078C548.463 41.8883 548.775 41.5762 548.775 41.1914C548.775 40.8063 548.463 40.4946 548.078 40.4946H546.126C545.741 40.4946 545.429 40.8063 545.429 41.1914C545.429 41.5762 545.741 41.8883 546.126 41.8883Z" fill="#AE8D92"/>
<path d="M557.186 40.4946C557.571 40.4946 557.883 40.8063 557.883 41.1914C557.883 41.5762 557.571 41.8883 557.186 41.8883H550.03C549.645 41.8883 549.333 41.5762 549.333 41.1914C549.333 40.8063 549.645 40.4946 550.03 40.4946H557.186Z" fill="#AE8D92"/>
<path d="M556.582 43.6514C556.582 43.2666 556.27 42.9546 555.885 42.9546H549.1C548.715 42.9546 548.403 43.2666 548.403 43.6514C548.403 44.0365 548.715 44.3486 549.1 44.3486H555.885C556.27 44.3486 556.582 44.0365 556.582 43.6514Z" fill="#AE8D92"/>
<path d="M559.138 44.3486H557.837C557.452 44.3486 557.139 44.0365 557.139 43.6514C557.139 43.2666 557.452 42.9546 557.837 42.9546H559.138C559.523 42.9546 559.835 43.2666 559.835 43.6514C559.835 44.0365 559.523 44.3486 559.138 44.3486Z" fill="#AE8D92"/>
<path fill-rule="evenodd" clip-rule="evenodd" d="M546.904 24.1039C545.776 24.1039 544.858 25.0216 544.858 26.149C544.858 27.2767 545.776 28.1944 546.904 28.1944C548.032 28.1944 548.949 27.2767 548.949 26.149C548.949 25.0216 548.032 24.1039 546.904 24.1039ZM546.904 26.8004C546.545 26.8004 546.252 26.5083 546.252 26.149C546.252 25.79 546.545 25.4979 546.904 25.4979C547.263 25.4979 547.555 25.79 547.555 26.149C547.555 26.5083 547.263 26.8004 546.904 26.8004Z" fill="#AE8D92"/>
<path fill-rule="evenodd" clip-rule="evenodd" d="M550.066 26.149C550.066 25.0216 550.984 24.1039 552.112 24.1039C553.24 24.1039 554.157 25.0216 554.157 26.149C554.157 27.2767 553.24 28.1944 552.112 28.1944C550.984 28.1944 550.066 27.2767 550.066 26.149ZM551.46 26.149C551.46 26.5083 551.752 26.8004 552.112 26.8004C552.471 26.8004 552.763 26.5083 552.763 26.149C552.763 25.79 552.471 25.4979 552.112 25.4979C551.752 25.4979 551.46 25.79 551.46 26.149Z" fill="#AE8D92"/>
<path fill-rule="evenodd" clip-rule="evenodd" d="M557.32 24.1039C556.192 24.1039 555.274 25.0216 555.274 26.149C555.274 27.2767 556.192 28.1944 557.32 28.1944C558.448 28.1944 559.365 27.2767 559.365 26.149C559.365 25.0216 558.448 24.1039 557.32 24.1039ZM557.32 26.8004C556.961 26.8004 556.668 26.5083 556.668 26.149C556.668 25.79 556.961 25.4979 557.32 25.4979C557.679 25.4979 557.971 25.79 557.971 26.149C557.971 26.5083 557.679 26.8004 557.32 26.8004Z" fill="#AE8D92"/>
<path fill-rule="evenodd" clip-rule="evenodd" d="M589.338 34.4803C589.338 34.8655 589.026 35.1775 588.64 35.1775C588.256 35.1775 587.944 34.8655 587.944 34.4803V30.909H566.155V54.18H587.944V38.8015C587.944 38.4164 588.256 38.1044 588.64 38.1044C589.026 38.1044 589.337 38.4164 589.337 38.8015V58.2175C589.337 59.7503 588.207 61.024 586.736 61.2493C586.584 61.2729 586.428 61.2849 586.27 61.2849H572.706V63.7845H574.811C576.215 63.7845 577.357 64.9263 577.357 66.3298V67.8357C577.357 68.4762 576.836 68.9972 576.195 68.9972H562.556C562.172 68.9972 561.859 68.6851 561.859 68.3C561.859 67.9153 562.172 67.6032 562.556 67.6032H575.963V66.3298C575.963 65.6947 575.447 65.1781 574.811 65.1781H556.289C555.654 65.1781 555.138 65.6947 555.138 66.3298V67.6032H558.229C558.614 67.6032 558.926 67.9153 558.926 68.3C558.926 68.6851 558.614 68.9972 558.229 68.9972H554.905C554.264 68.9972 553.743 68.4762 553.743 67.8357V66.3298C553.743 64.9263 554.886 63.7845 556.289 63.7845H558.394V61.2849H544.831C544.673 61.2849 544.517 61.2729 544.364 61.2493C542.893 61.024 541.763 59.7503 541.763 58.2175V24.4963C541.763 22.8051 543.14 21.4289 544.831 21.4289H586.323C588.014 21.4289 589.39 22.8047 589.39 24.4959L589.338 34.4803ZM564.76 30.909H543.209V54.1299H564.76V30.909ZM559.788 63.7845H571.312V61.2849H559.788V63.7845ZM587.944 58.2175V55.574H543.157V58.2175C543.157 59.0825 543.817 59.7964 544.66 59.8825C544.716 59.888 544.773 59.8909 544.831 59.8909H586.27C586.328 59.8909 586.384 59.888 586.441 59.8825C587.284 59.7964 587.944 59.0825 587.944 58.2175ZM543.209 29.515H587.944V24.4963C587.944 23.5735 587.193 22.8229 586.27 22.8229H544.882C543.959 22.8229 543.209 23.5735 543.209 24.4959V29.515Z" fill="#AE8D92"/>
<path d="M573.671 48.3686H569.211C568.825 48.3686 568.513 48.6807 568.513 49.0654C568.513 49.4505 568.825 49.7622 569.211 49.7622H573.671C574.056 49.7622 574.369 49.4505 574.369 49.0654C574.369 48.6807 574.056 48.3686 573.671 48.3686Z" fill="#AE8D92"/>
<path d="M576.181 48.3686H585.01C585.395 48.3686 585.707 48.6807 585.707 49.0654C585.707 49.4505 585.395 49.7622 585.01 49.7622H576.181C575.796 49.7622 575.484 49.4505 575.484 49.0654C575.484 48.6807 575.796 48.3686 576.181 48.3686Z" fill="#AE8D92"/>
<path d="M573.671 51.0633H569.211C568.825 51.0633 568.513 51.3753 568.513 51.7605C568.513 52.1452 568.825 52.4573 569.211 52.4573H573.671C574.056 52.4573 574.369 52.1452 574.369 51.7605C574.369 51.3753 574.056 51.0633 573.671 51.0633Z" fill="#AE8D92"/>
<path d="M576.181 51.0633H585.01C585.395 51.0633 585.707 51.3753 585.707 51.7605C585.707 52.1452 585.395 52.4573 585.01 52.4573H576.181C575.796 52.4573 575.484 52.1452 575.484 51.7605C575.484 51.3753 575.796 51.0633 576.181 51.0633Z" fill="#AE8D92"/>
<path fill-rule="evenodd" clip-rule="evenodd" d="M585.728 34.0938C585.728 33.1009 584.92 32.2929 583.927 32.2929H570.293C569.3 32.2929 568.492 33.1009 568.492 34.0938V45.1842C568.492 46.1771 569.3 46.9851 570.293 46.9851H583.927C584.92 46.9851 585.728 46.1771 585.728 45.1842V34.0938ZM584.334 45.1842C584.334 45.4087 584.151 45.5911 583.927 45.5911H570.293C570.068 45.5911 569.886 45.4087 569.886 45.1842V43.8218L574.991 38.7198L578.515 42.6901C578.77 42.9782 579.211 43.0043 579.499 42.7489C579.787 42.4935 579.813 42.0532 579.558 41.7651L579.238 41.4051L580.814 39.8305L584.334 43.7978V45.1842ZM584.334 41.6975L581.652 38.6748C581.451 38.4484 581.162 38.3133 580.859 38.3042C580.555 38.2955 580.26 38.4128 580.046 38.6268L578.311 40.3602L575.829 37.5641C575.628 37.3374 575.339 37.2023 575.037 37.1936C574.734 37.1852 574.438 37.3018 574.224 37.5158L569.886 41.8508V34.0938C569.886 33.8693 570.068 33.6865 570.293 33.6865H583.927C584.152 33.6865 584.334 33.8693 584.334 34.0938V41.6975Z" fill="#AE8D92"/>
<path fill-rule="evenodd" clip-rule="evenodd" d="M155.633 55.9214C160.612 37.3091 156.941 23.1987 148.752 13.779C140.599 4.39993 128.119 -0.153299 115.784 0.00393584C103.448 0.161179 91.0974 5.03165 83.2139 14.7125C75.2985 24.4326 72.0379 38.8131 77.5456 57.6507C81.7493 72.028 93.141 80.0849 108.435 83.8681C115.043 85.5026 122.411 86.3502 130.305 86.5706C118.48 94.3759 103.466 98.9246 87.4419 101.199C56.4823 105.592 22.2361 101.401 1.48158 96.1783C0.843867 96.0178 0.19679 96.4046 0.0362915 97.0422C-0.124207 97.6798 0.262651 98.3268 0.900363 98.4873C21.8753 103.765 56.44 108.003 87.7765 103.556C105.182 101.086 121.742 95.9077 134.391 86.6295C143.571 86.642 153.38 85.8776 163.471 84.5716C199.638 79.8909 239.813 68.1953 268.427 59.8656L268.442 59.8611C272.225 58.7599 275.806 57.7175 279.148 56.7581C283.752 55.4364 289.035 54.0231 294.671 52.7621C290.98 62.0451 289.025 71.6448 288.731 80.4513C288.356 91.6889 290.685 101.803 295.766 108.284C311.101 127.844 336.492 128.81 353.525 118.539C362.063 113.391 368.581 105.38 370.682 95.387C372.787 85.38 370.425 73.5661 361.55 60.8909C353.411 49.2655 338.38 46.0723 322.773 46.5062C314.745 46.7294 306.454 47.9143 298.671 49.478C299.186 48.3629 299.727 47.2552 300.296 46.157C311.901 23.7332 334.625 5.34931 369.816 9.11886C426.753 15.2177 474.073 44.1499 491.864 57.4195L491.88 57.4313L491.896 57.4425C493.282 58.406 494.787 59.4785 496.401 60.6286C506.111 67.5479 519.761 77.2743 534.942 82.9361C536.094 83.366 537.257 83.7728 538.428 84.1534C540.095 86.5594 541.899 88.9096 543.83 91.1852C561.278 111.751 589.336 126.676 620.483 122.351C670.062 115.467 701.316 76.7744 714.115 58.86C727.7 39.8451 741.599 26.8569 755.945 21.9372C760.243 20.4632 764.603 19.7067 769.034 19.7413C757.923 27.4545 750.141 36.2754 745.363 45.5546C737.614 60.6038 737.834 76.7405 744.427 91.0203C749.757 102.567 760.521 108.278 772.373 109.479C784.203 110.678 797.244 107.413 807.465 100.89C817.687 94.3671 825.239 84.4771 825.738 72.3717C826.238 60.2652 819.67 46.3214 802.486 31.7187C793.497 24.0806 784.694 19.6324 776.069 18.0357C781.495 14.7833 787.622 11.764 794.489 9.04181C807.784 3.771 825.351 4.47928 839.316 13.3184C853.211 22.1135 863.702 39.068 862.693 66.6387L862.692 66.6604V66.6822C862.692 84.175 871.828 100.646 892.505 108.409C913.077 116.132 944.915 115.179 990.334 98.4499C1004.47 93.2415 1020.93 86.0873 1035.39 79.7955L1035.4 79.7935C1044.01 76.0477 1051.92 72.6076 1058.22 70.0659C1062.47 68.3527 1065.97 67.0525 1068.49 66.3221C1069.69 65.9732 1070.62 65.7706 1071.27 65.7026C1070.86 66.268 1070.15 67.0512 1069.07 68.0837C1066.76 70.274 1062.95 73.4012 1057.33 77.6528C1046.04 86.2099 1038.5 93.7979 1034 100.185C1029.53 106.523 1027.89 111.893 1028.85 115.915C1029.86 120.115 1033.54 122.34 1038.36 122.653C1043.16 122.964 1049.33 121.438 1056.04 117.973C1056.63 117.671 1056.86 116.953 1056.56 116.369C1056.25 115.785 1055.54 115.556 1054.95 115.857C1048.47 119.204 1042.74 120.551 1038.51 120.277C1034.31 120.004 1031.85 118.185 1031.17 115.361C1030.45 112.359 1031.59 107.725 1035.94 101.557C1040.26 95.4399 1047.59 88.0218 1058.77 79.5508C1064.4 75.2884 1068.3 72.0958 1070.71 69.8102C1071.9 68.6747 1072.78 67.716 1073.32 66.9283C1073.58 66.5382 1073.81 66.1242 1073.92 65.7029C1074.04 65.2741 1074.07 64.6954 1073.72 64.1667C1073.38 63.6575 1072.86 63.453 1072.46 63.3687C1072.06 63.2824 1071.61 63.2826 1071.16 63.3207C1070.27 63.3974 1069.14 63.6548 1067.83 64.0354C1065.18 64.8015 1061.59 66.1403 1057.33 67.8579C1050.91 70.4492 1042.94 73.9145 1034.3 77.6724L1034.29 77.6771L1034.29 77.6778L1034.29 77.6784L1034.28 77.6799L1034.28 77.6812L1034.28 77.6817C1019.88 83.9454 1003.62 91.0205 989.511 96.2157C944.319 112.861 913.136 113.611 893.342 106.18C873.66 98.7905 865.081 83.2589 865.074 66.7037C866.102 38.435 855.305 20.6207 840.589 11.3067C825.94 2.03433 807.568 1.29519 793.611 6.82847C785.582 10.0118 778.516 13.6078 772.369 17.5237C766.556 16.9911 760.825 17.7467 755.172 19.685C740.113 24.8492 725.852 38.3355 712.177 57.476C699.428 75.3206 668.683 113.255 620.156 119.993C589.987 124.182 562.689 109.734 545.646 89.645C544.429 88.2106 543.266 86.7496 542.159 85.2668C558.036 89.5727 575.258 88.6431 591.276 75.2583C605.734 63.1775 611.425 50.5819 611.055 39.2311C610.685 27.9005 604.281 18.0895 595.119 11.5575C576.819 -1.48889 547.028 -1.74568 530.732 25.1987C521.114 41.1007 524.617 62.3516 536.272 80.8892C536.106 80.8284 535.94 80.7671 535.774 80.7053C520.917 75.164 507.557 65.6493 497.829 58.7208L497.828 58.7201C496.205 57.5644 494.683 56.4807 493.273 55.4995C475.284 42.0865 427.574 12.911 370.07 6.75142C333.725 2.85831 310.15 21.9363 298.181 45.0628C297.325 46.7158 296.529 48.3899 295.791 50.0782C289.466 51.4424 283.554 53.0162 278.491 54.4696C275.133 55.4335 271.54 56.4793 267.748 57.583C239.115 65.9176 199.132 77.5555 163.165 82.2103C154.254 83.3636 145.613 84.0846 137.47 84.2239C146.018 77.1064 152.444 67.841 155.633 55.9214ZM109.007 81.5568C116.311 83.3634 124.618 84.1884 133.602 84.2454C143.008 77.158 150.016 67.7057 153.332 55.3062C158.147 37.3081 154.53 24.0551 146.955 15.3409C139.345 6.58594 127.587 2.23466 115.814 2.38473C104.042 2.53479 92.416 7.18343 85.0606 16.2159C77.7371 25.2091 74.4964 38.7361 79.8313 56.9826C83.7181 70.276 94.2201 77.8991 109.007 81.5568ZM291.111 80.5306C291.411 71.5296 293.509 61.6394 297.493 52.1504C305.647 50.4414 314.405 49.1207 322.839 48.8862C338.26 48.4575 352.185 51.6667 359.6 62.2564C368.183 74.5151 370.293 85.6678 368.352 94.897C366.408 104.14 360.365 111.635 352.296 116.5C336.116 126.256 312.113 125.275 297.641 106.815C293.043 100.951 290.746 91.4829 291.111 80.5306ZM747.48 46.6443C752.404 37.081 760.726 27.9081 772.953 19.9781C781.965 20.9963 791.272 25.3139 800.944 33.5329C817.824 47.878 823.817 61.1792 823.359 72.2735C822.901 83.369 815.974 92.6356 806.184 98.8834C796.392 105.132 783.884 108.252 772.614 107.11C761.365 105.97 751.478 100.612 746.589 90.0225C740.289 76.3764 740.083 61.0111 747.48 46.6443ZM589.749 73.4313C573.544 86.9728 556.078 87.2082 539.926 82.1331C527.235 63.4648 523.378 41.9597 532.77 26.4307C548.203 0.912622 576.323 1.08151 593.736 13.4961C602.43 19.6945 608.334 28.8729 608.675 39.3088C609.015 49.7245 603.821 61.6728 589.749 73.4313Z" fill="#AE8D92"/>
</svg>
