<svg width="15" height="15" viewBox="0 0 15 15" fill="none" xmlns="http://www.w3.org/2000/svg">
<path d="M14.676 6.83134L8.21411 0.276741C7.84885 -0.0922471 7.25513 -0.0922471 6.88987 0.276741C6.52369 0.64573 6.52369 1.24506 6.88987 1.61405L12.6925 7.49996L6.88987 13.3859C6.52369 13.7549 6.52369 14.3542 6.88987 14.7232C7.25606 15.0922 7.84885 15.0922 8.21411 14.7232L14.6751 8.16858C15.0281 7.81376 15.029 7.18725 14.676 6.83134Z" fill="black"/>
<path d="M8.12045 6.83134L1.6595 0.276741C1.29331 -0.0922471 0.700518 -0.0922471 0.335266 0.276741C-0.03092 0.64573 -0.03092 1.24506 0.335266 1.61405L6.13695 7.49996L0.334332 13.3859C-0.0318541 13.7549 -0.0318541 14.3542 0.334332 14.7232C0.700518 15.0922 1.29331 15.0922 1.65856 14.7232L8.11952 8.16858C8.47255 7.81376 8.47348 7.18725 8.12045 6.83134Z" fill="black"/>
</svg>
