<svg width="168" height="118" viewBox="0 0 168 118" fill="none" xmlns="http://www.w3.org/2000/svg">
<g filter="url(#filter0_d)">
<rect x="9" y="5" width="150" height="100" rx="20" fill="white"/>
</g>
<path d="M50.3508 83H48.9908V71.78H50.3508V83ZM62.8271 83H61.1441L56.4521 75.486L55.2621 73.276H55.2451L55.3131 75.078V83H54.0211V71.78H55.7041L60.3791 79.26L61.5861 81.504H61.6031L61.5351 79.702V71.78H62.8271V83ZM70.9594 83H69.4124L65.1454 71.78H66.6074L69.4634 79.532L70.1774 81.759L70.8914 79.549L73.7474 71.78H75.2094L70.9594 83ZM78.8889 83H77.5289V71.78H78.8889V83ZM86.1631 71.61C88.1691 71.61 89.6141 72.4033 90.4981 73.99L89.3251 74.942C88.9851 74.194 88.5771 73.667 88.1011 73.361C87.6365 73.0437 86.9961 72.885 86.1801 72.885C85.3188 72.885 84.6388 73.0663 84.1401 73.429C83.6528 73.7803 83.4091 74.2337 83.4091 74.789C83.4091 75.1517 83.5055 75.452 83.6981 75.69C83.8908 75.928 84.2081 76.1377 84.6501 76.319C85.1035 76.489 85.7268 76.642 86.5201 76.778C88.0048 77.0273 89.0531 77.4013 89.6651 77.9C90.2885 78.3987 90.6001 79.09 90.6001 79.974C90.6001 80.6087 90.4188 81.1697 90.0561 81.657C89.7048 82.133 89.2005 82.507 88.5431 82.779C87.8858 83.0397 87.1265 83.17 86.2651 83.17C85.1318 83.17 84.1628 82.949 83.3581 82.507C82.5648 82.065 81.9585 81.4757 81.5391 80.739L82.7121 79.787C83.0181 80.4557 83.4658 80.977 84.0551 81.351C84.6558 81.7137 85.4038 81.895 86.2991 81.895C87.1831 81.895 87.8858 81.7363 88.4071 81.419C88.9285 81.0903 89.1891 80.6313 89.1891 80.042C89.1891 79.5433 88.9625 79.1467 88.5091 78.852C88.0558 78.5573 87.2511 78.308 86.0951 78.104C84.5991 77.8433 83.5395 77.4693 82.9161 76.982C82.2928 76.4947 81.9811 75.8147 81.9811 74.942C81.9811 74.3413 82.1511 73.786 82.4911 73.276C82.8311 72.766 83.3185 72.3637 83.9531 72.069C84.5878 71.763 85.3245 71.61 86.1631 71.61ZM94.8098 83H93.4498V71.78H94.8098V83ZM103.002 71.61C104.056 71.61 104.974 71.848 105.756 72.324C106.538 72.7887 107.139 73.4573 107.558 74.33C107.989 75.1913 108.204 76.2113 108.204 77.39C108.204 78.5687 107.989 79.5943 107.558 80.467C107.139 81.3283 106.538 81.997 105.756 82.473C104.974 82.9377 104.056 83.17 103.002 83.17C101.948 83.17 101.03 82.9377 100.248 82.473C99.466 81.997 98.8597 81.3283 98.429 80.467C98.0097 79.5943 97.8 78.5687 97.8 77.39C97.8 76.2113 98.0097 75.1913 98.429 74.33C98.8597 73.4573 99.466 72.7887 100.248 72.324C101.03 71.848 101.948 71.61 103.002 71.61ZM103.002 72.885C101.835 72.885 100.911 73.2873 100.231 74.092C99.5624 74.8853 99.228 75.9847 99.228 77.39C99.228 78.7953 99.5624 79.9003 100.231 80.705C100.911 81.4983 101.835 81.895 103.002 81.895C104.169 81.895 105.087 81.4983 105.756 80.705C106.436 79.9003 106.776 78.7953 106.776 77.39C106.776 75.9847 106.436 74.8853 105.756 74.092C105.087 73.2873 104.169 72.885 103.002 72.885ZM120.003 83H118.32L113.628 75.486L112.438 73.276H112.421L112.489 75.078V83H111.197V71.78H112.88L117.555 79.26L118.762 81.504H118.779L118.711 79.702V71.78H120.003V83Z" fill="#777777"/>
<g clip-path="url(#clip0)">
<path d="M97.2847 47.372C97.2847 47.372 96.2849 49.6542 95.1314 50.0638C93.9778 50.4735 92.9819 49.5956 94.8942 45.2658C96.8071 40.9354 95.7312 37.1902 94.536 36.0198C93.3401 34.8495 90.1132 34.4984 88.3203 35.5519C86.5269 36.605 85.326 38.0977 85.326 38.0977L85.9028 34.9667L78.8772 35.0836L77.8014 38.9457H80.9089C80.9089 38.9457 78.0402 47.4482 77.8014 47.6442C77.5626 47.8403 75.5207 49.3673 74.6556 49.6542C73.7904 49.9416 72.781 50.181 73.2592 48.3086C73.7374 46.4361 76.6061 34.9667 76.6061 34.9667H68.7159L68 38.7116V38.9457H70.8687C70.8687 38.9457 68.5993 47.8403 68.4782 48.8935C68.3566 49.9472 68.5993 52.1245 72.06 52.7556C75.5207 53.3872 78.0402 50.0638 78.0402 50.0638L77.5626 52.7556H82.1047C82.1047 52.7556 84.4609 43.5792 85.326 41.5597C86.1912 39.5402 89.0751 37.7743 90.5171 38.9457C91.959 40.1172 91.3085 41.9886 90.7108 43.51C90.1132 45.0314 88.7867 49.0608 89.9403 51.0803C91.0939 53.0999 94.8942 53.9654 97.0459 51.4686C98.592 49.6542 99.1688 47.9068 99.1688 47.9068L97.2847 47.372Z" fill="#FF427A"/>
<path d="M74.3672 32.6161C75.6414 32.6161 76.6743 31.5827 76.6743 30.308C76.6743 29.0333 75.6414 28 74.3672 28C73.093 28 72.0601 29.0333 72.0601 30.308C72.0601 31.5827 73.093 32.6161 74.3672 32.6161Z" fill="#FF427A"/>
</g>
<defs>
<filter id="filter0_d" x="0" y="0" width="168" height="118" filterUnits="userSpaceOnUse" color-interpolation-filters="sRGB">
<feFlood flood-opacity="0" result="BackgroundImageFix"/>
<feColorMatrix in="SourceAlpha" type="matrix" values="0 0 0 0 0 0 0 0 0 0 0 0 0 0 0 0 0 0 127 0"/>
<feOffset dy="4"/>
<feGaussianBlur stdDeviation="4.5"/>
<feColorMatrix type="matrix" values="0 0 0 0 0.592 0 0 0 0 0.592 0 0 0 0 0.592 0 0 0 0.25 0"/>
<feBlend mode="normal" in2="BackgroundImageFix" result="effect1_dropShadow"/>
<feBlend mode="normal" in="SourceGraphic" in2="effect1_dropShadow" result="shape"/>
</filter>
<clipPath id="clip0">
<rect width="31.1688" height="25" fill="white" transform="translate(68 28)"/>
</clipPath>
</defs>
</svg>
