<svg width="168" height="118" viewBox="0 0 168 118" fill="none" xmlns="http://www.w3.org/2000/svg">
<g filter="url(#filter0_d)">
<rect x="9" y="5" width="150" height="100" rx="20" fill="white"/>
</g>
<path d="M46.1681 71.78C47.3014 71.78 48.2138 72.0917 48.9051 72.715C49.5964 73.327 49.9421 74.1543 49.9421 75.197C49.9421 76.2397 49.5964 77.0727 48.9051 77.696C48.2138 78.308 47.3014 78.614 46.1681 78.614H43.5671V83H42.2071V71.78H46.1681ZM45.9641 77.339C46.8368 77.339 47.4771 77.1633 47.8851 76.812C48.3044 76.4493 48.5141 75.911 48.5141 75.197C48.5141 74.483 48.3044 73.9503 47.8851 73.599C47.4771 73.2363 46.8368 73.055 45.9641 73.055H43.5671V77.339H45.9641ZM56.6291 78.342H53.9431V83H52.5831V71.78H56.8331C57.9777 71.78 58.8957 72.0747 59.5871 72.664C60.2784 73.2533 60.6241 74.0523 60.6241 75.061C60.6241 75.8543 60.4031 76.523 59.9611 77.067C59.5191 77.611 58.9127 77.985 58.1421 78.189L61.3041 83H59.6891L56.6291 78.342ZM53.9431 77.067H56.8161C58.4027 77.067 59.1961 76.3983 59.1961 75.061C59.1961 73.7237 58.4027 73.055 56.8161 73.055H53.9431V77.067ZM65.2487 83H63.8887V71.78H65.2487V83ZM77.725 83H76.042L71.35 75.486L70.16 73.276H70.143L70.211 75.078V83H68.919V71.78H70.602L75.277 79.26L76.484 81.504H76.501L76.433 79.702V71.78H77.725V83ZM90.4474 80.127C90.0961 81.079 89.5181 81.827 88.7134 82.371C87.9087 82.9037 86.9794 83.17 85.9254 83.17C84.8714 83.17 83.9534 82.9377 83.1714 82.473C82.3894 81.997 81.783 81.3283 81.3524 80.467C80.933 79.5943 80.7234 78.5687 80.7234 77.39C80.7234 76.2227 80.933 75.2027 81.3524 74.33C81.783 73.4573 82.3894 72.7887 83.1714 72.324C83.9534 71.848 84.86 71.61 85.8914 71.61C86.968 71.61 87.869 71.831 88.5944 72.273C89.331 72.715 89.8807 73.3667 90.2434 74.228L88.9004 74.857C88.651 74.1997 88.2884 73.7067 87.8124 73.378C87.3364 73.0493 86.73 72.885 85.9934 72.885C85.2227 72.885 84.5484 73.0663 83.9704 73.429C83.3924 73.7803 82.9447 74.296 82.6274 74.976C82.31 75.656 82.1514 76.4607 82.1514 77.39C82.1514 78.7953 82.4857 79.9003 83.1544 80.705C83.8344 81.4983 84.758 81.895 85.9254 81.895C86.6847 81.895 87.342 81.7023 87.8974 81.317C88.4527 80.9317 88.8494 80.365 89.0874 79.617L90.4474 80.127ZM94.4177 83H93.0577V71.78H94.4177V83ZM102.049 71.78C103.182 71.78 104.095 72.0917 104.786 72.715C105.477 73.327 105.823 74.1543 105.823 75.197C105.823 76.2397 105.477 77.0727 104.786 77.696C104.095 78.308 103.182 78.614 102.049 78.614H99.448V83H98.088V71.78H102.049ZM101.845 77.339C102.718 77.339 103.358 77.1633 103.766 76.812C104.185 76.4493 104.395 75.911 104.395 75.197C104.395 74.483 104.185 73.9503 103.766 73.599C103.358 73.2363 102.718 73.055 101.845 73.055H99.448V77.339H101.845ZM116.25 81.725V83H108.464V71.78H109.824V81.725H116.25ZM126.75 81.725V83H118.624V71.78H126.495V73.055H119.984V76.676H125.05V77.951H119.984V81.725H126.75Z" fill="#777777"/>
<g clip-path="url(#clip0)">
<path d="M83.5877 47.5883C84.6523 47.5883 85.5152 46.7307 85.5152 45.6727C85.5152 44.6146 84.6521 43.757 83.5877 43.757C82.5232 43.757 81.6602 44.6146 81.6602 45.6727C81.66 46.7307 82.523 47.5883 83.5877 47.5883ZM74.127 50.8969L74.125 39.3166C74.125 34.1711 78.3223 30 83.5 30C88.6777 30 92.875 34.1711 92.875 39.3166C92.875 44.4621 88.7652 48.6332 83.5877 48.6332C81.9424 48.6332 80.6088 47.3078 80.6088 45.6729C80.6088 44.0379 81.9426 42.7125 83.5877 42.7125C85.4748 42.7125 86.9172 41.1922 86.9172 39.3168C86.9172 37.4414 85.3873 35.9211 83.5002 35.9211C81.6131 35.9211 80.0832 37.4414 80.0832 39.3164L80.0854 52.0396C80.0859 54.9088 76.9377 55.6926 75.2182 54.391C75.7225 54.0455 76.0529 53.4676 76.0529 52.8129C76.0525 51.7553 75.1906 50.898 74.127 50.8969Z" fill="url(#paint0_linear)"/>
</g>
<defs>
<filter id="filter0_d" x="0" y="0" width="168" height="118" filterUnits="userSpaceOnUse" color-interpolation-filters="sRGB">
<feFlood flood-opacity="0" result="BackgroundImageFix"/>
<feColorMatrix in="SourceAlpha" type="matrix" values="0 0 0 0 0 0 0 0 0 0 0 0 0 0 0 0 0 0 127 0"/>
<feOffset dy="4"/>
<feGaussianBlur stdDeviation="4.5"/>
<feColorMatrix type="matrix" values="0 0 0 0 0.592 0 0 0 0 0.592 0 0 0 0 0.592 0 0 0 0.25 0"/>
<feBlend mode="normal" in2="BackgroundImageFix" result="effect1_dropShadow"/>
<feBlend mode="normal" in="SourceGraphic" in2="effect1_dropShadow" result="shape"/>
</filter>
<linearGradient id="paint0_linear" x1="77.416" y1="32.7085" x2="84.9681" y2="47.5522" gradientUnits="userSpaceOnUse">
<stop stop-color="#C36AD5"/>
<stop offset="1" stop-color="#662CAA"/>
</linearGradient>
<clipPath id="clip0">
<rect width="25" height="25" fill="white" transform="translate(71 30)"/>
</clipPath>
</defs>
</svg>
