<svg width="30" height="30" viewBox="0 0 30 30" fill="none" xmlns="http://www.w3.org/2000/svg">
<path d="M20.707 25.1184H9.29316C7.05996 25.1184 5.24316 23.3016 5.24316 21.0684V8.93281C5.24316 6.69961 7.05996 4.88281 9.29316 4.88281H20.707C22.9402 4.88281 24.757 6.69961 24.757 8.93281V21.0681C24.757 23.3013 22.9402 25.1184 20.707 25.1184ZM9.29316 5.78281C7.55616 5.78281 6.14316 7.19581 6.14316 8.93281V21.0681C6.14316 22.8051 7.55616 24.2181 9.29316 24.2181H20.707C22.444 24.2181 23.857 22.8051 23.857 21.0681V8.93281C23.857 7.19581 22.444 5.78281 20.707 5.78281H9.29316Z" fill="#AE8D92"/>
<path d="M14.0108 19.897C13.8911 19.897 13.7732 19.849 13.6868 19.7596L9.39771 15.3148C9.22941 15.1405 9.22941 14.8645 9.39771 14.6899L13.6868 10.2394C13.814 10.1074 14.0087 10.0654 14.1791 10.1344C14.3492 10.2031 14.4608 10.3681 14.4608 10.5517V12.7522H20.2793C20.528 12.7522 20.7293 12.9535 20.7293 13.2022V16.8022C20.7293 17.0509 20.528 17.2522 20.2793 17.2522H14.4608V19.4467C14.4608 19.63 14.3495 19.7953 14.1794 19.864C14.1248 19.8865 14.0675 19.897 14.0108 19.897ZM10.3469 15.0022L13.5608 18.3328V16.8025C13.5608 16.5538 13.7621 16.3525 14.0108 16.3525H19.8293V13.6525H14.0108C13.7621 13.6525 13.5608 13.4512 13.5608 13.2025V11.6674L10.3469 15.0022Z" fill="#AE8D92"/>
</svg>
