<svg width="30" height="30" viewBox="0 0 30 30" fill="none" xmlns="http://www.w3.org/2000/svg">
<path d="M20.5683 25.1184H9.15449C6.92129 25.1184 5.10449 23.3016 5.10449 21.0684V8.93281C5.10449 6.69961 6.92129 4.88281 9.15449 4.88281H20.5683C22.8015 4.88281 24.6183 6.69961 24.6183 8.93281V21.0681C24.6183 23.3013 22.8015 25.1184 20.5683 25.1184ZM9.15449 5.78281C7.41749 5.78281 6.00449 7.19581 6.00449 8.93281V21.0681C6.00449 22.8051 7.41749 24.2181 9.15449 24.2181H20.5683C22.3053 24.2181 23.7183 22.8051 23.7183 21.0681V8.93281C23.7183 7.19581 22.3053 5.78281 20.5683 5.78281H9.15449Z" fill="#AE8D92"/>
<path d="M15.8503 19.8966C15.7936 19.8966 15.7363 19.8858 15.6817 19.8639C15.5116 19.7952 15.4003 19.6299 15.4003 19.4466V17.2521H9.58184C9.33344 17.2521 9.13184 17.0508 9.13184 16.8021V13.2021C9.13184 12.9534 9.33344 12.7521 9.58184 12.7521H15.4003V10.5516C15.4003 10.368 15.5116 10.203 15.6817 10.1343C15.8524 10.0656 16.0471 10.1073 16.1743 10.2393L20.4634 14.6898C20.6317 14.8644 20.6314 15.1404 20.4631 15.3147L16.174 19.7592C16.0876 19.8489 15.97 19.8966 15.8503 19.8966V19.8966ZM10.0318 16.3521H15.8503C16.0987 16.3521 16.3003 16.5534 16.3003 16.8021V18.3324L19.5142 15.0018L16.3003 11.667V13.2021C16.3003 13.4508 16.0987 13.6521 15.8503 13.6521H10.0318V16.3521Z" fill="#AE8D92"/>
</svg>
