<svg width="180" height="222" viewBox="0 0 180 222" fill="none" xmlns="http://www.w3.org/2000/svg">
<path d="M177.065 86.7699H93.9131V173.54H177.065V86.7699Z" fill="#E4DCC1"/>
<path d="M177.065 0H93.9131V83.4956H177.065V0Z" fill="#EAC68A"/>
<path d="M90.6528 0H4.23975V173.54H90.6528V0Z" fill="#A3AA7D"/>
<path d="M3.70484 188.906H4.17441L15.1153 207.435C15.5222 208.159 15.8822 208.882 16.1953 209.604C16.3518 209.982 16.524 210.359 16.7118 210.735C16.8996 210.359 17.0718 209.982 17.2283 209.604C17.3848 209.259 17.5414 208.898 17.6979 208.519C17.8857 208.143 18.0892 207.782 18.3083 207.435L29.2492 188.906H29.6717L33.1936 221.346H29.7657L27.5588 201.778C27.4961 201.275 27.4492 200.74 27.4179 200.175C27.3865 199.61 27.3552 199.09 27.324 198.619C27.2927 198.053 27.2769 197.503 27.2769 196.968C27.0892 197.503 26.8857 198.037 26.6665 198.571C26.4788 199.011 26.2596 199.515 26.0092 200.079C25.7588 200.615 25.5084 201.102 25.2579 201.542L16.8057 215.97H16.4301L8.02484 201.542C7.77441 201.102 7.52397 200.615 7.27353 200.079C7.02309 199.546 6.80397 199.043 6.61614 198.571L5.95874 196.921C5.95874 197.487 5.94309 198.053 5.91178 198.619C5.88049 199.122 5.84918 199.655 5.81789 200.222C5.78657 200.755 5.73962 201.275 5.67701 201.778L3.47005 221.346H0.183105L3.70484 188.906ZM53.2913 189.283H72.7313V192.3H56.6721V207.342H70.994V210.311H56.6721V218.327H73.3888V221.346H53.2913V189.283ZM101.331 221.723C99.7975 221.723 98.4357 221.55 97.2461 221.203C96.0567 220.827 95.008 220.339 94.1 219.742C93.1923 219.146 92.4096 218.454 91.7523 217.667C91.1261 216.882 90.6096 216.063 90.2027 215.215L93.02 213.707C93.3957 214.367 93.8184 215.011 94.288 215.639C94.7888 216.238 95.3523 216.771 95.9784 217.243C96.6357 217.683 97.3871 218.044 98.2323 218.327C99.1088 218.579 100.11 218.706 101.238 218.706C102.177 218.706 103.038 218.579 103.82 218.327C104.634 218.075 105.338 217.715 105.933 217.243C106.528 216.771 106.998 216.206 107.342 215.546C107.686 214.854 107.858 214.083 107.858 213.235C107.858 212.418 107.733 211.695 107.483 211.067C107.232 210.438 106.857 209.871 106.356 209.37C105.855 208.835 105.229 208.347 104.478 207.907C103.726 207.435 102.85 206.979 101.848 206.539L99.3123 205.362C98.1853 204.858 97.1836 204.323 96.3071 203.758C95.4305 203.191 94.6948 202.563 94.1 201.871C93.5052 201.18 93.0513 200.41 92.7384 199.562C92.4252 198.714 92.2688 197.723 92.2688 196.591C92.2688 195.428 92.4723 194.375 92.8792 193.432C93.3175 192.489 93.9123 191.687 94.6636 191.027C95.4148 190.336 96.3071 189.817 97.34 189.471C98.3732 189.094 99.4844 188.906 100.674 188.906C102.834 188.906 104.603 189.361 105.98 190.273C107.358 191.153 108.469 192.3 109.314 193.715L106.59 195.412C105.964 194.406 105.198 193.573 104.29 192.913C103.382 192.253 102.177 191.923 100.674 191.923C99.0775 191.923 97.8252 192.348 96.9175 193.196C96.0409 194.014 95.6027 195.114 95.6027 196.497C95.6027 197.911 95.994 199.027 96.7767 199.844C97.5905 200.631 98.8896 201.431 100.674 202.25L103.21 203.427C104.524 204.026 105.683 204.654 106.684 205.314C107.686 205.943 108.516 206.65 109.173 207.435C109.862 208.19 110.378 209.055 110.723 210.03C111.067 210.971 111.239 212.042 111.239 213.235C111.239 214.555 110.989 215.75 110.488 216.819C109.987 217.855 109.298 218.735 108.422 219.459C107.545 220.182 106.497 220.747 105.276 221.156C104.086 221.534 102.771 221.723 101.331 221.723ZM130.832 189.283H134.213V207.342H151.305V189.283H154.686V221.346H151.305V210.454H134.213V221.346H130.832V189.283ZM176.255 189.283H179.683V221.346H176.255V189.283Z" fill="#7A7366"/>
</svg>
