<svg width="50" height="50" viewBox="0 0 50 50" fill="none" xmlns="http://www.w3.org/2000/svg">
<g clip-path="url(#clip0)">
<path d="M22.1558 38.648C22.5597 38.648 22.887 38.3207 22.8882 37.9179C22.8882 37.8531 22.8882 25.4431 22.8882 25.4549C22.887 25.0513 22.5597 24.7248 22.1558 24.7248C6.30188 24.7248 7.54127 24.7244 7.46689 24.7248C7.06673 24.7263 6.73943 25.0517 6.73828 25.4549C6.73828 25.506 6.73828 37.9519 6.73828 37.9179C6.73904 38.1804 6.88019 38.4215 7.10602 38.5512C7.21817 38.6156 7.34291 38.6484 7.4707 38.6484H22.1558V38.648ZM8.20312 27.0388L13.681 31.6862L8.20312 36.3337V27.0388ZM9.46617 26.1896H20.1603L14.8132 30.7261L9.46617 26.1896ZM14.8132 32.6468L20.1603 37.1832H9.46617L14.8132 32.6468ZM15.9454 31.6862L21.4233 27.0388V36.3337L15.9454 31.6862Z" fill="#AE8D92"/>
<path d="M44.1753 4.23927C43.7912 4.11224 43.3769 4.32053 43.2499 4.70428C43.1229 5.08842 43.3311 5.5027 43.7153 5.62973C46.5981 6.58417 48.5352 9.26628 48.5352 12.3035V35.9715C47.3354 34.5558 45.6104 33.7772 43.8122 33.7772C43.8015 33.7772 37.9112 33.7772 37.9215 33.7772C37.2044 33.7772 36.6211 33.1936 36.6211 32.4768V19.5179C36.6215 19.5114 36.6215 19.5045 36.6211 19.4977V15.7986C36.6215 15.7917 36.6215 15.7848 36.6211 15.7784V6.57387C36.6211 5.8567 37.2047 5.27344 37.9215 5.27344H41.2109C41.6157 5.27344 41.9434 4.94537 41.9434 4.54102C41.9434 4.13666 41.6157 3.80859 41.2109 3.80859H37.9215C36.3968 3.80859 35.1562 5.04913 35.1562 6.57387V10.7498H2.76527C1.24054 10.7498 0 11.9904 0 13.5151V43.3876C0 44.9127 1.24054 46.1529 2.76527 46.1529H10.6445C11.0489 46.1529 11.377 45.8252 11.377 45.4205C11.377 45.0161 11.0489 44.688 10.6445 44.688H2.76527C2.04811 44.688 1.46484 44.1048 1.46484 43.3876V13.5151C1.46484 12.7979 2.04811 12.2147 2.76527 12.2147H35.1562V13.921C21.5126 13.921 7.48138 13.921 7.4646 13.921C7.45811 13.921 7.45163 13.9214 7.44591 13.9214C7.44591 13.9214 7.44591 13.9214 7.44553 13.9214C7.0507 13.9347 6.73218 14.2616 6.73828 14.6652V20.631C6.7318 21.0487 7.07245 21.3799 7.47871 21.3753H35.1562V24.7246H27.8549C27.4498 24.7189 27.1118 25.0439 27.1118 25.457C27.1118 35.8379 27.1118 37.9005 27.1122 37.9204C27.1149 38.3232 27.4422 38.6478 27.8442 38.6478H42.5293C42.7479 38.6478 42.9504 38.5513 43.0878 38.3892C43.092 38.3781 43.2594 38.2145 43.2617 37.9204C43.2617 37.9189 43.2617 37.9169 43.2617 37.9154V35.2421H43.8122C46.4165 35.2421 48.5352 37.3608 48.5352 39.9651C48.5352 42.5694 46.4165 44.6884 43.8122 44.6884H13.3789C12.9745 44.6884 12.6465 45.0161 12.6465 45.4208C12.6465 45.8252 12.9745 46.1533 13.3789 46.1533H43.8122C47.224 46.1533 50 43.3773 50 39.9651V12.3035C50 8.63304 47.6593 5.39246 44.1753 4.23927V4.23927ZM37.9215 35.2421H38.2458L40.5338 37.183H29.8397L35.1627 32.6672C35.2608 34.1034 36.4609 35.2421 37.9215 35.2421ZM28.5767 27.039L34.0546 31.6864L28.5767 36.3338V27.039ZM8.20312 15.5216L20.6505 17.6479L8.20312 19.7746V15.5216ZM35.1562 18.6401L29.3495 17.6479L35.1562 16.6561V18.6401ZM25 16.9048L16.1072 15.3858H33.8928L25 16.9048ZM25 18.391L33.8928 19.9104H16.1072L25 18.391ZM35.1562 30.6995L29.8397 26.1894H35.1562V30.6995ZM41.7969 36.3335L40.5102 35.2421H41.7969V36.3335Z" fill="#AE8D92"/>
</g>
<defs>
<clipPath id="clip0">
<rect width="50" height="50" fill="white"/>
</clipPath>
</defs>
</svg>
