<svg width="50" height="50" viewBox="0 0 50 50" fill="none" xmlns="http://www.w3.org/2000/svg">
<g clip-path="url(#clip0)">
<path d="M5.75758 18.3151C5.90025 18.4578 6.08755 18.5295 6.27485 18.5295C6.46216 18.5295 6.64946 18.4582 6.79251 18.3151C7.07823 18.0294 7.07823 17.5659 6.79251 17.2802L5.01562 15.5033L6.79251 13.7268C7.07823 13.4407 7.07823 12.9776 6.79251 12.6918C6.50679 12.4061 6.0433 12.4061 5.75758 12.6918L3.46341 14.986C3.32608 15.1233 3.24902 15.3095 3.24902 15.5033C3.24902 15.6974 3.32608 15.8836 3.46341 16.0209L5.75758 18.3151Z" fill="#AE8D92"/>
<path d="M13.0195 15.5037L11.2426 17.2805C10.9568 17.5663 10.9568 18.0298 11.2429 18.3155C11.3856 18.4581 11.5729 18.5299 11.7602 18.5299C11.9475 18.5299 12.1348 18.4581 12.2775 18.3155L14.572 16.0209C14.8578 15.7352 14.8578 15.2717 14.572 14.9864L12.2775 12.6918C11.9918 12.4061 11.5287 12.4061 11.2429 12.6918C10.9568 12.9779 10.9568 13.441 11.2429 13.7268L13.0195 15.5037Z" fill="#AE8D92"/>
<path d="M7.92721 18.4793C8.01495 18.5136 8.10574 18.53 8.19462 18.53C8.48683 18.53 8.76264 18.3538 8.87593 18.0658L10.6784 13.4771C10.8264 13.1009 10.641 12.6764 10.2649 12.5283C9.88912 12.3807 9.46416 12.5657 9.31653 12.9419L7.5137 17.5306C7.36607 17.9067 7.55108 18.3317 7.92721 18.4793Z" fill="#AE8D92"/>
<path d="M4.39572 22.8231H9.32548C9.72945 22.8231 10.0571 22.4954 10.0571 22.091C10.0571 21.6871 9.72945 21.3594 9.32548 21.3594H4.39572C3.99136 21.3594 3.66406 21.6871 3.66406 22.091C3.66406 22.4954 3.99136 22.8231 4.39572 22.8231Z" fill="#AE8D92"/>
<path d="M20.6799 21.3594H12.0129C11.6089 21.3594 11.2812 21.6871 11.2812 22.091C11.2812 22.4954 11.6089 22.8231 12.0129 22.8231H20.6799C21.0843 22.8231 21.412 22.4954 21.412 22.091C21.412 21.6871 21.0843 21.3594 20.6799 21.3594Z" fill="#AE8D92"/>
<path d="M4.39572 25.909H6.49572C6.8997 25.909 7.22738 25.5813 7.22738 25.177C7.22738 24.773 6.8997 24.4453 6.49572 24.4453H4.39572C3.99136 24.4453 3.66406 24.773 3.66406 25.177C3.66406 25.5813 3.99136 25.909 4.39572 25.909Z" fill="#AE8D92"/>
<path d="M18.0022 24.4453C17.5978 24.4453 17.2705 24.773 17.2705 25.177C17.2705 25.5813 17.5978 25.909 18.0022 25.909H19.2809C19.6852 25.909 20.0129 25.5813 20.0129 25.177C20.0129 24.773 19.6852 24.4453 19.2809 24.4453H18.0022Z" fill="#AE8D92"/>
<path d="M16.0757 25.177C16.0757 24.773 15.748 24.4453 15.344 24.4453H9.06272C8.65836 24.4453 8.33105 24.773 8.33105 25.177C8.33105 25.5813 8.65836 25.909 9.06272 25.909H15.344C15.748 25.909 16.0757 25.5813 16.0757 25.177Z" fill="#AE8D92"/>
<path d="M20.8701 25.177C20.8701 25.5813 21.1978 25.909 21.6018 25.909H23.997C24.4014 25.909 24.7291 25.5813 24.7291 25.177C24.7291 24.773 24.4014 24.4453 23.997 24.4453H21.6018C21.1978 24.4453 20.8701 24.773 20.8701 25.177Z" fill="#AE8D92"/>
<path d="M16.8844 16.0907H19.4109C19.8152 16.0907 20.1429 15.763 20.1429 15.3586C20.1429 14.9546 19.8152 14.627 19.4109 14.627H16.8844C16.48 14.627 16.1523 14.9546 16.1523 15.3586C16.1523 15.763 16.48 16.0907 16.8844 16.0907Z" fill="#AE8D92"/>
<path d="M22.2408 16.0907H37.6565C38.0608 16.0907 38.3881 15.763 38.3881 15.3586C38.3881 14.9546 38.0608 14.627 37.6565 14.627H22.2408C21.8365 14.627 21.5088 14.9546 21.5088 15.3586C21.5088 15.763 21.8365 16.0907 22.2408 16.0907V16.0907Z" fill="#AE8D92"/>
<path d="M35.3142 17.8467H29.0696C28.6656 17.8467 28.3379 18.1744 28.3379 18.5787C28.3379 18.9827 28.6656 19.3104 29.0696 19.3104H35.3142C35.7182 19.3104 36.0459 18.9827 36.0459 18.5787C36.0459 18.1744 35.7182 17.8467 35.3142 17.8467Z" fill="#AE8D92"/>
<path d="M26.7278 17.8467H24.5813C24.1769 17.8467 23.8496 18.1744 23.8496 18.5787C23.8496 18.9827 24.1769 19.3104 24.5813 19.3104H26.7278C27.1322 19.3104 27.4595 18.9827 27.4595 18.5787C27.4595 18.1744 27.1322 17.8467 26.7278 17.8467Z" fill="#AE8D92"/>
<path d="M16.8844 19.3104H22.143C22.5469 19.3104 22.8746 18.9827 22.8746 18.5787C22.8746 18.1744 22.5469 17.8467 22.143 17.8467H16.8844C16.48 17.8467 16.1523 18.1744 16.1523 18.5787C16.1523 18.9827 16.48 19.3104 16.8844 19.3104Z" fill="#AE8D92"/>
<path d="M15.3538 27.5059H10.4244C10.0201 27.5059 9.69238 27.8335 9.69238 28.2375C9.69238 28.6415 10.0201 28.9692 10.4244 28.9692H15.3538C15.7578 28.9692 16.0855 28.6415 16.0855 28.2375C16.0855 27.8335 15.7578 27.5059 15.3538 27.5059Z" fill="#AE8D92"/>
<path d="M8.18297 27.5059H4.39572C3.99136 27.5059 3.66406 27.8335 3.66406 28.2375C3.66406 28.6415 3.99136 28.9692 4.39572 28.9692H8.18297C8.58733 28.9692 8.91463 28.6415 8.91463 28.2375C8.91463 27.8335 8.58733 27.5059 8.18297 27.5059Z" fill="#AE8D92"/>
<path d="M24.2894 27.5059H17.8498C17.4455 27.5059 17.1182 27.8335 17.1182 28.2375C17.1182 28.6415 17.4455 28.9692 17.8498 28.9692H24.2894C24.6934 28.9692 25.0211 28.6415 25.0211 28.2375C25.0211 27.8335 24.6934 27.5059 24.2894 27.5059V27.5059Z" fill="#AE8D92"/>
<path d="M32.9981 23.7461H29.4768C29.0728 23.7461 28.7451 24.0738 28.7451 24.4777C28.7451 24.8821 29.0728 25.2098 29.4768 25.2098H32.9981C33.4025 25.2098 33.7298 24.8821 33.7298 24.4777C33.7298 24.0738 33.4025 23.7461 32.9981 23.7461V23.7461Z" fill="#AE8D92"/>
<path d="M39.1076 25.2098H44.0786C44.483 25.2098 44.8106 24.8821 44.8106 24.4777C44.8106 24.0738 44.483 23.7461 44.0786 23.7461H39.1076C38.7033 23.7461 38.376 24.0738 38.376 24.4777C38.376 24.8821 38.7037 25.2098 39.1076 25.2098Z" fill="#AE8D92"/>
<path d="M36.6221 23.7461H35.483C35.0787 23.7461 34.751 24.0738 34.751 24.4777C34.751 24.8821 35.0787 25.2098 35.483 25.2098H36.6221C37.0265 25.2098 37.3538 24.8821 37.3538 24.4777C37.3538 24.0738 37.0265 23.7461 36.6221 23.7461Z" fill="#AE8D92"/>
<path d="M29.4768 33.185H32.9981C33.4025 33.185 33.7298 32.8577 33.7298 32.4533C33.7298 32.0494 33.4025 31.7217 32.9981 31.7217H29.4768C29.0728 31.7217 28.7451 32.0494 28.7451 32.4533C28.7451 32.8577 29.0728 33.185 29.4768 33.185V33.185Z" fill="#AE8D92"/>
<path d="M39.1076 33.185H44.0786C44.483 33.185 44.8106 32.8577 44.8106 32.4533C44.8106 32.0494 44.483 31.7217 44.0786 31.7217H39.1076C38.7033 31.7217 38.376 32.0494 38.376 32.4533C38.376 32.8577 38.7037 33.185 39.1076 33.185Z" fill="#AE8D92"/>
<path d="M35.4836 33.185H36.6227C37.0271 33.185 37.3547 32.8577 37.3547 32.4533C37.3547 32.0494 37.0271 31.7217 36.6227 31.7217H35.4836C35.0793 31.7217 34.752 32.0494 34.752 32.4533C34.752 32.8577 35.0793 33.185 35.4836 33.185Z" fill="#AE8D92"/>
<path d="M32.9981 39.6963H29.4768C29.0728 39.6963 28.7451 40.024 28.7451 40.4279C28.7451 40.8319 29.0728 41.1596 29.4768 41.1596H32.9981C33.4025 41.1596 33.7298 40.8319 33.7298 40.4279C33.7298 40.024 33.4025 39.6963 32.9981 39.6963V39.6963Z" fill="#AE8D92"/>
<path d="M44.0786 39.6963H39.1076C38.7033 39.6963 38.376 40.024 38.376 40.4279C38.376 40.8319 38.7033 41.1596 39.1076 41.1596H44.0786C44.483 41.1596 44.8106 40.8319 44.8106 40.4279C44.8106 40.024 44.483 39.6963 44.0786 39.6963V39.6963Z" fill="#AE8D92"/>
<path d="M36.6221 39.6963H35.483C35.0787 39.6963 34.751 40.024 34.751 40.4279C34.751 40.8319 35.0787 41.1596 35.483 41.1596H36.6221C37.0265 41.1596 37.3538 40.8319 37.3538 40.4279C37.3538 40.024 37.0265 39.6963 36.6221 39.6963Z" fill="#AE8D92"/>
<path d="M46.7798 0.0976562H3.22076C1.44501 0.0976562 0 1.54229 0 3.31842V38.7255C0 40.5012 1.44501 41.9458 3.22076 41.9458H5.9746C6.37858 41.9458 6.70626 41.6185 6.70626 41.2142C6.70626 40.8102 6.37858 40.4825 5.9746 40.4825H3.22076C2.25182 40.4825 1.46371 39.6944 1.46371 38.7255V35.9495H28.1236V37.2106H27.5434C26.7495 37.2106 26.1041 37.8561 26.1041 38.6499V40.4825H10.4237C10.0197 40.4825 9.69204 40.8102 9.69204 41.2142C9.69204 41.6185 10.0197 41.9458 10.4237 41.9458H17.4596V44.5704H15.2501C13.7761 44.5704 12.5771 45.7697 12.5771 47.2433V48.8241C12.5771 49.4967 13.1241 50.0437 13.7967 50.0437H36.1478C36.8204 50.0437 37.3674 49.4967 37.3674 48.8241V47.2433C37.3674 45.7697 36.1684 44.5704 34.6944 44.5704H32.4849V43.6453H46.0131C46.8065 43.6453 47.452 42.9998 47.452 42.206V41.8615C48.8783 41.5304 49.9445 40.2506 49.9445 38.7255L49.9998 3.31804C50.0002 1.54229 48.5556 0.0976562 46.7798 0.0976562V0.0976562ZM27.5678 34.2073V30.6997H45.9886V34.2073H27.5678ZM29.5869 29.236V27.6964H43.9691V29.236H29.5869ZM43.9691 35.6706V37.2106H29.5869V35.6706H43.9691ZM18.9229 41.9458H26.1041V42.2064C26.1041 42.9998 26.7495 43.6453 27.5434 43.6453H31.0216V44.5704H18.9229V41.9458ZM34.6948 46.0341C35.3616 46.0341 35.9041 46.5765 35.9041 47.2433V48.5804H14.0404V47.2433C14.0404 46.5765 14.5833 46.0341 15.2501 46.0341H34.6948ZM45.9886 42.1816H27.5678V38.6743H45.9886V42.1816ZM48.4812 38.7255C48.4812 39.4342 48.0585 40.045 47.4523 40.3223V38.6495C47.4523 37.8561 46.8065 37.2106 46.0131 37.2106H45.4328V35.9495H48.4812V38.7255ZM48.4812 34.4862H47.4283C47.4432 34.4034 47.4523 30.6753 47.4523 30.6753C47.4523 29.8814 46.8065 29.236 46.0131 29.236H45.4328V27.6964H46.0131C46.8065 27.6964 47.4523 27.0505 47.4523 26.2571V22.7006C47.4523 21.9071 46.8065 21.2613 46.0131 21.2613H41.8798C41.4755 21.2613 41.1482 21.589 41.1482 21.9934C41.1482 22.3973 41.4755 22.725 41.8798 22.725H45.9886V26.2326H27.5678V22.725H37.3266C37.7309 22.725 38.0582 22.3973 38.0582 21.9934C38.0582 21.589 37.7309 21.2613 37.3266 21.2613H27.5434C26.7495 21.2613 26.1041 21.9071 26.1041 22.7006V26.2571C26.1041 27.0505 26.7495 27.6964 27.5434 27.6964H28.1236V29.236H27.5434C26.7495 29.236 26.1041 29.8818 26.1041 30.6753C26.1041 30.6753 26.1132 34.4034 26.1281 34.4862H1.46371V10.0518H48.4812V34.4862ZM48.4812 8.58807H1.51749V3.31804C1.51749 2.34948 2.30561 1.56136 3.27455 1.56136H46.7241C47.6931 1.56136 48.4812 2.34948 48.4812 3.31842V8.58807Z" fill="#AE8D92"/>
<path d="M5.39632 2.90625C4.21224 2.90625 3.24902 3.86947 3.24902 5.05355C3.24902 6.23764 4.21224 7.20124 5.39632 7.20124C6.58041 7.20124 7.544 6.23764 7.544 5.05355C7.544 3.86947 6.58041 2.90625 5.39632 2.90625ZM5.39632 5.73753C5.01943 5.73753 4.71235 5.43083 4.71235 5.05355C4.71235 4.67666 5.01943 4.36957 5.39632 4.36957C5.7736 4.36957 6.0803 4.67666 6.0803 5.05355C6.0803 5.43083 5.7736 5.73753 5.39632 5.73753Z" fill="#AE8D92"/>
<path d="M10.8645 2.90625C9.6804 2.90625 8.7168 3.86947 8.7168 5.05355C8.7168 6.23764 9.6804 7.20124 10.8645 7.20124C12.0486 7.20124 13.0118 6.23764 13.0118 5.05355C13.0118 3.86947 12.0482 2.90625 10.8645 2.90625ZM10.8645 5.73753C10.4872 5.73753 10.1805 5.43083 10.1805 5.05355C10.1805 4.67666 10.4872 4.36957 10.8645 4.36957C11.2414 4.36957 11.5485 4.67666 11.5485 5.05355C11.5485 5.43083 11.2414 5.73753 10.8645 5.73753Z" fill="#AE8D92"/>
<path d="M16.3319 2.90625C15.1478 2.90625 14.1846 3.86947 14.1846 5.05355C14.1846 6.23764 15.1478 7.20124 16.3319 7.20124C17.516 7.20124 18.4796 6.23764 18.4796 5.05355C18.4796 3.86947 17.516 2.90625 16.3319 2.90625ZM16.3319 5.73753C15.955 5.73753 15.6479 5.43083 15.6479 5.05355C15.6479 4.67666 15.955 4.36957 16.3319 4.36957C16.7091 4.36957 17.0158 4.67666 17.0158 5.05355C17.0158 5.43083 16.7091 5.73753 16.3319 5.73753Z" fill="#AE8D92"/>
</g>
<defs>
<clipPath id="clip0">
<rect width="50" height="50" fill="white"/>
</clipPath>
</defs>
</svg>
