<svg width="50" height="50" viewBox="0 0 50 50" fill="none" xmlns="http://www.w3.org/2000/svg">
<path d="M25 3.22559H31.4516V4.83849H25V3.22559Z" fill="#AE8D92"/>
<path d="M33.0645 3.22559H34.6774V4.83849H33.0645V3.22559Z" fill="#AE8D92"/>
<path d="M21.7744 3.22559H23.3873V4.83849H21.7744V3.22559Z" fill="#AE8D92"/>
<path d="M25.8066 45.1611H30.6454V46.774H25.8066V45.1611Z" fill="#AE8D92"/>
<path d="M47.5806 24.1935C47.2967 24.1935 47.0274 24.2514 46.7742 24.342V4.03226C46.7742 1.809 44.9652 0 42.7419 0H13.7097C11.4864 0 9.67742 1.809 9.67742 4.03226V14.5161H16.9355C17.3797 14.5161 17.7419 14.8776 17.7419 15.3226V21.7742C17.7419 22.2192 17.3797 22.5806 16.9355 22.5806H9.67742V24.9346L6.73474 22.5806H2.41935C1.97518 22.5806 1.6129 22.2192 1.6129 21.7742V15.3226C1.6129 14.8776 1.97518 14.5161 2.41935 14.5161H8.06452V12.9032H2.41935C1.08564 12.9032 0 13.9889 0 15.3226V21.7742C0 23.1079 1.08564 24.1935 2.41935 24.1935H6.16849L11.2903 28.2912V24.1935H12.9032V40.3226H30.679C30.8283 40.7179 31.0338 41.092 31.2976 41.4208L31.7087 41.9355H11.2903V29.9564H9.67742V45.9677C9.67742 48.191 11.4864 50 13.7097 50H46.7742V45.3314C46.7742 44.8526 46.9144 44.3887 47.1806 43.9894L49.3227 40.7766C49.7653 40.1119 50 39.3385 50 38.5404V26.6129C50 25.2792 48.9144 24.1935 47.5806 24.1935V24.1935ZM13.7097 1.6129H42.7419C44.0757 1.6129 45.1613 2.69854 45.1613 4.03226V6.45161H11.2903V4.03226C11.2903 2.69854 12.376 1.6129 13.7097 1.6129ZM11.2903 8.06452H45.1613V22.7291C44.9081 22.6385 44.6388 22.5806 44.3548 22.5806C44.0709 22.5806 43.8016 22.6385 43.5484 22.7291V9.67742H12.9032V12.9032H11.2903V8.06452ZM14.5161 24.1935H16.9355C18.2692 24.1935 19.3548 23.1079 19.3548 21.7742V15.3226C19.3548 13.9889 18.2692 12.9032 16.9355 12.9032H14.5161V11.2903H41.9355V21.1162C41.6823 21.0256 41.4129 20.9677 41.129 20.9677C40.8451 20.9677 40.5758 21.0256 40.3226 21.1162V16.9355C40.3226 15.6018 39.2369 14.5161 37.9032 14.5161C36.5695 14.5161 35.4839 15.6018 35.4839 16.9355V26.2459C35.2799 26.1573 35.0684 26.0805 34.8491 26.0258L31.4508 25.1756V24.7893C32.9547 23.7403 33.871 22.0073 33.871 20.1613V18.7516C33.871 15.6187 31.4162 12.9969 28.3991 12.9056C26.8444 12.8686 25.4001 13.425 24.2951 14.4968C23.1894 15.5695 22.5806 17.0079 22.5806 18.5484V20.1613C22.5806 22.0065 23.497 23.7395 25 24.7885V25.1756L21.6025 26.0258C19.8041 26.4759 18.5484 28.084 18.5484 29.9379V33.871H29.4524L30.3179 38.7097H14.5161V24.1935ZM29.0323 30.8436V31.291C29.0323 31.4461 29.046 31.6001 29.0732 31.7517L29.1638 32.2581H20.1613V29.9379C20.1613 28.8259 20.9154 27.8604 21.9935 27.5903L26.6129 26.4361V23.8821L26.2105 23.6494C24.9661 22.9291 24.1935 21.5919 24.1935 20.1613V18.5484C24.1935 17.4486 24.6291 16.42 25.4186 15.6541C26.2081 14.8886 27.2378 14.4732 28.3506 14.5185C30.505 14.5831 32.2581 16.4822 32.2581 18.7516V20.1613C32.2581 21.5927 31.4847 22.9299 30.2396 23.6509L29.8363 23.884L29.8387 26.4361L34.4565 27.5903C34.8428 27.6879 35.1913 27.8781 35.4831 28.1404V34.3864C35.283 34.2202 35.1346 33.9911 35.0677 33.7241L34.1887 30.2096C33.8985 29.0413 32.8531 28.2258 31.6501 28.2258C30.2065 28.2258 29.0323 29.4 29.0323 30.8436V30.8436ZM13.7097 48.3871C12.376 48.3871 11.2903 47.3015 11.2903 45.9677V43.5484H32.9991L33.3402 43.9748C33.6831 44.4025 33.871 44.9396 33.871 45.4862V48.3871H13.7097ZM48.3871 38.5396C48.3871 39.0184 48.2469 39.4823 47.9807 39.8816L45.8386 43.0944C45.396 43.7598 45.1613 44.5332 45.1613 45.3314V48.3871H35.4839V45.4862C35.4839 44.5734 35.17 43.6791 34.5998 42.9668L32.5565 40.4128C32.3226 40.1218 32.158 39.7741 32.0856 39.4362L30.6613 31.4678C30.6499 31.4087 30.6452 31.35 30.6452 31.291V30.8436C30.6452 30.2896 31.096 29.8387 31.6501 29.8387C32.112 29.8387 32.5128 30.1518 32.6251 30.5991L33.504 34.1135C33.8233 35.3961 34.9692 36.2903 36.2903 36.2903H37.0968V16.9355C37.0968 16.4905 37.459 16.129 37.9032 16.129C38.3474 16.129 38.7097 16.4905 38.7097 16.9355V33.0645H40.3226V23.3871C40.3226 22.9421 40.6849 22.5806 41.129 22.5806C41.5732 22.5806 41.9355 22.9421 41.9355 23.3871V33.0645H43.5484V25C43.5484 24.555 43.9107 24.1935 44.3548 24.1935C44.799 24.1935 45.1613 24.555 45.1613 25V33.0645H46.7742V26.6129C46.7742 26.1679 47.1365 25.8065 47.5806 25.8065C48.0248 25.8065 48.3871 26.1679 48.3871 26.6129V38.5396Z" fill="#AE8D92"/>
<path d="M3.22559 16.1289H4.83849V17.7418H3.22559V16.1289Z" fill="#AE8D92"/>
<path d="M6.45117 16.1289H16.1286V17.7418H6.45117V16.1289Z" fill="#AE8D92"/>
<path d="M3.22559 19.355H16.1288V20.9679H3.22559V19.355Z" fill="#AE8D92"/>
<path d="M16.1289 35.4839H17.7418V37.0968H16.1289V35.4839Z" fill="#AE8D92"/>
<path d="M19.3545 35.4839H28.2255V37.0968H19.3545V35.4839Z" fill="#AE8D92"/>
</svg>
