<svg width="50" height="50" viewBox="0 0 50 50" fill="none" xmlns="http://www.w3.org/2000/svg">
<g clip-path="url(#clip0)">
<path d="M45.8332 5.83344H38.3335V4.16679C38.3305 1.86653 36.4666 0.00267029 34.1667 0H15.8333C13.5334 0.00267029 11.6695 1.86653 11.6665 4.16679V5.83344H4.16679C1.86653 5.83611 0.00267029 7.69997 0 9.99985V37.5C0.00267029 39.7999 1.86653 41.6637 4.16679 41.6668H16.6668V45.0001H14.1666C12.7861 45.0001 11.6665 46.1193 11.6665 47.4998V49.1665C11.6665 49.6269 12.0399 50 12.5 50H37.5C37.9601 50 38.3335 49.6269 38.3335 49.1665V47.4998C38.3335 46.1193 37.2139 45.0001 35.8334 45.0001H33.3332V41.6668H45.8332C48.1335 41.6637 49.9973 39.7999 50 37.5V9.99985C49.9973 7.69997 48.1335 5.83611 45.8332 5.83344V5.83344ZM13.3335 19.1666H15.0002C15.221 19.1666 15.4327 19.0788 15.5891 18.9224L16.4291 18.0832C16.7625 18.2465 17.1288 18.3319 17.4999 18.3334H20.8332C22.2141 18.3334 23.3334 17.2142 23.3334 15.8333V12.5C23.3334 11.1195 22.2141 9.99985 20.8332 9.99985H17.4999C16.1194 9.99985 15.0002 11.1195 15.0002 12.5V15.8333C15.0013 16.2045 15.0867 16.5707 15.25 16.9041L14.6549 17.4999H13.3335V8.33321H36.6665V29.9999H13.3335V19.1666ZM19.7559 13.5777C19.4305 13.2523 18.903 13.2523 18.5776 13.5777L16.6668 15.4884V12.5C16.6668 12.0399 17.0399 11.6665 17.4999 11.6665H20.8332C21.2936 11.6665 21.6667 12.0399 21.6667 12.5V15.8333C21.6667 16.2937 21.2936 16.6668 20.8332 16.6668H17.8452L19.7559 14.756C20.0813 14.4302 20.0813 13.903 19.7559 13.5777ZM13.3335 4.16679C13.3335 2.78587 14.4527 1.66664 15.8333 1.66664H34.1667C35.5473 1.66664 36.6665 2.78587 36.6665 4.16679V6.66656H13.3335V4.16679ZM4.16679 7.50008H11.6665V17.4999H4.16679C3.70636 17.4999 3.33328 17.873 3.33328 18.3334C3.33328 18.7935 3.70636 19.1666 4.16679 19.1666H11.6665V29.9999H8.33321C7.87315 29.9999 7.50008 30.373 7.50008 30.8334C7.50008 31.2935 7.87315 31.6666 8.33321 31.6666H41.6668C42.1268 31.6666 42.4999 31.2935 42.4999 30.8334C42.4999 30.373 42.1268 29.9999 41.6668 29.9999H38.3335V7.50008H45.8332C47.2141 7.50008 48.3334 8.61931 48.3334 9.99985V34.1667H1.66664V9.99985C1.66664 8.61931 2.78587 7.50008 4.16679 7.50008V7.50008ZM36.6665 47.4998V48.3334H13.3335V47.4998C13.3335 47.0398 13.7066 46.6667 14.1666 46.6667H35.8334C36.2934 46.6667 36.6665 47.0398 36.6665 47.4998ZM31.6666 45.0001H18.3334V41.6668H31.6666V45.0001ZM45.8332 40.0002H4.16679C2.78587 40.0002 1.66664 38.8805 1.66664 37.5V35.8334H48.3334V37.5C48.3334 38.8805 47.2141 40.0002 45.8332 40.0002V40.0002Z" fill="#AE8D92"/>
<path d="M27.4999 3.33398H22.4996C22.0396 3.33398 21.6665 3.70706 21.6665 4.1675C21.6665 4.62755 22.0396 5.00063 22.4996 5.00063H27.4999C27.96 5.00063 28.3331 4.62755 28.3331 4.1675C28.3331 3.70706 27.96 3.33398 27.4999 3.33398Z" fill="#AE8D92"/>
<path d="M34.7586 3.57521C34.4244 3.2666 33.9094 3.2666 33.5753 3.57521C33.5016 3.65608 33.4425 3.74916 33.4002 3.85025C33.3113 4.05166 33.3113 4.28169 33.4002 4.48349C33.4761 4.69291 33.6409 4.85771 33.8503 4.93324C33.9502 4.97596 34.0578 4.99885 34.1669 5C34.3874 4.99694 34.5987 4.91073 34.7586 4.75853C34.8337 4.6788 34.8932 4.58534 34.9337 4.48349C35.0225 4.28169 35.0225 4.05166 34.9337 3.85025C34.8913 3.74916 34.8322 3.65608 34.7586 3.57521V3.57521Z" fill="#AE8D92"/>
<path d="M32.2583 3.57521C31.9241 3.2666 31.4091 3.2666 31.075 3.57521C31.0013 3.65608 30.9422 3.74916 30.8999 3.85025C30.8114 4.05166 30.8114 4.28169 30.8999 4.48349C30.9758 4.69291 31.1406 4.85771 31.35 4.93324C31.4503 4.97596 31.5579 4.99885 31.6666 5C31.8875 4.99694 32.0984 4.91073 32.2583 4.75853C32.3338 4.6788 32.3929 4.58534 32.4334 4.48349C32.5223 4.28169 32.5223 4.05166 32.4334 3.85025C32.391 3.74916 32.3319 3.65608 32.2583 3.57521Z" fill="#AE8D92"/>
<path d="M25.8335 11.6666H26.6666C27.1271 11.6666 27.5002 11.2936 27.5002 10.8335C27.5002 10.3731 27.1271 10 26.6666 10H25.8335C25.3731 10 25 10.3731 25 10.8335C25 11.2936 25.3731 11.6666 25.8335 11.6666V11.6666Z" fill="#AE8D92"/>
<path d="M34.1669 10H30.0001C29.5401 10 29.167 10.3731 29.167 10.8335C29.167 11.2936 29.5401 11.6666 30.0001 11.6666H34.1669C34.627 11.6666 35 11.2936 35 10.8335C35 10.3731 34.627 10 34.1669 10V10Z" fill="#AE8D92"/>
<path d="M34.1666 16.666H33.3331C32.8731 16.666 32.5 17.0391 32.5 17.4991C32.5 17.9596 32.8731 18.3327 33.3331 18.3327H34.1666C34.6267 18.3327 34.9998 17.9596 34.9998 17.4991C34.9998 17.0391 34.6267 16.666 34.1666 16.666Z" fill="#AE8D92"/>
<path d="M25.8335 18.3327H29.9999C30.4604 18.3327 30.8334 17.9596 30.8334 17.4991C30.8334 17.0391 30.4604 16.666 29.9999 16.666H25.8335C25.3731 16.666 25 17.0391 25 17.4991C25 17.9596 25.3731 18.3327 25.8335 18.3327Z" fill="#AE8D92"/>
<path d="M34.1667 13.334H25.8335C25.3731 13.334 25 13.7071 25 14.1671C25 14.6275 25.3731 15.0006 25.8335 15.0006H34.1667C34.6268 15.0006 34.9998 14.6275 34.9998 14.1671C34.9998 13.7071 34.6268 13.334 34.1667 13.334V13.334Z" fill="#AE8D92"/>
<path d="M20.8331 20H17.4998C16.1192 20 15 21.1192 15 22.4998V25.8334C15 27.214 16.1192 28.3332 17.4998 28.3332H20.8331C22.214 28.3332 23.3332 27.214 23.3332 25.8334V22.4998C23.3332 21.1192 22.214 20 20.8331 20V20ZM21.6666 25.8334C21.6666 26.2935 21.2935 26.6666 20.8331 26.6666H17.4998C17.0397 26.6666 16.6666 26.2935 16.6666 25.8334V22.4998C16.6666 22.0397 17.0397 21.6666 17.4998 21.6666H20.8331C21.2935 21.6666 21.6666 22.0397 21.6666 22.4998V25.8334Z" fill="#AE8D92"/>
<path d="M25.8335 21.6666H26.6666C27.1271 21.6666 27.5002 21.2936 27.5002 20.8331C27.5002 20.3731 27.1271 20 26.6666 20H25.8335C25.3731 20 25 20.3731 25 20.8331C25 21.2936 25.3731 21.6666 25.8335 21.6666V21.6666Z" fill="#AE8D92"/>
<path d="M34.1669 20H30.0001C29.5401 20 29.167 20.3731 29.167 20.8331C29.167 21.2936 29.5401 21.6666 30.0001 21.6666H34.1669C34.627 21.6666 35 21.2936 35 20.8331C35 20.3731 34.627 20 34.1669 20V20Z" fill="#AE8D92"/>
<path d="M34.1666 26.666H33.3331C32.8731 26.666 32.5 27.0391 32.5 27.4995C32.5 27.9596 32.8731 28.3327 33.3331 28.3327H34.1666C34.6267 28.3327 34.9998 27.9596 34.9998 27.4995C34.9998 27.0391 34.6267 26.666 34.1666 26.666V26.666Z" fill="#AE8D92"/>
<path d="M29.9999 26.666H25.8335C25.3731 26.666 25 27.0391 25 27.4995C25 27.9596 25.3731 28.3327 25.8335 28.3327H29.9999C30.4604 28.3327 30.8334 27.9596 30.8334 27.4995C30.8334 27.0391 30.4604 26.666 29.9999 26.666V26.666Z" fill="#AE8D92"/>
<path d="M34.1667 23.334H25.8335C25.3731 23.334 25 23.7071 25 24.1671C25 24.6275 25.3731 25.0006 25.8335 25.0006H34.1667C34.6268 25.0006 34.9998 24.6275 34.9998 24.1671C34.9998 23.7071 34.6268 23.334 34.1667 23.334V23.334Z" fill="#AE8D92"/>
<path d="M4.16701 12.5006H5.00014C5.46057 12.5006 5.83365 12.1275 5.83365 11.6671C5.83365 11.2071 5.46057 10.834 5.00014 10.834H4.16701C3.70657 10.834 3.3335 11.2071 3.3335 11.6671C3.3335 12.1275 3.70657 12.5006 4.16701 12.5006Z" fill="#AE8D92"/>
<path d="M7.50002 12.5006H9.16666C9.62671 12.5006 9.99979 12.1275 9.99979 11.6671C9.99979 11.2071 9.62671 10.834 9.16666 10.834H7.50002C7.03958 10.834 6.6665 11.2071 6.6665 11.6671C6.6665 12.1275 7.03958 12.5006 7.50002 12.5006Z" fill="#AE8D92"/>
<path d="M4.16701 15.0006H9.16693C9.62698 15.0006 10.0001 14.6275 10.0001 14.1671C10.0001 13.7071 9.62698 13.334 9.16693 13.334H4.16701C3.70657 13.334 3.3335 13.7071 3.3335 14.1671C3.3335 14.6275 3.70657 15.0006 4.16701 15.0006Z" fill="#AE8D92"/>
</g>
<defs>
<clipPath id="clip0">
<rect width="50" height="50" fill="white"/>
</clipPath>
</defs>
</svg>
