<svg width="50" height="50" viewBox="0 0 50 50" fill="none" xmlns="http://www.w3.org/2000/svg">
<path d="M41.4783 17.7146L38.7035 15.0636C37.8073 14.2076 36.3817 14.2399 35.5253 15.1364L33.8545 16.8854C33.8543 16.8856 33.8543 16.8857 33.8542 16.8859L25.7277 25.3922L29.5365 15.7204L30.4228 13.4697C30.877 12.3164 30.3082 11.0086 29.155 10.5546L25.5843 9.14839C24.4312 8.69423 23.1233 9.26289 22.6692 10.4161L21.7828 12.6667L15.8262 27.7926V11.8864V9.26973C15.8262 8.13939 14.8622 7.21973 13.6773 7.21973H9.97484C8.79 7.21973 7.82617 8.13939 7.82617 9.26973V11.8864V35.8864V42.4217C7.82617 43.5971 8.79 44.5531 9.97484 44.5531H13.601L15.4755 45.2912C15.7452 45.3974 16.023 45.4476 16.2965 45.4476C16.5495 45.4476 16.7982 45.4031 17.0333 45.3216C17.1047 45.3284 17.176 45.3324 17.247 45.3324C17.8538 45.3324 18.4372 45.0871 18.8675 44.6366L39.8802 22.6416L41.551 20.8927C41.9658 20.4586 42.1867 19.8889 42.1728 19.2886C42.159 18.6882 41.9125 18.1292 41.4783 17.7146V17.7146ZM29.753 23.1087L31.595 21.1806L35.6923 25.0951L33.8503 27.0232L29.753 23.1087ZM32.9293 27.9874L31.0873 29.9156L26.9898 26.0012L28.8318 24.0731L32.9293 27.9874ZM26.0687 26.9652L30.1662 30.8796L28.3242 32.8077L24.3157 28.9782L24.3152 28.9787L24.4345 28.6757L26.0687 26.9652ZM9.15951 12.5531H14.4928V35.2197H9.15951V12.5531ZM25.1203 23.2956L24.1432 25.7767L18.8707 23.7004L19.8478 21.2192L25.1203 23.2956ZM20.3363 19.9786L21.3133 17.4974L26.586 19.5737L25.6088 22.0549L20.3363 19.9786ZM23.6547 27.0174L22.6775 29.4986L17.405 27.4222L18.3822 24.9411L23.6547 27.0174ZM19.7463 36.9422L15.8262 35.3984V32.5326L20.7233 34.4611L19.7463 36.9422ZM22.189 30.7392L21.2118 33.2204L15.9393 31.1441L16.9165 28.6627L22.189 30.7392ZM15.8262 36.8314L19.2578 38.1827L18.2807 40.6641L15.8262 39.6976V36.8314ZM19.039 42.3772L19.1138 42.4487L18.9385 42.6322L19.039 42.3772ZM19.5667 41.0372L20.622 38.3576L21.877 39.5566L20.035 41.4847L19.5667 41.0372ZM21.1495 37.0176L22.2048 34.3377L24.64 36.6641L22.798 38.5922L21.1495 37.0176ZM22.7325 32.9977L23.7878 30.3181L27.403 33.7719L25.561 35.7001L22.7325 32.9977ZM27.0745 18.3331L21.802 16.2567L22.7792 13.7756L28.0517 15.8519L27.0745 18.3331ZM24.3958 10.4011C24.6198 10.3041 24.8683 10.2994 25.0957 10.3889L28.6663 11.7951C29.1355 11.9797 29.367 12.5119 29.1822 12.9811L28.5402 14.6114L23.2675 12.5351L23.9095 10.9047C23.9992 10.6774 24.1718 10.4986 24.3958 10.4011V10.4011ZM9.15951 9.26973C9.15951 8.87456 9.52534 8.55306 9.97484 8.55306H13.6773C14.127 8.55306 14.4928 8.87456 14.4928 9.26973V11.2197H9.15951V9.26973ZM9.15951 42.4217V36.5531H14.4928V42.4217C14.4928 42.8619 14.127 43.2197 13.6773 43.2197H9.97484C9.52534 43.2197 9.15951 42.8619 9.15951 42.4217V42.4217ZM15.3172 43.7959C15.634 43.4246 15.826 42.9452 15.826 42.4217V41.1304L17.792 41.9046L17.15 43.5349C17.0717 43.7339 16.9303 43.8896 16.7582 43.9894C16.6867 44.0079 16.6182 44.0357 16.557 44.0759C16.3683 44.1317 16.1608 44.1282 15.964 44.0509L15.3172 43.7959ZM36.6135 24.1309L32.5162 20.2164L34.3582 18.2882L38.4555 22.2026L36.6135 24.1309ZM40.587 19.9717L39.3767 21.2387L35.2793 17.3242L36.4895 16.0574C36.838 15.6927 37.418 15.6794 37.7825 16.0277L40.5573 18.6787C40.734 18.8474 40.8343 19.0749 40.8398 19.3191C40.8455 19.5634 40.7557 19.7952 40.587 19.9717V19.9717Z" fill="#AE8D92"/>
<path d="M12.8633 42.3857C13.4156 42.3857 13.8633 41.938 13.8633 41.3857C13.8633 40.8335 13.4156 40.3857 12.8633 40.3857C12.311 40.3857 11.8633 40.8335 11.8633 41.3857C11.8633 41.938 12.311 42.3857 12.8633 42.3857Z" fill="#AE8D92"/>
<path d="M33.8263 38.5531C34.1945 38.5531 34.493 38.2546 34.493 37.8864V35.8864C34.493 35.5182 34.1945 35.2197 33.8263 35.2197C33.4582 35.2197 33.1597 35.5182 33.1597 35.8864V37.8864C33.1597 38.2546 33.4582 38.5531 33.8263 38.5531Z" fill="#AE8D92"/>
<path d="M33.8263 39.8857C33.4582 39.8857 33.1597 40.1842 33.1597 40.5524V42.5524C33.1597 42.9206 33.4582 43.2191 33.8263 43.2191C34.1945 43.2191 34.493 42.9206 34.493 42.5524V40.5524C34.493 40.1842 34.1945 39.8857 33.8263 39.8857V39.8857Z" fill="#AE8D92"/>
<path d="M32.4928 38.5527H30.4928C30.1247 38.5527 29.8262 38.8512 29.8262 39.2194C29.8262 39.5876 30.1247 39.8861 30.4928 39.8861H32.4928C32.861 39.8861 33.1595 39.5876 33.1595 39.2194C33.1595 38.8512 32.861 38.5527 32.4928 38.5527Z" fill="#AE8D92"/>
<path d="M37.1593 38.5527H35.1593C34.7912 38.5527 34.4927 38.8512 34.4927 39.2194C34.4927 39.5876 34.7912 39.8861 35.1593 39.8861H37.1593C37.5275 39.8861 37.826 39.5876 37.826 39.2194C37.826 38.8512 37.5275 38.5527 37.1593 38.5527Z" fill="#AE8D92"/>
<path d="M36.826 10.5524C38.1127 10.5524 39.1593 9.50574 39.1593 8.21908C39.1593 6.93241 38.1127 5.88574 36.826 5.88574C35.5393 5.88574 34.4927 6.93241 34.4927 8.21908C34.4927 9.50574 35.5393 10.5524 36.826 10.5524ZM36.826 7.21908C37.3775 7.21908 37.826 7.66758 37.826 8.21908C37.826 8.77058 37.3775 9.21908 36.826 9.21908C36.2745 9.21908 35.826 8.77058 35.826 8.21908C35.826 7.66758 36.2745 7.21908 36.826 7.21908Z" fill="#AE8D92"/>
<path d="M40.4928 31.2201C40.861 31.2201 41.1595 30.9216 41.1595 30.5534C41.1595 30.1852 40.861 29.8867 40.4928 29.8867C40.1247 29.8867 39.8262 30.1852 39.8262 30.5534C39.8262 30.9216 40.1247 31.2201 40.4928 31.2201Z" fill="#AE8D92"/>
<path d="M23.8263 5.88607C24.1945 5.88607 24.493 5.58759 24.493 5.2194C24.493 4.85121 24.1945 4.55273 23.8263 4.55273C23.4581 4.55273 23.1597 4.85121 23.1597 5.2194C23.1597 5.58759 23.4581 5.88607 23.8263 5.88607Z" fill="#AE8D92"/>
</svg>
