<svg width="50" height="50" viewBox="0 0 50 50" fill="none" xmlns="http://www.w3.org/2000/svg">
<path d="M2.34375 35.9375C1.91154 35.9375 1.5625 35.5885 1.5625 35.1562V5.46875C1.5625 5.03654 1.91154 4.6875 2.34375 4.6875C2.77596 4.6875 3.125 5.03654 3.125 5.46875V35.1562C3.125 35.5885 2.77596 35.9375 2.34375 35.9375Z" fill="#AE8D92"/>
<path d="M2.34375 6.25C1.91154 6.25 1.5625 5.90096 1.5625 5.46875C1.5625 4.17671 2.61421 3.125 3.90625 3.125C4.33846 3.125 4.6875 3.47404 4.6875 3.90625C4.6875 4.33846 4.33846 4.6875 3.90625 4.6875C3.47519 4.6875 3.125 5.03769 3.125 5.46875C3.125 5.90096 2.77596 6.25 2.34375 6.25Z" fill="#AE8D92"/>
<path d="M47.6562 35.9375C47.224 35.9375 46.875 35.5885 46.875 35.1562V5.46875C46.875 5.03654 47.224 4.6875 47.6562 4.6875C48.0885 4.6875 48.4375 5.03654 48.4375 5.46875V35.1562C48.4375 35.5885 48.0885 35.9375 47.6562 35.9375Z" fill="#AE8D92"/>
<path d="M47.6562 6.25C47.224 6.25 46.875 5.90096 46.875 5.46875C46.875 5.03769 46.5248 4.6875 46.0938 4.6875C45.6615 4.6875 45.3125 4.33846 45.3125 3.90625C45.3125 3.47404 45.6615 3.125 46.0938 3.125C47.3858 3.125 48.4375 4.17671 48.4375 5.46875C48.4375 5.90096 48.0885 6.25 47.6562 6.25Z" fill="#AE8D92"/>
<path d="M46.0938 4.6875H3.90625C3.47404 4.6875 3.125 4.33846 3.125 3.90625C3.125 3.47404 3.47404 3.125 3.90625 3.125H46.0938C46.526 3.125 46.875 3.47404 46.875 3.90625C46.875 4.33846 46.526 4.6875 46.0938 4.6875Z" fill="#AE8D92"/>
<path d="M49.2188 38.2812H0.78125C0.349045 38.2812 0 37.9322 0 37.5V35.1562C0 34.724 0.349045 34.375 0.78125 34.375H49.2188C49.651 34.375 50 34.724 50 35.1562V37.5C50 37.9322 49.651 38.2812 49.2188 38.2812ZM1.5625 36.7188H48.4375V35.9375H1.5625V36.7188Z" fill="#AE8D92"/>
<path d="M16.4063 49.2188C16.3197 49.2188 16.2297 49.2039 16.1439 49.1726C15.7368 49.0273 15.5251 48.5806 15.6712 48.1751L19.5775 37.2376C19.7221 36.8305 20.1703 36.6165 20.575 36.7649C20.9821 36.9103 21.1938 37.357 21.0477 37.7625L17.1414 48.7C17.0281 49.0196 16.7275 49.2188 16.4063 49.2188Z" fill="#AE8D92"/>
<path d="M12.5001 49.2188C12.4135 49.2188 12.3235 49.2039 12.2376 49.1726C11.8306 49.0273 11.6189 48.5806 11.765 48.1751L15.6712 37.2376C15.8158 36.8305 16.264 36.6165 16.6688 36.7649C17.0758 36.9103 17.2875 37.357 17.1414 37.7625L13.2352 48.7C13.1219 49.0196 12.8213 49.2188 12.5001 49.2188Z" fill="#AE8D92"/>
<path d="M16.4062 49.2188H12.5C12.0678 49.2188 11.7188 48.8697 11.7188 48.4375C11.7188 48.0053 12.0678 47.6562 12.5 47.6562H16.4062C16.8385 47.6562 17.1875 48.0053 17.1875 48.4375C17.1875 48.8697 16.8385 49.2188 16.4062 49.2188Z" fill="#AE8D92"/>
<path d="M33.5937 49.2185C33.2725 49.2185 32.9719 49.0194 32.8586 48.6997L28.9524 37.7622C28.8063 37.3559 29.0188 36.9092 29.425 36.7646C29.829 36.6178 30.278 36.8318 30.4226 37.2373L34.3288 48.1748C34.4749 48.5811 34.2624 49.0278 33.8562 49.1723C33.7704 49.2036 33.6803 49.2185 33.5937 49.2185V49.2185Z" fill="#AE8D92"/>
<path d="M37.5 49.2185C37.1788 49.2185 36.8782 49.0194 36.7649 48.6997L32.8586 37.7622C32.7125 37.3559 32.925 36.9092 33.3313 36.7646C33.7353 36.6178 34.1843 36.8318 34.3288 37.2373L38.2351 48.1748C38.3812 48.5811 38.1687 49.0278 37.7624 49.1723C37.6766 49.2036 37.5866 49.2185 37.5 49.2185V49.2185Z" fill="#AE8D92"/>
<path d="M37.5 49.2188H33.5938C33.1615 49.2188 32.8125 48.8697 32.8125 48.4375C32.8125 48.0053 33.1615 47.6562 33.5938 47.6562H37.5C37.9322 47.6562 38.2812 48.0053 38.2812 48.4375C38.2812 48.8697 37.9322 49.2188 37.5 49.2188Z" fill="#AE8D92"/>
<path d="M31.3617 42.9688H18.6382C18.2064 42.9688 17.8569 42.6197 17.8569 42.1875C17.8569 41.7553 18.2064 41.4062 18.6382 41.4062H31.361C31.7928 41.4062 32.1422 41.7553 32.1422 42.1875C32.1422 42.6197 31.7928 42.9688 31.3617 42.9688Z" fill="#AE8D92"/>
<path d="M32.1984 45.3125H17.8018C17.3696 45.3125 17.0205 44.9635 17.0205 44.5312C17.0205 44.099 17.3696 43.75 17.8018 43.75H32.1984C32.6306 43.75 32.9797 44.099 32.9797 44.5312C32.9797 44.9635 32.6306 45.3125 32.1984 45.3125Z" fill="#AE8D92"/>
<path d="M28.125 4.6875H21.875C21.4428 4.6875 21.0938 4.33846 21.0938 3.90625V1.5625C21.0938 1.13029 21.4428 0.78125 21.875 0.78125H28.125C28.5572 0.78125 28.9062 1.13029 28.9062 1.5625V3.90625C28.9062 4.33846 28.5572 4.6875 28.125 4.6875ZM22.6562 3.125H27.3438V2.34375H22.6562V3.125Z" fill="#AE8D92"/>
<path d="M10.1562 30.4688C8.43277 30.4688 7.03125 29.0672 7.03125 27.3438C7.03125 25.6203 8.43277 24.2188 10.1562 24.2188C11.8797 24.2188 13.2812 25.6203 13.2812 27.3438C13.2812 29.0672 11.8797 30.4688 10.1562 30.4688ZM10.1562 25.7812C9.29451 25.7812 8.59375 26.482 8.59375 27.3438C8.59375 28.2055 9.29451 28.9062 10.1562 28.9062C11.018 28.9062 11.7188 28.2055 11.7188 27.3438C11.7188 26.482 11.018 25.7812 10.1562 25.7812Z" fill="#AE8D92"/>
<path d="M37.5 19.5312C35.7765 19.5312 34.375 18.1297 34.375 16.4062C34.375 14.6828 35.7765 13.2812 37.5 13.2812C39.2235 13.2812 40.625 14.6828 40.625 16.4062C40.625 18.1297 39.2235 19.5312 37.5 19.5312ZM37.5 14.8438C36.6383 14.8438 35.9375 15.5445 35.9375 16.4062C35.9375 17.268 36.6383 17.9688 37.5 17.9688C38.3617 17.9688 39.0625 17.268 39.0625 16.4062C39.0625 15.5445 38.3617 14.8438 37.5 14.8438Z" fill="#AE8D92"/>
<path d="M37.5 17.1875C37.0678 17.1875 36.7188 16.8385 36.7188 16.4062V9.375C36.7188 8.94279 37.0678 8.59375 37.5 8.59375C37.9322 8.59375 38.2812 8.94279 38.2812 9.375V16.4062C38.2812 16.8385 37.9322 17.1875 37.5 17.1875Z" fill="#AE8D92"/>
<path d="M42.1875 10.1562H37.5C37.0678 10.1562 36.7188 9.80721 36.7188 9.375C36.7188 8.94279 37.0678 8.59375 37.5 8.59375H42.1875C42.6197 8.59375 42.9688 8.94279 42.9688 9.375C42.9688 9.80721 42.6197 10.1562 42.1875 10.1562Z" fill="#AE8D92"/>
<path d="M42.1875 13.2812H37.5C37.0678 13.2812 36.7188 12.9322 36.7188 12.5C36.7188 12.0678 37.0678 11.7188 37.5 11.7188H42.1875C42.6197 11.7188 42.9688 12.0678 42.9688 12.5C42.9688 12.9322 42.6197 13.2812 42.1875 13.2812Z" fill="#AE8D92"/>
<path d="M42.1884 13.2813C41.9016 13.2813 41.6258 13.1233 41.4884 12.8491L40.7072 11.2866C40.597 11.0672 40.597 10.8078 40.7072 10.5873L41.4884 9.02483C41.6815 8.63916 42.1511 8.48428 42.5367 8.67578C42.9228 8.86881 43.0792 9.33839 42.8861 9.72406L42.28 10.9375L42.8861 12.151C43.0792 12.5366 42.9228 13.0062 42.5367 13.1992C42.4253 13.2546 42.3055 13.2813 42.1884 13.2813Z" fill="#AE8D92"/>
<path d="M14.0623 24.2188C13.878 24.2188 13.6919 24.1539 13.5435 24.0211C13.2207 23.735 13.1921 23.2407 13.4786 22.9187C13.7434 22.6204 20.099 15.625 32.031 15.625C32.4632 15.625 32.8123 15.974 32.8123 16.4062C32.8123 16.8385 32.4632 17.1875 32.031 17.1875C20.7929 17.1875 14.7062 23.8892 14.6459 23.9563C14.4918 24.1306 14.277 24.2188 14.0623 24.2188Z" fill="#AE8D92"/>
<path d="M30.4685 18.7498C30.2687 18.7498 30.0684 18.6731 29.9162 18.5209C29.6106 18.2154 29.6106 17.7217 29.9162 17.4162L31.4787 15.8537C31.7842 15.5481 32.2779 15.5481 32.5834 15.8537C32.889 16.1592 32.889 16.6529 32.5834 16.9584L31.0209 18.5209C30.8687 18.6731 30.6684 18.7498 30.4685 18.7498Z" fill="#AE8D92"/>
<path d="M32.031 17.1873C31.8312 17.1873 31.6309 17.1106 31.4787 16.9584L29.9162 15.3959C29.6106 15.0904 29.6106 14.5967 29.9162 14.2912C30.2217 13.9856 30.7154 13.9856 31.0209 14.2912L32.5834 15.8537C32.889 16.1592 32.889 16.6529 32.5834 16.9584C32.4312 17.1106 32.2309 17.1873 32.031 17.1873Z" fill="#AE8D92"/>
<path d="M10.1796 28.126C9.74777 28.126 9.39453 27.7769 9.39453 27.3447C9.39453 26.9129 9.73976 26.5635 10.1712 26.5635H10.1796C10.611 26.5635 10.9608 26.9129 10.9608 27.3447C10.9608 27.7769 10.611 28.126 10.1796 28.126Z" fill="#AE8D92"/>
<path d="M11.7185 17.1873C11.5187 17.1873 11.3184 17.1106 11.1662 16.9584L8.04118 13.8334C7.73562 13.5279 7.73562 13.0342 8.04118 12.7287C8.34674 12.4231 8.84036 12.4231 9.14592 12.7287L12.2709 15.8537C12.5765 16.1592 12.5765 16.6529 12.2709 16.9584C12.1187 17.1106 11.9184 17.1873 11.7185 17.1873Z" fill="#AE8D92"/>
<path d="M8.59355 17.1873C8.39366 17.1873 8.19339 17.1106 8.04118 16.9584C7.73562 16.6529 7.73562 16.1592 8.04118 15.8537L11.1662 12.7287C11.4717 12.4231 11.9654 12.4231 12.2709 12.7287C12.5765 13.0342 12.5765 13.5279 12.2709 13.8334L9.14592 16.9584C8.99371 17.1106 8.79344 17.1873 8.59355 17.1873Z" fill="#AE8D92"/>
<path d="M23.4373 11.7185C23.2374 11.7185 23.0371 11.6419 22.8849 11.4897L19.7599 8.36467C19.4544 8.05911 19.4544 7.56549 19.7599 7.25993C20.0655 6.95437 20.5591 6.95437 20.8647 7.25993L23.9897 10.3849C24.2952 10.6905 24.2952 11.1841 23.9897 11.4897C23.8375 11.6419 23.6372 11.7185 23.4373 11.7185Z" fill="#AE8D92"/>
<path d="M20.3123 11.7185C20.1124 11.7185 19.9121 11.6419 19.7599 11.4897C19.4544 11.1841 19.4544 10.6905 19.7599 10.3849L22.8849 7.25993C23.1905 6.95437 23.6841 6.95437 23.9897 7.25993C24.2952 7.56549 24.2952 8.05911 23.9897 8.36467L20.8647 11.4897C20.7125 11.6419 20.5122 11.7185 20.3123 11.7185Z" fill="#AE8D92"/>
<path d="M24.9998 32.031C24.7999 32.031 24.5996 31.9544 24.4474 31.8022L21.3224 28.6772C21.0169 28.3716 21.0169 27.878 21.3224 27.5724C21.628 27.2669 22.1216 27.2669 22.4272 27.5724L25.5522 30.6974C25.8577 31.003 25.8577 31.4966 25.5522 31.8022C25.4 31.9544 25.1997 32.031 24.9998 32.031Z" fill="#AE8D92"/>
<path d="M21.8748 32.031C21.6749 32.031 21.4746 31.9544 21.3224 31.8022C21.0169 31.4966 21.0169 31.003 21.3224 30.6974L24.4474 27.5724C24.753 27.2669 25.2466 27.2669 25.5522 27.5724C25.8577 27.878 25.8577 28.3716 25.5522 28.6772L22.4272 31.8022C22.275 31.9544 22.0747 32.031 21.8748 32.031Z" fill="#AE8D92"/>
<path d="M36.7185 28.1248C36.5187 28.1248 36.3184 28.0481 36.1662 27.8959L33.0412 24.7709C32.7356 24.4654 32.7356 23.9717 33.0412 23.6662C33.3467 23.3606 33.8404 23.3606 34.1459 23.6662L37.2709 26.7912C37.5765 27.0967 37.5765 27.5904 37.2709 27.8959C37.1187 28.0481 36.9184 28.1248 36.7185 28.1248Z" fill="#AE8D92"/>
<path d="M33.5935 28.1248C33.3937 28.1248 33.1934 28.0481 33.0412 27.8959C32.7356 27.5904 32.7356 27.0967 33.0412 26.7912L36.1662 23.6662C36.4717 23.3606 36.9654 23.3606 37.2709 23.6662C37.5765 23.9717 37.5765 24.4654 37.2709 24.7709L34.1459 27.8959C33.9937 28.0481 33.7934 28.1248 33.5935 28.1248Z" fill="#AE8D92"/>
</svg>
