<svg width="64" height="64" viewBox="0 0 64 64" fill="none" xmlns="http://www.w3.org/2000/svg">
<path d="M57.305 50.723C58.336 49.806 59 48.485 59 47C59 44.243 56.757 42 54 42C51.243 42 49 44.243 49 47C49 48.485 49.664 49.806 50.695 50.723C47.93 51.984 46 54.768 46 58V61C46 61.553 46.448 62 47 62H61C61.552 62 62 61.553 62 61V58C62 54.768 60.07 51.984 57.305 50.723ZM51 47C51 45.346 52.346 44 54 44C55.654 44 57 45.346 57 47C57 48.654 55.654 50 54 50C52.346 50 51 48.654 51 47ZM60 60H48V58C48 54.691 50.691 52 54 52C57.309 52 60 54.691 60 58V60Z" fill="#AE8D92"/>
<path d="M3 62H17C17.552 62 18 61.553 18 61V58C18 54.768 16.07 51.984 13.305 50.723C14.336 49.806 15 48.485 15 47C15 44.243 12.757 42 10 42C7.243 42 5 44.243 5 47C5 48.485 5.664 49.806 6.695 50.723C3.93 51.984 2 54.768 2 58V61C2 61.553 2.448 62 3 62ZM7 47C7 45.346 8.346 44 10 44C11.654 44 13 45.346 13 47C13 48.654 11.654 50 10 50C8.346 50 7 48.654 7 47ZM4 58C4 54.691 6.691 52 10 52C13.309 52 16 54.691 16 58V60H4V58Z" fill="#AE8D92"/>
<path d="M24 58V61C24 61.553 24.448 62 25 62H39C39.552 62 40 61.553 40 61V58C40 54.768 38.07 51.984 35.305 50.723C36.336 49.806 37 48.485 37 47C37 44.243 34.757 42 32 42C29.243 42 27 44.243 27 47C27 48.485 27.664 49.806 28.695 50.723C25.93 51.984 24 54.768 24 58ZM29 47C29 45.346 30.346 44 32 44C33.654 44 35 45.346 35 47C35 48.654 33.654 50 32 50C30.346 50 29 48.654 29 47ZM32 52C35.309 52 38 54.691 38 58V60H26V58C26 54.691 28.691 52 32 52Z" fill="#AE8D92"/>
<path d="M32 8C27.038 8 23 12.037 23 17C23 21.963 27.038 26 32 26C36.962 26 41 21.963 41 17C41 12.037 36.962 8 32 8ZM32 24C28.14 24 25 20.859 25 17C25 13.141 28.14 10 32 10C35.86 10 39 13.141 39 17C39 20.859 35.86 24 32 24Z" fill="#AE8D92"/>
<path d="M46 21C46.552 21 47 20.553 47 20V14C47 13.447 46.552 13 46 13L44.349 12.973C44.141 12.336 43.883 11.711 43.565 11.092L44.729 9.929C44.917 9.741 45.022 9.488 45.022 9.222C45.022 8.956 44.917 8.702 44.729 8.515L40.486 4.273C40.095 3.882 39.463 3.882 39.072 4.273L37.886 5.421C37.29 5.117 36.664 4.858 36 4.646V3C36 2.447 35.552 2 35 2H29C28.448 2 28 2.447 28 3L27.974 4.651C27.336 4.858 26.711 5.117 26.092 5.435L24.929 4.272C24.538 3.881 23.906 3.881 23.515 4.272L19.272 8.514C19.084 8.702 18.979 8.955 18.979 9.221C18.979 9.487 19.084 9.741 19.272 9.928L20.42 11.115C20.117 11.711 19.859 12.336 19.646 13H18C17.448 13 17 13.447 17 14V20C17 20.553 17.448 21 18 21L19.651 21.027C19.859 21.665 20.117 22.29 20.435 22.908L19.271 24.071C19.083 24.259 18.978 24.512 18.978 24.778C18.978 25.044 19.083 25.298 19.271 25.485L23.514 29.727C23.905 30.118 24.537 30.118 24.928 29.727L26.114 28.579C26.71 28.883 27.335 29.141 27.999 29.353V31C27.999 31.553 28.447 32 28.999 32H34.999C35.551 32 35.999 31.553 35.999 31L36.025 29.349C36.663 29.142 37.288 28.883 37.906 28.565L39.07 29.728C39.461 30.119 40.093 30.119 40.484 29.728L44.727 25.486C44.915 25.298 45.02 25.045 45.02 24.779C45.02 24.513 44.915 24.259 44.727 24.072L43.579 22.884C43.882 22.29 44.141 21.665 44.353 21H46ZM42.446 20.408C42.271 20.947 42.052 21.474 41.797 21.978C41.396 22.767 41.538 23.709 42.151 24.322L42.607 24.778L39.779 27.606L39.322 27.15C38.709 26.536 37.766 26.393 36.977 26.797C36.475 27.053 35.947 27.271 35.407 27.446C34.565 27.722 34 28.488 34 29.354V30H30V29.354C30 28.489 29.435 27.722 28.591 27.447C28.053 27.272 27.526 27.054 27.023 26.799C26.234 26.395 25.292 26.537 24.679 27.152L24.222 27.608L21.394 24.78L21.85 24.324C22.462 23.712 22.604 22.769 22.203 21.979C21.948 21.476 21.729 20.949 21.554 20.41C21.279 19.566 20.513 19 19.646 19H19V15H19.646C20.513 15 21.279 14.434 21.554 13.592C21.729 13.054 21.948 12.526 22.203 12.022C22.605 11.233 22.463 10.291 21.85 9.678L21.394 9.222L24.222 6.394L24.678 6.85C25.291 7.463 26.232 7.606 27.023 7.203C27.525 6.947 28.053 6.729 28.593 6.554C29.435 6.278 30 5.512 30 4.646V4H34V4.646C34 5.511 34.565 6.278 35.409 6.553C35.947 6.728 36.474 6.946 36.977 7.201C37.766 7.604 38.709 7.462 39.322 6.848L39.778 6.392L42.606 9.22L42.15 9.678C41.537 10.29 41.395 11.233 41.796 12.022C42.052 12.526 42.271 13.054 42.445 13.592C42.721 14.434 43.487 15 44.354 15H45V19H44.354C43.487 19 42.721 19.566 42.446 20.408V20.408Z" fill="#AE8D92"/>
<path d="M36.555 16.168L30.555 12.168C30.247 11.964 29.853 11.943 29.529 12.118C29.203 12.292 29 12.631 29 13V21C29 21.369 29.203 21.708 29.528 21.882C29.676 21.961 29.838 22 30 22C30.194 22 30.387 21.943 30.555 21.832L36.555 17.832C36.833 17.646 37 17.334 37 17C37 16.666 36.833 16.354 36.555 16.168ZM31 19.132V14.868L34.197 17L31 19.132Z" fill="#AE8D92"/>
<path d="M31 38H33V40H31V38Z" fill="#AE8D92"/>
<path d="M31 34H33V36H31V34Z" fill="#AE8D92"/>
<path d="M13 16H15V18H13V16Z" fill="#AE8D92"/>
<path d="M9 16H11V18H9V16Z" fill="#AE8D92"/>
<path d="M9 20H11V22H9V20Z" fill="#AE8D92"/>
<path d="M9 24H11V26H9V24Z" fill="#AE8D92"/>
<path d="M9 28H11V30H9V28Z" fill="#AE8D92"/>
<path d="M9 32H11V34H9V32Z" fill="#AE8D92"/>
<path d="M9 36H11V38H9V36Z" fill="#AE8D92"/>
<path d="M49 16H51V18H49V16Z" fill="#AE8D92"/>
<path d="M53 16H55V18H53V16Z" fill="#AE8D92"/>
<path d="M53 20H55V22H53V20Z" fill="#AE8D92"/>
<path d="M53 24H55V26H53V24Z" fill="#AE8D92"/>
<path d="M53 28H55V30H53V28Z" fill="#AE8D92"/>
<path d="M53 32H55V34H53V32Z" fill="#AE8D92"/>
<path d="M53 36H55V38H53V36Z" fill="#AE8D92"/>
</svg>
