<svg width="64" height="64" viewBox="0 0 64 64" fill="none" xmlns="http://www.w3.org/2000/svg">
<path d="M58.8387 16.5161H51.6129V0H6.19355V16.5161H5.16129C2.31552 16.5161 0 18.8317 0 21.6774V52.6452C0 55.4909 2.31552 57.8064 5.16129 57.8064H18.5806V61.9355H14.4516V64H49.5484V61.9355H45.4194V57.8064H58.8387C61.6845 57.8064 64 55.4909 64 52.6452V21.6774C64 18.8317 61.6845 16.5161 58.8387 16.5161ZM49.5484 24.7742H51.6129V30.9677H49.5484V24.7742ZM47.4839 26.8387H28.9032V24.7742H47.4839V26.8387ZM26.8387 30.5106L20.9415 28.2994C20.7641 28.2324 20.6452 28.061 20.6452 27.871C20.6452 27.6809 20.7641 27.5096 20.9425 27.4425L26.8387 25.2314V30.5106ZM28.9032 28.9032H47.4839V30.9677H28.9032V28.9032ZM53.6774 24.7742H54.7097C56.4168 24.7742 57.8064 26.1638 57.8064 27.871C57.8064 29.5781 56.4168 30.9677 54.7097 30.9677H53.6774V24.7742ZM27.683 22.7097L20.2177 25.5091C19.2394 25.8755 18.5806 26.8251 18.5806 27.871C18.5806 28.9168 19.2394 29.8664 20.2167 30.2329L27.683 33.0323H49.5484V43.3548H8.25806V10.3226H49.5484V22.7097H27.683ZM49.5484 2.06452V8.25806H8.25806V2.06452H49.5484ZM5.16129 18.5806H6.19355V45.4194H51.6129V33.0323H54.7097C57.5554 33.0323 59.871 30.7167 59.871 27.871C59.871 25.0252 57.5554 22.7097 54.7097 22.7097H51.6129V18.5806H58.8387C60.5459 18.5806 61.9355 19.9703 61.9355 21.6774V49.5484H2.06452V21.6774C2.06452 19.9703 3.45413 18.5806 5.16129 18.5806ZM43.3548 61.9355H20.6452V57.8064H43.3548V61.9355ZM58.8387 55.7419H5.16129C3.45413 55.7419 2.06452 54.3523 2.06452 52.6452V51.6129H61.9355V52.6452C61.9355 54.3523 60.5459 55.7419 58.8387 55.7419Z" fill="#AE8D92"/>
<path d="M10.3228 4.12903H12.3873V6.19354H10.3228V4.12903Z" fill="#AE8D92"/>
<path d="M14.4517 4.12903H16.5162V6.19354H14.4517V4.12903Z" fill="#AE8D92"/>
<path d="M18.5806 4.12903H20.6451V6.19354H18.5806V4.12903Z" fill="#AE8D92"/>
<path d="M10.3228 20.6451H22.7099V12.3871H10.3228V20.6451ZM12.3873 14.4516H20.6453V18.5806H12.3873V14.4516Z" fill="#AE8D92"/>
<path d="M25.8066 12.3871V20.6451H38.1937V12.3871H25.8066ZM36.1292 18.5806H27.8712V14.4516H36.1292V18.5806Z" fill="#AE8D92"/>
<path d="M10.3228 22.7097H17.5486V24.7742H10.3228V22.7097Z" fill="#AE8D92"/>
<path d="M10.3228 26.8387H16.5163V28.9033H10.3228V26.8387Z" fill="#AE8D92"/>
<path d="M10.3228 30.9678H17.5486V33.0323H10.3228V30.9678Z" fill="#AE8D92"/>
<path d="M10.3228 35.0968H47.484V37.1613H10.3228V35.0968Z" fill="#AE8D92"/>
<path d="M45.4194 39.2258H47.484V41.2903H45.4194V39.2258Z" fill="#AE8D92"/>
<path d="M10.3228 39.2258H43.355V41.2903H10.3228V39.2258Z" fill="#AE8D92"/>
</svg>
