<svg width="64" height="64" viewBox="0 0 64 64" fill="none" xmlns="http://www.w3.org/2000/svg">
<g clip-path="url(#clip0)">
<path d="M55.2194 46.9332C55.5582 45.1349 55.5495 43.2883 55.1938 41.4932L60.0792 29.7034C60.0797 29.6956 60.0797 29.6877 60.0792 29.6799C60.8708 27.5125 62.031 25.4982 63.5085 23.7258C63.8761 23.3375 64.024 22.7904 63.9021 22.2698L61.8989 13.6191C61.8751 13.5287 61.8392 13.4418 61.7922 13.361C61.7837 13.345 61.7805 13.3258 61.772 13.3108C61.7634 13.2959 61.7261 13.2596 61.7048 13.2319C61.6611 13.168 61.6107 13.109 61.5544 13.0559C61.5173 13.0298 61.4784 13.0063 61.4381 12.9855C61.3861 12.9472 61.3308 12.9137 61.2728 12.8852C61.1924 12.8549 61.1085 12.8344 61.0232 12.8244C60.9986 12.8244 60.9773 12.8084 60.9528 12.8063C60.7483 12.7927 60.5443 12.8382 60.365 12.9375C60.349 12.946 60.3298 12.9492 60.3138 12.9588H60.3032L52.7714 17.6596C52.3153 17.9421 52.0322 18.4353 52.0184 18.9716C51.8091 21.2747 51.2025 23.5242 50.2253 25.6202V25.6319L47.7837 31.5338C46.5853 30.8967 45.3024 30.4334 43.9736 30.1578C44.4766 26.6857 44.6615 23.1749 44.5261 19.6692C46.5117 17.2869 47.4647 14.2107 47.1736 11.1231C46.5069 4.90657 40.8888 0.416965 40.6488 0.228165C40.2881 -0.0558963 39.786 -0.0772594 39.4025 0.17513C39.0189 0.42752 38.8399 0.897027 38.9581 1.3407C39.5074 3.40363 39.0317 5.5807 34.9741 10.0575C33.1511 11.8178 32.5732 14.5056 33.5117 16.8596C33.8705 17.76 34.3846 18.5904 35.0306 19.313C34.7725 20.961 34.5698 22.5215 34.4301 24.0415C34.1895 26.5555 34.1275 29.0835 34.2445 31.6063C33.2929 32.1222 32.4021 32.743 31.5885 33.457L26.4152 11.3343C26.4152 11.3119 26.3938 11.2959 26.3874 11.2756C26.3701 11.2045 26.345 11.1355 26.3128 11.0698L21.0285 1.31083C20.4997 0.334057 19.3825 -0.167879 18.301 0.0854137C17.2195 0.338706 16.4414 1.28454 16.4013 2.39457L16.0002 13.4826C16.0005 13.5626 16.0094 13.6423 16.0269 13.7204C16.0269 13.7375 16.0269 13.7524 16.0269 13.7684L21.3048 36.2932C20.4722 36.33 19.6457 36.4533 18.8386 36.6612L13.0328 22.6399C12.5672 21.5681 11.3324 21.0623 10.2488 21.4996L1.37517 25.1732C0.289162 25.6266 -0.22694 26.8718 0.219971 27.9604L8.0941 46.9556C3.47918 47.1979 -0.103045 51.072 0.0160698 55.6917C0.135185 60.3115 3.91229 63.9957 8.53357 63.9999H55.4669C58.5156 63.9557 61.3091 62.2884 62.7951 59.6261C64.2812 56.9638 64.234 53.7109 62.6714 51.0927C61.1088 48.4746 58.2681 46.889 55.2194 46.9332ZM54.1325 19.3236L58.604 16.5332L57.021 20.3562C56.7954 20.9005 57.0538 21.5247 57.5981 21.7503C58.1424 21.9759 58.7666 21.7176 58.9922 21.1732L60.5752 17.3503L61.7602 22.4842C60.4923 24.031 59.4508 25.7502 58.6669 27.5903C57.5548 28.1058 56.2778 28.1326 55.1451 27.6641C54.0124 27.1956 53.1273 26.2746 52.7042 25.1242C53.4534 23.2683 53.9343 21.3152 54.1325 19.3236ZM51.6792 27.698C52.3848 28.5608 53.3006 29.2275 54.3384 29.634C55.1633 29.9888 56.0506 30.1759 56.9485 30.1844C57.1645 30.1836 57.3804 30.1705 57.5949 30.145L54.1912 38.3583C53.172 36.1112 51.5953 34.1618 49.6109 32.6954L51.6792 27.698ZM37.0658 20.0799L42.4248 20.4074C42.4578 21.4036 42.4461 22.434 42.413 23.4804C40.6278 23.608 38.8337 23.5213 37.069 23.2223C36.9346 23.2031 36.8034 23.1882 36.6701 23.17C36.7768 22.1652 36.9069 21.1476 37.0637 20.0799H37.0658ZM36.557 11.49C39.389 8.36577 40.8568 5.96257 41.1981 3.70337C43.2338 5.79781 44.5775 8.46662 45.0477 11.3492C45.2717 13.8587 44.4958 16.3551 42.8888 18.2954C40.7817 18.1674 38.6978 18.0394 36.637 17.9114C35.7515 17.0836 35.2421 15.9303 35.2266 14.7182C35.2111 13.5061 35.6909 12.3402 36.5549 11.49H36.557ZM36.476 25.2959L36.7853 25.3364C38.1598 25.549 39.5472 25.667 40.9378 25.6895C41.3794 25.6895 41.8445 25.6543 42.3106 25.618C42.2136 26.9908 42.0546 28.4244 41.853 29.906C41.5896 29.8922 41.3314 29.8666 41.0669 29.8666C39.4565 29.8695 37.8581 30.1446 36.3394 30.6804C36.2903 28.8845 36.3351 27.0872 36.4738 25.2959H36.476ZM28.2253 37.7695L25.1736 24.77C25.0309 24.2061 24.4627 23.8604 23.8962 23.9931C23.3298 24.1257 22.9742 24.6878 23.0968 25.2564L25.8392 36.9567C25.0852 36.687 24.3062 36.493 23.5138 36.3775L18.8322 16.3988C19.4881 16.6974 20.2002 16.8524 20.9208 16.8532C20.988 16.8532 21.0594 16.8436 21.1277 16.8404L21.8818 20.0607C21.9631 20.4376 22.2415 20.7414 22.6099 20.8551C22.9783 20.9688 23.3795 20.8749 23.6591 20.6094C23.9387 20.3439 24.0532 19.9481 23.9586 19.5743L23.2034 16.3519C23.9272 16.0315 24.5655 15.5456 25.0669 14.9332L29.8264 35.2842C29.2083 36.0551 28.6718 36.888 28.2253 37.7695ZM21.708 14.6228C20.3438 14.8874 18.9509 14.3297 18.1464 13.1967L18.2818 9.4399C18.653 9.50922 19.0296 9.54492 19.4072 9.54657C19.7718 9.54809 20.1355 9.50765 20.4909 9.42603C21.2105 9.23706 21.8836 8.90232 22.4685 8.44257L24.2648 11.7578C24.0507 13.1333 23.0501 14.2554 21.708 14.625V14.6228ZM18.7864 2.16203C18.9317 2.12838 19.0816 2.19551 19.1533 2.3263L21.4402 6.55563C21.0277 6.92885 20.5351 7.20253 20.0002 7.35563C19.4536 7.45597 18.8912 7.42933 18.3565 7.27777L18.5304 2.47137C18.5362 2.32232 18.641 2.1956 18.7864 2.16203ZM11.0669 23.4666L11.8818 25.4356L7.93517 27.0698C7.46729 27.2662 7.20261 27.7652 7.30228 28.2627C7.40195 28.7603 7.83838 29.1188 8.34584 29.1199C8.48598 29.1196 8.62473 29.0921 8.75437 29.0388L12.701 27.4036L13.517 29.3748L11.5426 30.193C11.0721 30.3877 10.8048 30.8879 10.9045 31.3873C11.0042 31.8868 11.443 32.2461 11.9522 32.2452C12.092 32.2447 12.2304 32.2172 12.3597 32.1642L14.3341 31.346L15.1501 33.3172L11.2002 34.9546C10.7297 35.1493 10.4624 35.6495 10.5621 36.1489C10.6618 36.6484 11.1006 37.0077 11.6098 37.0068C11.7496 37.0064 11.888 36.9789 12.0173 36.9258L15.964 35.2916L16.8269 37.3748C13.3511 38.9614 10.8023 42.0636 9.92024 45.7812L2.18904 27.1402L11.0669 23.4666ZM55.4669 61.8666H8.53357C4.99895 61.8666 2.13357 59.0012 2.13357 55.4666C2.13357 51.9319 4.99895 49.0666 8.53357 49.0666C9.15163 49.0645 9.7666 49.1536 10.3586 49.3311C10.6785 49.4277 11.0251 49.3689 11.2951 49.1722C11.5652 48.9754 11.7275 48.6635 11.7336 48.3295C11.8094 44.528 14.0071 41.0889 17.4249 39.4229C20.8428 37.7569 24.9057 38.1444 27.9469 40.4266C28.2157 40.6266 28.5628 40.6887 28.8842 40.5944C29.2057 40.5 29.4641 40.2601 29.5821 39.9466C31.6661 34.3926 37.4257 31.1257 43.262 32.1872C49.0983 33.2488 53.3387 38.3345 53.3336 44.2666C53.3357 45.4864 53.1541 46.6997 52.7949 47.8655C52.6828 48.2282 52.7719 48.6232 53.0289 48.9026C53.2859 49.182 53.6721 49.3038 54.0429 49.2223C54.5106 49.1194 54.988 49.0672 55.4669 49.0666C59.0015 49.0666 61.8669 51.9319 61.8669 55.4666C61.8669 59.0012 59.0015 61.8666 55.4669 61.8666Z" fill="#AE8D92"/>
<path d="M41.2644 16.7466C41.5992 16.7478 41.9152 16.5918 42.1177 16.3252C43.4494 14.5228 43.964 12.2445 43.5364 10.0447C43.4454 9.66855 43.1578 9.37119 42.785 9.26767C42.4121 9.16414 42.0124 9.27068 41.7405 9.54608C41.4686 9.82147 41.3673 10.2225 41.4756 10.594C41.731 12.1572 41.3499 13.7575 40.4174 15.0378C40.175 15.361 40.136 15.7934 40.3167 16.1548C40.4974 16.5161 40.8668 16.7444 41.2708 16.7444L41.2644 16.7466Z" fill="#AE8D92"/>
<path d="M39.8616 49.0666C39.0684 49.069 38.2861 49.2514 37.5736 49.5999C35.6547 46.9742 32.0718 46.2051 29.2444 47.8118C26.4169 49.4185 25.2439 52.8903 26.5176 55.8826C26.6852 56.2759 27.0714 56.5311 27.4989 56.5311C27.6426 56.5315 27.7849 56.5024 27.917 56.4458C28.1773 56.3349 28.3829 56.1252 28.4885 55.8627C28.5941 55.6002 28.5911 55.3066 28.4802 55.0463C28.248 54.505 28.1283 53.9222 28.1282 53.3332C28.1282 50.9768 30.0385 49.0666 32.3949 49.0666C34.0499 49.0583 35.5572 50.0174 36.2509 51.5199C36.274 51.5547 36.2989 51.5881 36.3256 51.6202C36.3424 51.6568 36.3613 51.6924 36.3821 51.7268C36.4013 51.7503 36.429 51.761 36.4504 51.7834C36.5004 51.8353 36.5558 51.8818 36.6157 51.922C36.669 51.9631 36.7261 51.9988 36.7864 52.0287C36.8483 52.0547 36.9126 52.0747 36.9784 52.0884C37.044 52.1057 37.1112 52.116 37.1789 52.1194C37.3175 52.1183 37.455 52.0952 37.5864 52.0511C37.6148 52.0459 37.6429 52.0391 37.6706 52.0308C37.7052 52.0085 37.7384 51.9839 37.7698 51.9572C37.8082 51.9402 37.8456 51.921 37.8818 51.8996C38.4421 51.4465 39.141 51.1995 39.8616 51.1999C41.1088 51.2019 42.2412 51.9284 42.7629 53.0612C43.0074 53.5973 43.6402 53.8337 44.1762 53.5893C44.7123 53.3448 44.9487 52.712 44.7042 52.1759C43.8357 50.2828 41.9445 49.0685 39.8616 49.0666Z" fill="#AE8D92"/>
<path d="M18.8632 41.6543C18.7021 41.7065 14.9336 43.01 14.9336 46.9332C14.9336 47.5223 15.4112 47.9999 16.0003 47.9999C16.5894 47.9999 17.0669 47.5223 17.0669 46.9332C17.154 45.4452 18.133 44.158 19.5437 43.6767C20.1034 43.4888 20.4047 42.8827 20.2168 42.3231C20.0289 41.7634 19.4228 41.4621 18.8632 41.65V41.6543Z" fill="#AE8D92"/>
<path d="M33.8741 40.5013C33.9588 40.5228 34.0459 40.5336 34.1333 40.5333C34.6222 40.5328 35.0481 40.2 35.1669 39.7258C35.6578 37.734 37.4211 36.3172 39.472 36.2666C40.0611 36.2652 40.5374 35.7864 40.536 35.1973C40.5345 34.6082 40.0557 34.1318 39.4666 34.1333C36.4348 34.1736 33.8149 36.2612 33.0986 39.2074C32.9555 39.7789 33.3027 40.3581 33.8741 40.5013Z" fill="#AE8D92"/>
</g>
<defs>
<clipPath id="clip0">
<rect width="64" height="64" fill="white"/>
</clipPath>
</defs>
</svg>
