<svg width="50" height="50" viewBox="0 0 50 50" fill="none" xmlns="http://www.w3.org/2000/svg">
<path d="M28.1907 23.8533L26.1673 22.6109L26.7402 20.3067C26.8102 20.025 26.7074 19.7286 26.4779 19.5509C26.2484 19.3732 25.9356 19.3477 25.6805 19.486L23.5929 20.6171L21.8839 18.9689C21.6751 18.7674 21.367 18.7083 21.0982 18.8182C20.8297 18.9281 20.6511 19.1862 20.6433 19.4763L20.5791 21.8497L18.2971 22.5057C18.0182 22.5859 17.813 22.8232 17.7738 23.1108C17.7347 23.3984 17.8689 23.682 18.1163 23.8337L20.1396 25.0761L19.5668 27.3803C19.4968 27.6619 19.5996 27.9584 19.8291 28.1361C20.0585 28.3138 20.3713 28.3393 20.6264 28.201L22.714 27.0698L24.423 28.7181C24.5622 28.8524 24.7454 28.9234 24.9316 28.9234C25.0249 28.9234 25.119 28.9055 25.2087 28.8689C25.4773 28.759 25.6558 28.5009 25.6636 28.2108L25.7279 25.8372L28.0098 25.1813C28.2887 25.1011 28.494 24.8638 28.5331 24.5762C28.5723 24.2887 28.438 24.005 28.1907 23.8533ZM24.8077 24.5776C24.5008 24.6657 24.2866 24.9425 24.2779 25.2616L24.2441 26.5108L23.3449 25.6435C23.2049 25.5085 23.0215 25.4382 22.8363 25.4382C22.7172 25.4382 22.5973 25.4672 22.4876 25.5267L21.3889 26.1219L21.6904 24.9094C21.7674 24.5996 21.6349 24.2756 21.3629 24.1085L20.2981 23.4548L21.4989 23.1096C21.8057 23.0214 22.02 22.7447 22.0287 22.4255L22.0625 21.1765L22.9618 22.0438C23.1917 22.2655 23.5385 22.3125 23.8191 22.1606L24.9176 21.5654L24.6162 22.7779C24.5391 23.0876 24.6716 23.4116 24.9437 23.5787L26.0084 24.2324L24.8077 24.5776Z" fill="#AE8D92"/>
<path d="M16.4464 20.6078L9.27394 18.1587C8.89113 18.0279 8.47483 18.2323 8.34416 18.6151C8.2135 18.9979 8.4178 19.4141 8.80061 19.5449L15.973 21.994C16.0515 22.0208 16.1313 22.0335 16.2098 22.0335C16.5144 22.0335 16.7989 21.8419 16.9028 21.5376C17.0335 21.1547 16.8292 20.7384 16.4464 20.6078Z" fill="#AE8D92"/>
<path d="M21.8272 16.0324L19.1224 6.73896C19.0093 6.35048 18.6025 6.12724 18.2144 6.24033C17.8261 6.35331 17.6028 6.75985 17.7159 7.14823L20.4207 16.4418C20.5138 16.7619 20.8062 16.9698 21.1236 16.9698C21.1914 16.9698 21.2603 16.9603 21.3286 16.9404C21.7171 16.8273 21.9403 16.4209 21.8272 16.0324Z" fill="#AE8D92"/>
<path d="M34.6261 9.03034C34.3062 8.78269 33.8463 8.84108 33.5985 9.161L27.3673 17.2071C27.1196 17.5268 27.178 17.9868 27.4979 18.2345C27.6314 18.3378 27.7891 18.3879 27.9458 18.3879C28.1646 18.3879 28.3811 18.2903 28.5254 18.1039L34.7566 10.0579C35.0043 9.73805 34.9459 9.278 34.6261 9.03034Z" fill="#AE8D92"/>
<path d="M26.5097 8.7716C26.1146 8.68361 25.7234 8.93243 25.6355 9.32726L23.755 17.7719C23.667 18.1668 23.9158 18.5581 24.3107 18.646C24.3643 18.658 24.4178 18.6637 24.4705 18.6637C24.8062 18.6637 25.1088 18.4315 25.1848 18.0903L27.0653 9.64571C27.1532 9.25089 26.9045 8.85958 26.5097 8.7716Z" fill="#AE8D92"/>
<path d="M18.9389 17.9976L15.2355 13.8299C14.9668 13.5276 14.5039 13.5002 14.2015 13.7689C13.8991 14.0375 13.8718 14.5005 14.1405 14.8029L17.8439 18.9706C17.9886 19.1335 18.1897 19.2165 18.3916 19.2165C18.5646 19.2165 18.7383 19.1555 18.8778 19.0315C19.1802 18.7629 19.2075 18.2999 18.9389 17.9976Z" fill="#AE8D92"/>
<path d="M16.5001 24.3701C16.4683 23.9668 16.116 23.666 15.7123 23.6976L11.4936 24.031C11.0904 24.0628 10.7893 24.4155 10.8212 24.8188C10.8514 25.2023 11.1721 25.4936 11.5504 25.4936C11.5698 25.4936 11.5893 25.4928 11.6089 25.4912L15.8277 25.1579C16.2309 25.1261 16.532 24.7734 16.5001 24.3701Z" fill="#AE8D92"/>
<path d="M19.346 2.00738C19.2687 1.39849 18.9587 0.856111 18.4734 0.480234C17.4715 -0.295642 16.0253 -0.111756 15.2493 0.889998C14.4734 1.89204 14.6573 3.33833 15.6591 4.1143C16.066 4.42944 16.5552 4.59584 17.0616 4.59584C17.1592 4.59584 17.2576 4.58969 17.356 4.57709C17.9649 4.49975 18.5073 4.18979 18.8831 3.70444C19.259 3.21909 19.4235 2.61636 19.346 2.00738ZM17.7249 2.80747C17.5886 2.98345 17.392 3.09585 17.1712 3.12388C16.9506 3.1519 16.7319 3.09233 16.556 2.9561C16.38 2.81978 16.2676 2.62319 16.2396 2.40239C16.2117 2.1815 16.2712 1.96304 16.4075 1.78716C16.5715 1.57544 16.8181 1.46441 17.0672 1.46441C17.2455 1.46441 17.425 1.52124 17.5764 1.63853C17.7524 1.77486 17.8648 1.97144 17.8928 2.19224C17.9208 2.41304 17.8613 2.63149 17.7249 2.80747Z" fill="#AE8D92"/>
<path d="M6.74371 17.0009C6.66627 16.392 6.3564 15.8496 5.87105 15.4737C5.38571 15.0979 4.78307 14.9334 4.17419 15.0109C3.5653 15.0883 3.02292 15.3983 2.64705 15.8836C2.27117 16.3689 2.10681 16.9716 2.18426 17.5805C2.2617 18.1893 2.57156 18.7317 3.05691 19.1076C3.46374 19.4227 3.953 19.5891 4.45934 19.5891C4.557 19.589 4.65534 19.5829 4.75377 19.5704C5.36266 19.4931 5.90504 19.1831 6.28092 18.6977C6.65679 18.2124 6.82115 17.6098 6.74371 17.0009ZM5.12282 17.8008C4.98659 17.9767 4.78991 18.0892 4.56911 18.1172C4.34841 18.1451 4.12985 18.0856 3.95388 17.9493C3.7779 17.8132 3.6655 17.6165 3.63747 17.3957C3.60935 17.1749 3.66901 16.9564 3.80524 16.7805C3.94157 16.6045 4.13815 16.4921 4.35895 16.4641C4.39469 16.4596 4.43024 16.4573 4.46569 16.4573C4.64928 16.4573 4.82672 16.5177 4.97418 16.6319C5.15016 16.7683 5.26256 16.9648 5.29059 17.1855C5.31871 17.4063 5.25905 17.6249 5.12282 17.8008Z" fill="#AE8D92"/>
<path d="M38.4609 4.07722C37.9756 3.70135 37.3729 3.53699 36.764 3.61443C36.1551 3.69177 35.6128 4.00173 35.2369 4.48708C34.861 4.97243 34.6967 5.57507 34.7741 6.18395C34.8514 6.79304 35.1613 7.33542 35.6467 7.7112C36.0645 8.03473 36.5595 8.19137 37.0512 8.19137C37.7382 8.19137 38.4184 7.88532 38.8707 7.30133C39.6465 6.29958 39.4628 4.8532 38.4609 4.07722ZM37.7125 6.40466C37.4312 6.76794 36.9067 6.83454 36.5435 6.55329C36.3676 6.41696 36.2551 6.22038 36.2271 5.99958C36.1991 5.77868 36.2588 5.56023 36.395 5.38425C36.5313 5.20827 36.7279 5.09587 36.9487 5.06784C36.9844 5.06325 37.0201 5.06111 37.0554 5.06111C37.239 5.06111 37.4165 5.12146 37.5639 5.23562C37.9272 5.51696 37.9938 6.04138 37.7125 6.40466Z" fill="#AE8D92"/>
<path d="M32.1288 35.8588L27.9631 29.5271C27.7407 29.1893 27.2865 29.0956 26.9486 29.3179C26.6107 29.5402 26.517 29.9943 26.7392 30.3323L30.9049 36.6639C31.0457 36.8778 31.2792 36.9938 31.5174 36.9938C31.6556 36.9938 31.7953 36.9547 31.9193 36.8732C32.2574 36.6509 32.351 36.1967 32.1288 35.8588Z" fill="#AE8D92"/>
<path d="M40.7223 23.4659L31.0476 23.1722C30.6425 23.1611 30.3056 23.4776 30.2933 23.882C30.2811 24.2864 30.5989 24.6241 31.0032 24.6364L40.6778 24.9302C40.6855 24.9303 40.693 24.9305 40.7005 24.9305C41.0947 24.9305 41.4201 24.6171 41.4321 24.2204C41.4444 23.8159 41.1266 23.4782 40.7223 23.4659Z" fill="#AE8D92"/>
<path d="M36.9054 16.8234C36.7214 16.4631 36.2803 16.3202 35.92 16.504L28.2145 20.4375C27.8542 20.6214 27.7113 21.0626 27.8952 21.4229C28.0247 21.6765 28.2816 21.8225 28.5481 21.8225C28.6601 21.8225 28.7739 21.7967 28.8805 21.7422L36.586 17.8087C36.9463 17.6248 37.0893 17.1837 36.9054 16.8234Z" fill="#AE8D92"/>
<path d="M34.828 29.0045L29.8664 26.4616C29.5065 26.2772 29.0651 26.4193 28.8806 26.7793C28.6961 27.1394 28.8383 27.5807 29.1983 27.7652L34.1599 30.3081C34.2668 30.363 34.3809 30.3889 34.4933 30.3889C34.7594 30.3889 35.016 30.2435 35.1457 29.9904C35.3302 29.6304 35.188 29.1891 34.828 29.0045Z" fill="#AE8D92"/>
<path d="M25.8892 35.178L25.1565 31.01C25.0865 30.6116 24.7065 30.3455 24.3084 30.4155C23.9099 30.4855 23.6437 30.8653 23.7138 31.2636L24.4466 35.4317C24.5091 35.7872 24.8181 36.0374 25.1671 36.0374C25.2091 36.0374 25.2518 36.0337 25.2947 36.0262C25.6931 35.9562 25.9593 35.5764 25.8892 35.178Z" fill="#AE8D92"/>
<path d="M46.9443 22.5303C46.4589 22.1545 45.8563 21.9901 45.2474 22.0676C44.6385 22.1449 44.0962 22.4549 43.7203 22.9402C43.3444 23.4256 43.1801 24.0282 43.2575 24.6371C43.3348 25.2461 43.6448 25.7885 44.1302 26.1642C44.537 26.4794 45.0262 26.6458 45.5326 26.6458C45.6302 26.6458 45.7286 26.6396 45.8271 26.6271C46.436 26.5497 46.9784 26.2398 47.3543 25.7545C48.1299 24.7526 47.9461 23.3062 46.9443 22.5303ZM46.1959 24.8576C46.0595 25.0336 45.863 25.1459 45.6422 25.174C45.4215 25.202 45.2029 25.1425 45.0269 25.0062C44.8509 24.8699 44.7385 24.6733 44.7105 24.4525C44.6824 24.2317 44.7421 24.0132 44.8783 23.8373C45.0146 23.6613 45.2112 23.5489 45.432 23.5209C45.4677 23.5163 45.5034 23.5141 45.5387 23.5141C45.7223 23.5141 45.8998 23.5745 46.0472 23.6886C46.4105 23.9698 46.4772 24.4943 46.1959 24.8576Z" fill="#AE8D92"/>
<path d="M35.5799 38.4822C34.578 37.7063 33.1317 37.8901 32.3558 38.892C31.5799 39.8938 31.7637 41.3401 32.7655 42.1161C33.1724 42.4312 33.6616 42.5976 34.168 42.5976C34.2656 42.5976 34.364 42.5915 34.4625 42.5789C35.0714 42.5015 35.6138 42.1916 35.9896 41.7062C36.7655 40.7044 36.5817 39.2582 35.5799 38.4822ZM34.8315 40.8094C34.6952 40.9853 34.4986 41.0977 34.2778 41.1258C34.0572 41.1538 33.8385 41.0942 33.6626 40.958C33.2993 40.6767 33.2327 40.1523 33.5141 39.7891C33.6504 39.6131 33.847 39.5008 34.0678 39.4726C34.2887 39.4444 34.5071 39.5042 34.683 39.6404C35.0462 39.9218 35.1129 40.4461 34.8315 40.8094Z" fill="#AE8D92"/>
<path d="M18.1639 29.1692C17.8731 28.8877 17.4096 28.8952 17.1282 29.1858C16.7641 29.5618 8.16537 38.5145 4.14585 49.0042C4.00113 49.3819 4.18999 49.8055 4.56772 49.9502C4.65395 49.9832 4.74253 49.9989 4.82964 49.9989C5.12427 49.9989 5.402 49.8199 5.51372 49.5284C9.42366 39.3245 18.0935 30.2949 18.1807 30.2048C18.4619 29.9141 18.4544 29.4504 18.1639 29.1692Z" fill="#AE8D92"/>
</svg>
