<svg width="50" height="50" viewBox="0 0 50 50" fill="none" xmlns="http://www.w3.org/2000/svg">
<g clip-path="url(#clip0)">
<path d="M43.3337 0H16.667C16.004 0 15.3681 0.263392 14.8992 0.732233C14.4304 1.20107 14.167 1.83696 14.167 2.5V3.33333H6.66699C6.00395 3.33333 5.36807 3.59673 4.89923 4.06557C4.43038 4.53441 4.16699 5.17029 4.16699 5.83333V44.1667C4.16699 44.8297 4.43038 45.4656 4.89923 45.9344C5.36807 46.4033 6.00395 46.6667 6.66699 46.6667H9.16699V47.5C9.16699 48.163 9.43038 48.7989 9.89923 49.2678C10.3681 49.7366 11.004 50 11.667 50H38.3337C38.9967 50 39.6326 49.7366 40.1014 49.2678C40.5703 48.7989 40.8337 48.163 40.8337 47.5V43.3333H43.3337C43.9967 43.3333 44.6326 43.0699 45.1014 42.6011C45.5703 42.1323 45.8337 41.4964 45.8337 40.8333V2.5C45.8337 1.83696 45.5703 1.20107 45.1014 0.732233C44.6326 0.263392 43.9967 0 43.3337 0V0ZM6.66699 45C6.44598 45 6.23402 44.9122 6.07774 44.7559C5.92146 44.5996 5.83366 44.3877 5.83366 44.1667V5.83333C5.83366 5.61232 5.92146 5.40036 6.07774 5.24408C6.23402 5.0878 6.44598 5 6.66699 5H33.3337C33.5547 5 33.7666 5.0878 33.9229 5.24408C34.0792 5.40036 34.167 5.61232 34.167 5.83333V6.66667H11.667C11.004 6.66667 10.3681 6.93006 9.89923 7.3989C9.43038 7.86774 9.16699 8.50363 9.16699 9.16667V45H6.66699ZM39.167 47.5C39.167 47.721 39.0792 47.933 38.9229 48.0893C38.7666 48.2455 38.5547 48.3333 38.3337 48.3333H11.667C11.446 48.3333 11.234 48.2455 11.0777 48.0893C10.9215 47.933 10.8337 47.721 10.8337 47.5V9.16667C10.8337 8.94565 10.9215 8.73369 11.0777 8.57741C11.234 8.42113 11.446 8.33333 11.667 8.33333H38.3337C38.5547 8.33333 38.7666 8.42113 38.9229 8.57741C39.0792 8.73369 39.167 8.94565 39.167 9.16667V47.5ZM44.167 40.8333C44.167 41.0543 44.0792 41.2663 43.9229 41.4226C43.7666 41.5789 43.5547 41.6667 43.3337 41.6667H40.8337V9.16667C40.8337 8.50363 40.5703 7.86774 40.1014 7.3989C39.6326 6.93006 38.9967 6.66667 38.3337 6.66667H35.8337V5.83333C35.8337 5.17029 35.5703 4.53441 35.1014 4.06557C34.6326 3.59673 33.9967 3.33333 33.3337 3.33333H15.8337V2.5C15.8337 2.27899 15.9215 2.06702 16.0777 1.91074C16.234 1.75446 16.446 1.66667 16.667 1.66667H43.3337C43.5547 1.66667 43.7666 1.75446 43.9229 1.91074C44.0792 2.06702 44.167 2.27899 44.167 2.5V40.8333Z" fill="#AE8D92"/>
<path d="M34.1668 25.834H16.6668C16.4458 25.834 16.2339 25.9218 16.0776 26.0781C15.9213 26.2343 15.8335 26.4463 15.8335 26.6673C15.8335 26.8883 15.9213 27.1003 16.0776 27.2566C16.2339 27.4129 16.4458 27.5007 16.6668 27.5007H34.1668C34.3879 27.5007 34.5998 27.4129 34.7561 27.2566C34.9124 27.1003 35.0002 26.8883 35.0002 26.6673C35.0002 26.4463 34.9124 26.2343 34.7561 26.0781C34.5998 25.9218 34.3879 25.834 34.1668 25.834Z" fill="#AE8D92"/>
<path d="M34.1667 30H25.8333C25.6123 30 25.4004 30.0878 25.2441 30.2441C25.0878 30.4004 25 30.6123 25 30.8333C25 31.0543 25.0878 31.2663 25.2441 31.4226C25.4004 31.5789 25.6123 31.6667 25.8333 31.6667H34.1667C34.3877 31.6667 34.5996 31.5789 34.7559 31.4226C34.9122 31.2663 35 31.0543 35 30.8333C35 30.6123 34.9122 30.4004 34.7559 30.2441C34.5996 30.0878 34.3877 30 34.1667 30Z" fill="#AE8D92"/>
<path d="M16.6668 31.6667H22.5002C22.7212 31.6667 22.9331 31.5789 23.0894 31.4226C23.2457 31.2663 23.3335 31.0543 23.3335 30.8333C23.3335 30.6123 23.2457 30.4004 23.0894 30.2441C22.9331 30.0878 22.7212 30 22.5002 30H16.6668C16.4458 30 16.2339 30.0878 16.0776 30.2441C15.9213 30.4004 15.8335 30.6123 15.8335 30.8333C15.8335 31.0543 15.9213 31.2663 16.0776 31.4226C16.2339 31.5789 16.4458 31.6667 16.6668 31.6667Z" fill="#AE8D92"/>
<path d="M34.1667 34.166H33.3333C33.1123 34.166 32.9004 34.2538 32.7441 34.4101C32.5878 34.5664 32.5 34.7783 32.5 34.9993C32.5 35.2204 32.5878 35.4323 32.7441 35.5886C32.9004 35.7449 33.1123 35.8327 33.3333 35.8327H34.1667C34.3877 35.8327 34.5996 35.7449 34.7559 35.5886C34.9122 35.4323 35 35.2204 35 34.9993C35 34.7783 34.9122 34.5664 34.7559 34.4101C34.5996 34.2538 34.3877 34.166 34.1667 34.166Z" fill="#AE8D92"/>
<path d="M16.6668 35.8327H30.0002C30.2212 35.8327 30.4331 35.7449 30.5894 35.5886C30.7457 35.4323 30.8335 35.2204 30.8335 34.9993C30.8335 34.7783 30.7457 34.5664 30.5894 34.4101C30.4331 34.2538 30.2212 34.166 30.0002 34.166H16.6668C16.4458 34.166 16.2339 34.2538 16.0776 34.4101C15.9213 34.5664 15.8335 34.7783 15.8335 34.9993C15.8335 35.2204 15.9213 35.4323 16.0776 35.5886C16.2339 35.7449 16.4458 35.8327 16.6668 35.8327Z" fill="#AE8D92"/>
<path d="M34.1667 38.334H20.8333C20.6123 38.334 20.4004 38.4218 20.2441 38.5781C20.0878 38.7343 20 38.9463 20 39.1673C20 39.3883 20.0878 39.6003 20.2441 39.7566C20.4004 39.9129 20.6123 40.0007 20.8333 40.0007H34.1667C34.3877 40.0007 34.5996 39.9129 34.7559 39.7566C34.9122 39.6003 35 39.3883 35 39.1673C35 38.9463 34.9122 38.7343 34.7559 38.5781C34.5996 38.4218 34.3877 38.334 34.1667 38.334Z" fill="#AE8D92"/>
<path d="M16.6668 40.0007H17.5002C17.7212 40.0007 17.9331 39.9129 18.0894 39.7566C18.2457 39.6003 18.3335 39.3883 18.3335 39.1673C18.3335 38.9463 18.2457 38.7343 18.0894 38.5781C17.9331 38.4218 17.7212 38.334 17.5002 38.334H16.6668C16.4458 38.334 16.2339 38.4218 16.0776 38.5781C15.9213 38.7343 15.8335 38.9463 15.8335 39.1673C15.8335 39.3883 15.9213 39.6003 16.0776 39.7566C16.2339 39.9129 16.4458 40.0007 16.6668 40.0007Z" fill="#AE8D92"/>
<path d="M27.5002 42.5H16.6668C16.4458 42.5 16.2339 42.5878 16.0776 42.7441C15.9213 42.9004 15.8335 43.1123 15.8335 43.3333C15.8335 43.5543 15.9213 43.7663 16.0776 43.9226C16.2339 44.0789 16.4458 44.1667 16.6668 44.1667H27.5002C27.7212 44.1667 27.9331 44.0789 28.0894 43.9226C28.2457 43.7663 28.3335 43.5543 28.3335 43.3333C28.3335 43.1123 28.2457 42.9004 28.0894 42.7441C27.9331 42.5878 27.7212 42.5 27.5002 42.5Z" fill="#AE8D92"/>
<path d="M33.9223 18.5774C33.7652 18.4256 33.5547 18.3416 33.3362 18.3435C33.1177 18.3454 32.9086 18.4331 32.7541 18.5876C32.5996 18.7421 32.512 18.9511 32.5101 19.1696C32.5082 19.3881 32.5922 19.5986 32.744 19.7558L32.9882 19.9999H28.7165C29.3631 19.2824 29.7877 18.3926 29.9387 17.4386C30.0897 16.4846 29.9607 15.5072 29.5672 14.625C29.1738 13.7429 28.5328 12.9938 27.7221 12.4687C26.9114 11.9436 25.9658 11.6649 24.9998 11.6666C24.6823 11.6675 24.3657 11.6985 24.054 11.7591L24.1715 11.4749C24.2136 11.3739 24.2354 11.2655 24.2357 11.156C24.2359 11.0465 24.2146 10.938 24.173 10.8368C24.1313 10.7355 24.0701 10.6435 23.9928 10.5659C23.9156 10.4883 23.8238 10.4266 23.7227 10.3845C23.6217 10.3424 23.5133 10.3206 23.4038 10.3203C23.2943 10.3201 23.1859 10.3414 23.0846 10.3831C22.9833 10.4247 22.8913 10.4859 22.8137 10.5632C22.7361 10.6404 22.6745 10.7322 22.6323 10.8333L21.7298 13.0108C21.6879 13.1119 21.6663 13.2203 21.6662 13.3297C21.6662 13.4392 21.6877 13.5476 21.7296 13.6487C21.7715 13.7499 21.8329 13.8418 21.9102 13.9192C21.9876 13.9966 22.0795 14.058 22.1807 14.0999L24.3582 15.0024C24.5599 15.0771 24.7826 15.0708 24.9799 14.985C25.1771 14.8992 25.3335 14.7405 25.4164 14.542C25.4992 14.3435 25.5022 14.1207 25.4245 13.9201C25.3469 13.7195 25.1947 13.5567 24.9998 13.4658L24.7432 13.3599C24.8307 13.3533 24.9148 13.3333 25.0032 13.3333C25.6624 13.3333 26.3069 13.5288 26.8551 13.895C27.4032 14.2613 27.8305 14.7819 28.0828 15.391C28.3351 16.0001 28.4011 16.6703 28.2724 17.3169C28.1438 17.9635 27.8264 18.5574 27.3602 19.0236C26.894 19.4898 26.3001 19.8073 25.6535 19.9359C25.0069 20.0645 24.3366 19.9985 23.7276 19.7462C23.1185 19.4939 22.5979 19.0667 22.2316 18.5185C21.8653 17.9703 21.6698 17.3259 21.6698 16.6666C21.6698 16.4456 21.582 16.2336 21.4258 16.0773C21.2695 15.9211 21.0575 15.8333 20.8365 15.8333C20.6155 15.8333 20.4035 15.9211 20.2472 16.0773C20.091 16.2336 20.0032 16.4456 20.0032 16.6666C20.0035 17.8983 20.4608 19.086 21.2865 19.9999H14.9998C14.7788 19.9999 14.5669 20.0877 14.4106 20.244C14.2543 20.4003 14.1665 20.6122 14.1665 20.8333C14.1665 21.0543 14.2543 21.2662 14.4106 21.4225C14.5669 21.5788 14.7788 21.6666 14.9998 21.6666H32.9882L32.744 21.9108C32.6644 21.9876 32.6009 22.0796 32.5572 22.1813C32.5136 22.2829 32.4906 22.3923 32.4896 22.5029C32.4887 22.6136 32.5097 22.7233 32.5516 22.8257C32.5935 22.9281 32.6554 23.0212 32.7337 23.0994C32.8119 23.1777 32.905 23.2395 33.0074 23.2814C33.1098 23.3233 33.2195 23.3444 33.3302 23.3435C33.4408 23.3425 33.5502 23.3195 33.6518 23.2758C33.7535 23.2322 33.8455 23.1687 33.9223 23.0891L35.589 21.4224C35.7452 21.2662 35.833 21.0542 35.833 20.8333C35.833 20.6123 35.7452 20.4004 35.589 20.2441L33.9223 18.5774Z" fill="#AE8D92"/>
</g>
<defs>
<clipPath id="clip0">
<rect width="50" height="50" fill="white"/>
</clipPath>
</defs>
</svg>
