<svg width="50" height="50" viewBox="0 0 50 50" fill="none" xmlns="http://www.w3.org/2000/svg">
<g clip-path="url(#clip0)">
<path d="M42.9211 39.6209V34.9655L46.4524 38.4965C46.9703 39.0329 47.7377 39.2481 48.4591 39.0591C49.1805 38.8705 49.7439 38.3071 49.933 37.5856C50.1216 36.8642 49.9064 36.0968 49.3699 35.5789L42.9211 29.1301V15.9522C42.9211 15.0406 42.1819 14.3014 41.2702 14.3014H38.794C39.1491 14.3014 39.4643 14.0737 39.5767 13.7368L40.4021 11.2605C40.4303 11.1711 40.4428 11.0772 40.4392 10.9833C41.8631 9.91927 42.4459 8.06291 41.8853 6.37583C41.3243 4.68875 39.7464 3.55059 37.9686 3.55059C36.1909 3.55059 34.613 4.68875 34.0524 6.37583C33.4918 8.06291 34.0742 9.91927 35.4985 10.9833C35.4944 11.0772 35.5073 11.1711 35.5355 11.2605L36.3609 13.7368C36.473 14.0737 36.7882 14.3014 37.1432 14.3014H31.3654V15.9522H41.2702V27.4793L34.3873 20.5951C34.06 20.2856 33.5478 20.2856 33.2201 20.5951L31.4694 22.3467C31.1473 22.6691 31.1473 23.1914 31.4694 23.5139L41.2702 33.3147V39.0635H8.25405V22.5555H13.2065C14.1181 22.5555 14.8573 21.8163 14.8573 20.9046V15.9522H25.5876V14.3014H14.8573V9.70002C16.7193 9.43684 18.6168 9.58878 20.4131 10.1446C22.0022 10.6492 25.9072 12.1835 27.8542 15.5419C28.3922 16.4677 28.7469 17.4882 28.8984 18.5481C29.2954 21.8594 28.0609 25.157 25.5876 27.3942V25.0317H23.9367V29.1587C23.9367 29.6145 24.3063 29.9841 24.7621 29.9841H28.8892V28.3333H26.9909C29.6852 25.7374 30.9966 22.0226 30.5295 18.3103C30.3502 17.0424 29.9266 15.8212 29.2821 14.7141C27.0469 10.8579 22.6837 9.13457 20.8794 8.56146C18.9311 7.96014 16.8773 7.78079 14.8541 8.03591V1.92034C14.8541 1.00869 14.1149 0.269531 13.2033 0.269531H1.65081C0.739156 0.269531 0 1.00869 0 1.92034V20.9046C0 21.8163 0.739156 22.5555 1.65081 22.5555H6.60324V39.6209L0.157585 48.4831C-0.0245848 48.7342 -0.0507818 49.0667 0.0898757 49.3432C0.230936 49.6197 0.515072 49.7938 0.825405 49.7938H48.6989C49.0096 49.7938 49.2938 49.6197 49.4344 49.3432C49.5755 49.0667 49.5493 48.7342 49.3667 48.4831L42.9211 39.6209ZM37.9686 5.22196C39.3365 5.22196 40.4448 6.33069 40.4448 7.69817C40.4448 9.06565 39.3365 10.1744 37.9686 10.1744C36.6011 10.1744 35.4924 9.06565 35.4924 7.69817C35.4924 6.33069 36.6011 5.22196 37.9686 5.22196ZM38.474 11.8252L38.1992 12.6506H37.7385L37.4636 11.8252H38.474ZM48.3241 37.0379C48.3245 37.1475 48.2809 37.2527 48.2028 37.3293C48.042 37.4905 47.7804 37.4905 47.6196 37.3293L34.9709 24.681L35.5545 24.0974L48.2036 36.7457C48.2809 36.8235 48.3245 36.9287 48.3241 37.0379ZM33.8037 22.3459L34.3873 22.9295L33.8037 23.513L33.2201 22.9295L33.8037 22.3459ZM1.65081 1.92034H13.2065V20.9046H1.65081V1.92034ZM21.0289 48.143L22.0195 45.6668H27.5052L28.4954 48.143H21.0289ZM30.2736 48.143L28.8307 44.5343C28.705 44.2211 28.4015 44.016 28.0638 44.016H21.4605C21.1232 44.016 20.8193 44.2211 20.694 44.5343L19.2511 48.143H2.44679L7.849 40.7144H41.6757L47.0779 48.143H30.2736Z" fill="#AE8D92"/>
<path d="M8.25439 41.5391H11.556V43.1899H8.25439V41.5391Z" fill="#AE8D92"/>
<path d="M13.2061 41.5391H16.5077V43.1899H13.2061V41.5391Z" fill="#AE8D92"/>
<path d="M18.1587 41.5391H21.4603V43.1899H18.1587V41.5391Z" fill="#AE8D92"/>
<path d="M5.77783 44.8408H9.07945V46.4916H5.77783V44.8408Z" fill="#AE8D92"/>
<path d="M10.73 44.8408H14.0316V46.4916H10.73V44.8408Z" fill="#AE8D92"/>
<path d="M15.6826 44.8408H18.9842V46.4916H15.6826V44.8408Z" fill="#AE8D92"/>
<path d="M30.54 44.8408H33.8417V46.4916H30.54V44.8408Z" fill="#AE8D92"/>
<path d="M35.4922 44.8408H38.7938V46.4916H35.4922V44.8408Z" fill="#AE8D92"/>
<path d="M40.4448 44.8408H43.7464V46.4916H40.4448V44.8408Z" fill="#AE8D92"/>
<path d="M23.1113 41.5391H26.413V43.1899H23.1113V41.5391Z" fill="#AE8D92"/>
<path d="M28.0635 41.5391H31.3651V43.1899H28.0635V41.5391Z" fill="#AE8D92"/>
<path d="M33.0161 41.5391H36.3177V43.1899H33.0161V41.5391Z" fill="#AE8D92"/>
<path d="M37.9688 41.5391H41.2704V43.1899H37.9688V41.5391Z" fill="#AE8D92"/>
<path d="M38.7939 36.5869H40.4448V38.2377H38.7939V36.5869Z" fill="#AE8D92"/>
<path d="M36.3179 36.5869H37.9687V38.2377H36.3179V36.5869Z" fill="#AE8D92"/>
<path d="M38.7939 34.1113H40.4448V35.7621H38.7939V34.1113Z" fill="#AE8D92"/>
<path d="M40.4447 17.6027C40.4447 17.1469 40.0751 16.7773 39.6193 16.7773H37.1431V18.4281H38.7939V20.079H40.4447V17.6027Z" fill="#AE8D92"/>
<path d="M38.7939 20.9043H40.4448V22.5551H38.7939V20.9043Z" fill="#AE8D92"/>
<path d="M34.667 16.7773H36.3178V18.4281H34.667V16.7773Z" fill="#AE8D92"/>
<path d="M11.5555 2.74609H3.30148C2.84565 2.74609 2.47607 3.11567 2.47607 3.5715V8.52392C2.47607 8.97975 2.84565 9.34933 3.30148 9.34933H11.5555C12.0113 9.34933 12.3809 8.97975 12.3809 8.52392V3.5715C12.3809 3.11567 12.0113 2.74609 11.5555 2.74609ZM10.7301 7.69852H4.12688V4.3969H10.7301V7.69852Z" fill="#AE8D92"/>
<path d="M11.5555 15.126H3.30148C2.84565 15.126 2.47607 15.4956 2.47607 15.9514V19.253C2.47607 19.7088 2.84565 20.0784 3.30148 20.0784H11.5555C12.0113 20.0784 12.3809 19.7088 12.3809 19.253V15.9514C12.3809 15.4956 12.0113 15.126 11.5555 15.126ZM10.7301 18.4276H4.12688V16.7768H10.7301V18.4276Z" fill="#AE8D92"/>
<path d="M2.47607 10.1748H5.77769V11.8256H2.47607V10.1748Z" fill="#AE8D92"/>
<path d="M6.60303 10.1748H12.3809V11.8256H6.60303V10.1748Z" fill="#AE8D92"/>
<path d="M2.47607 12.6504H12.3809V14.3012H2.47607V12.6504Z" fill="#AE8D92"/>
<path d="M37.1431 0.269531H38.7939V2.74574H37.1431V0.269531Z" fill="#AE8D92"/>
<path d="M40.8867 3.61347L42.6379 1.8623L43.805 3.02988L42.0539 4.78064L40.8867 3.61347Z" fill="#AE8D92"/>
<path d="M42.9209 6.87207H45.3971V8.52288H42.9209V6.87207Z" fill="#AE8D92"/>
<path d="M30.54 6.87207H33.0163V8.52288H30.54V6.87207Z" fill="#AE8D92"/>
<path d="M32.1323 3.02988L33.2991 1.8623L35.0507 3.61266L33.8835 4.78024L32.1323 3.02988Z" fill="#AE8D92"/>
<path d="M37.1431 6.87207H38.7939V8.52288H37.1431V6.87207Z" fill="#AE8D92"/>
<path d="M19.5892 34.0809C20.9671 34.4618 21.1098 34.6037 21.4878 35.9796C21.5866 36.3375 21.9122 36.5854 22.2834 36.5854C22.6546 36.5854 22.9802 36.3375 23.079 35.9796C23.4599 34.6012 23.6025 34.459 24.9777 34.0809C25.3356 33.9822 25.5834 33.6569 25.5834 33.2854C25.5834 32.9142 25.3356 32.5885 24.9777 32.4898C23.6001 32.1093 23.457 31.9674 23.079 30.5915C22.9802 30.2332 22.6546 29.9854 22.2834 29.9854C21.9122 29.9854 21.5866 30.2332 21.4878 30.5915C21.1074 31.9699 20.9643 32.1117 19.5892 32.4898C19.2313 32.5885 18.9834 32.9142 18.9834 33.2854C18.9834 33.6569 19.2313 33.9822 19.5892 34.0809ZM22.2858 32.8404C22.4152 33.0065 22.5647 33.156 22.7308 33.2854C22.5647 33.4147 22.4152 33.5642 22.2858 33.7303C22.1565 33.5642 22.0073 33.4147 21.8409 33.2854C22.0073 33.156 22.1565 33.0065 22.2858 32.8404Z" fill="#AE8D92"/>
<path d="M21.4903 23.6017C21.589 23.9596 21.9147 24.2074 22.2859 24.2074C22.6574 24.2074 22.9831 23.9596 23.0818 23.6017C23.4623 22.2233 23.605 22.0815 24.9801 21.7034C25.338 21.6047 25.5859 21.279 25.5859 20.9074C25.5859 20.5362 25.338 20.2106 24.9801 20.1118C23.6026 19.7314 23.4599 19.5895 23.0818 18.2136C22.9831 17.8553 22.6574 17.6074 22.2859 17.6074C21.9147 17.6074 21.589 17.8553 21.4903 18.2136C21.1098 19.5919 20.9671 19.7338 19.592 20.1118C19.2337 20.2106 18.9858 20.5362 18.9858 20.9074C18.9858 21.279 19.2337 21.6047 19.592 21.7034C20.9651 22.0815 21.1098 22.2257 21.4903 23.6017ZM22.2859 20.4601C22.4152 20.6261 22.5648 20.7756 22.7308 20.905C22.5648 21.0344 22.4152 21.1839 22.2859 21.35C22.1565 21.1839 22.0074 21.0344 21.8409 20.905C22.0074 20.7756 22.1565 20.6261 22.2859 20.4601Z" fill="#AE8D92"/>
<path d="M16.4786 22.7483C16.3799 22.3904 16.0542 22.1426 15.6826 22.1426C15.3115 22.1426 14.9858 22.3904 14.8871 22.7483C14.2781 24.9549 13.9553 25.2773 11.7507 25.8851C11.3924 25.9839 11.1445 26.3095 11.1445 26.6807C11.1445 27.0519 11.3924 27.3775 11.7507 27.4763C13.9577 28.0857 14.2805 28.4085 14.8871 30.6131C14.9858 30.9709 15.3115 31.2188 15.6826 31.2188C16.0542 31.2188 16.3799 30.9709 16.4786 30.6131C17.0876 28.4065 17.4104 28.084 19.615 27.4763C19.9729 27.3775 20.2207 27.0519 20.2207 26.6807C20.2207 26.3095 19.9729 25.9839 19.615 25.8851C17.4104 25.2794 17.086 24.9549 16.4786 22.7483ZM15.6826 28.0764C15.3582 27.49 14.875 27.0071 14.2886 26.6823C14.875 26.3579 15.3582 25.8746 15.6826 25.2882C16.0075 25.8746 16.4907 26.3579 17.0767 26.6823C16.4907 27.0071 16.0075 27.49 15.6826 28.0764Z" fill="#AE8D92"/>
</g>
<defs>
<clipPath id="clip0">
<rect width="50" height="50" fill="white"/>
</clipPath>
</defs>
</svg>
