<svg width="50" height="50" viewBox="0 0 50 50" fill="none" xmlns="http://www.w3.org/2000/svg">
<path d="M47.0703 0H2.92969C1.31416 0 0 1.31416 0 2.92969V47.0703C0 48.6858 1.31416 50 2.92969 50H21.1063C21.6454 50 22.0829 49.5628 22.0829 49.0234C22.0829 48.484 21.6454 48.0469 21.1063 48.0469H2.92969C2.39105 48.0469 1.95312 47.6089 1.95312 47.0703V44.1406H9.57031C10.1097 44.1406 10.5469 43.7035 10.5469 43.1641V14.2578C10.5469 13.7184 10.1097 13.2812 9.57031 13.2812H1.95312V10.5469H48.0469V13.2812H34.9609C34.4215 13.2812 33.9844 13.7184 33.9844 14.2578V26.844C33.9844 27.3834 34.4215 27.8206 34.9609 27.8206H48.0469V29.6013H34.9609C34.4215 29.6013 33.9844 30.0385 33.9844 30.5779V43.1641C33.9844 43.7035 34.4215 44.1406 34.9609 44.1406H48.0469V47.0703C48.0469 47.6089 47.6089 48.0469 47.0703 48.0469H28.9188C28.3794 48.0469 27.9423 48.484 27.9423 49.0234C27.9423 49.5628 28.3794 50 28.9188 50H47.0703C48.6858 50 50 48.6858 50 47.0703V2.92969C50 1.31416 48.6858 0 47.0703 0ZM8.59375 20.7031V23.4375H6.25V20.7031H8.59375ZM1.95312 30.0781H4.29688V32.8125H1.95312V30.0781ZM6.25 30.0781H8.59375V32.8125H6.25V30.0781ZM8.59375 28.125H6.25V25.3906H8.59375V28.125ZM4.29688 28.125H1.95312V25.3906H4.29688V28.125ZM1.95312 34.7656H4.29688V37.5H1.95312V34.7656ZM6.25 34.7656H8.59375V37.5H6.25V34.7656ZM4.29688 23.4375H1.95312V20.7031H4.29688V23.4375ZM1.95312 39.4531H4.29688V42.1875H1.95312V39.4531ZM6.25 42.1875V39.4531H8.59375V42.1875H6.25ZM8.59375 15.2344V18.75H1.95312V15.2344H8.59375ZM1.95312 8.59375V2.92969C1.95312 2.39105 2.39105 1.95312 2.92969 1.95312H47.0703C47.6089 1.95312 48.0469 2.39105 48.0469 2.92969V8.59375H1.95312ZM48.0469 15.2344V17.9688H35.9375V15.2344H48.0469ZM35.9375 25.8675V19.9219H48.0469V25.8675H35.9375ZM48.0469 31.5544V34.2888H35.9375V31.5544H48.0469ZM35.9375 42.1875V36.2419H48.0469V42.1875H35.9375Z" fill="#AE8D92"/>
<path d="M6.83594 4.29688C6.57921 4.29688 6.32706 4.4014 6.14548 4.58298C5.9639 4.76456 5.85938 5.01671 5.85938 5.27344C5.85938 5.53017 5.9639 5.78232 6.14548 5.9639C6.32706 6.14548 6.57921 6.25 6.83594 6.25C7.09267 6.25 7.34482 6.14548 7.5264 5.9639C7.70798 5.78232 7.8125 5.53017 7.8125 5.27344C7.8125 5.01671 7.70798 4.76456 7.5264 4.58298C7.34482 4.4014 7.09267 4.29688 6.83594 4.29688Z" fill="#AE8D92"/>
<path d="M12.0771 4.29688C11.8193 4.29688 11.5683 4.4014 11.3867 4.58298C11.204 4.76456 11.1006 5.01671 11.1006 5.27344C11.1006 5.53017 11.204 5.78232 11.3867 5.9639C11.5683 6.14548 11.8193 6.25 12.0771 6.25C12.3339 6.25 12.5856 6.14548 12.7672 5.9639C12.9492 5.78232 13.0537 5.53017 13.0537 5.27344C13.0537 5.01671 12.9492 4.76456 12.7672 4.58298C12.5856 4.4014 12.3339 4.29688 12.0771 4.29688Z" fill="#AE8D92"/>
<path d="M17.3174 4.29688C17.0607 4.29688 16.8089 4.4014 16.6273 4.58298C16.4453 4.76456 16.3408 5.01671 16.3408 5.27344C16.3408 5.53017 16.4453 5.78232 16.6273 5.9639C16.8089 6.14548 17.0607 6.25 17.3174 6.25C17.5753 6.25 17.8263 6.14548 18.0078 5.9639C18.1906 5.78232 18.2939 5.53017 18.2939 5.27344C18.2939 5.01671 18.1906 4.76456 18.0078 4.58298C17.8263 4.4014 17.5753 4.29688 17.3174 4.29688Z" fill="#AE8D92"/>
<path d="M43.75 4.29688H24.6582C24.1188 4.29688 23.6816 4.73404 23.6816 5.27344C23.6816 5.81284 24.1188 6.25 24.6582 6.25H43.75C44.2894 6.25 44.7266 5.81284 44.7266 5.27344C44.7266 4.73404 44.2894 4.29688 43.75 4.29688Z" fill="#AE8D92"/>
<path d="M22.2382 38.162H31.0547C31.5941 38.162 32.0312 37.7248 32.0312 37.1854V28.3689C32.0312 27.8295 31.5941 27.3923 31.0547 27.3923H27.6745C27.7126 27.0845 27.7344 26.7713 27.7344 26.4531C27.7344 22.2531 24.3172 18.8359 20.1172 18.8359C15.9172 18.8359 12.5 22.2531 12.5 26.4531C12.5 30.6535 15.9172 34.0703 20.1172 34.0703C20.5063 34.0703 20.8881 34.0409 21.2616 33.9845V37.1854C21.2616 37.7248 21.6988 38.162 22.2382 38.162V38.162ZM30.0781 29.3454V36.2088H23.2147V33.4096C24.9962 32.6131 26.4175 31.1536 27.1626 29.3454H30.0781ZM14.4531 26.4531C14.4531 23.33 16.9941 20.7891 20.1172 20.7891C23.2403 20.7891 25.7812 23.33 25.7812 26.4531C25.7812 29.5762 23.2403 32.1172 20.1172 32.1172C16.9941 32.1172 14.4531 29.5762 14.4531 26.4531Z" fill="#AE8D92"/>
<path d="M25.0127 48.0469C24.7548 48.0469 24.5042 48.1514 24.3222 48.333C24.1399 48.5146 24.0361 48.7667 24.0361 49.0234C24.0361 49.2802 24.1399 49.5323 24.3222 49.7139C24.5042 49.8955 24.7548 50 25.0127 50C25.2698 50 25.5216 49.8955 25.7032 49.7139C25.8847 49.5323 25.9893 49.2802 25.9893 49.0234C25.9893 48.7667 25.8847 48.5146 25.7032 48.333C25.5216 48.1514 25.2698 48.0469 25.0127 48.0469Z" fill="#AE8D92"/>
</svg>
