<svg width="50" height="50" viewBox="0 0 50 50" fill="none" xmlns="http://www.w3.org/2000/svg">
<path d="M25 16.1133C25.4045 16.1133 25.7324 15.7854 25.7324 15.3809C25.7324 14.9764 25.4045 14.6484 25 14.6484C24.5955 14.6484 24.2676 14.9764 24.2676 15.3809C24.2676 15.7854 24.5955 16.1133 25 16.1133Z" fill="#AE8D92"/>
<path d="M22.0605 16.1057C22.1924 15.7235 21.9894 15.3067 21.6072 15.1748C21.2249 15.0429 20.8081 15.2459 20.6763 15.6282C20.5444 16.0104 20.7474 16.4272 21.1296 16.5591C21.5119 16.691 21.9287 16.488 22.0605 16.1057Z" fill="#AE8D92"/>
<path d="M18.7053 17.4492C18.8101 17.0585 18.5783 16.6568 18.1875 16.552C17.7967 16.4472 17.3951 16.6791 17.2903 17.0698C17.1855 17.4606 17.4174 17.8623 17.8081 17.967C18.1989 18.0718 18.6006 17.84 18.7053 17.4492Z" fill="#AE8D92"/>
<path d="M15.0908 20.2188C15.4953 20.2188 15.8232 19.8908 15.8232 19.4863C15.8232 19.0818 15.4953 18.7539 15.0908 18.7539C14.6863 18.7539 14.3584 19.0818 14.3584 19.4863C14.3584 19.8908 14.6863 20.2188 15.0908 20.2188Z" fill="#AE8D92"/>
<path d="M12.2296 22.0226C12.0273 22.3729 12.1474 22.8208 12.4977 23.023C12.848 23.2253 13.2959 23.1053 13.4981 22.755C13.7004 22.4047 13.5804 21.9567 13.2301 21.7545C12.8798 21.5523 12.4318 21.6723 12.2296 22.0226V22.0226Z" fill="#AE8D92"/>
<path d="M11.6648 26.4636C12.0543 26.3548 12.2819 25.9508 12.1731 25.5613C12.0643 25.1717 11.6603 24.9442 11.2708 25.053C10.8812 25.1618 10.6536 25.5658 10.7625 25.9553C10.8713 26.3449 11.2753 26.5724 11.6648 26.4636Z" fill="#AE8D92"/>
<path d="M10.9863 30.127C11.3908 30.127 11.7188 29.799 11.7188 29.3945C11.7188 28.99 11.3908 28.6621 10.9863 28.6621C10.5818 28.6621 10.2539 28.99 10.2539 29.3945C10.2539 29.799 10.5818 30.127 10.9863 30.127Z" fill="#AE8D92"/>
<path d="M12.1777 33.2646C12.3072 32.8812 12.1012 32.4654 11.7178 32.3359C11.3343 32.2065 10.9185 32.4124 10.7891 32.7959C10.6596 33.1794 10.8656 33.5952 11.249 33.7246C11.6325 33.8541 12.0483 33.6481 12.1777 33.2646Z" fill="#AE8D92"/>
<path d="M13.2301 37.0367C13.5804 36.8345 13.7004 36.3865 13.4981 36.0362C13.2959 35.6859 12.848 35.5659 12.4977 35.7682C12.1474 35.9704 12.0273 36.4184 12.2296 36.7687C12.4318 37.1189 12.8798 37.239 13.2301 37.0367Z" fill="#AE8D92"/>
<path d="M15.0908 40.0352C15.4953 40.0352 15.8232 39.7072 15.8232 39.3027C15.8232 38.8982 15.4953 38.5703 15.0908 38.5703C14.6863 38.5703 14.3584 38.8982 14.3584 39.3027C14.3584 39.7072 14.6863 40.0352 15.0908 40.0352Z" fill="#AE8D92"/>
<path d="M17.6271 42.1656C17.9773 42.3679 18.4253 42.2478 18.6275 41.8976C18.8298 41.5473 18.7098 41.0993 18.3595 40.8971C18.0092 40.6948 17.5612 40.8148 17.359 41.1651C17.1567 41.5154 17.2768 41.9634 17.6271 42.1656Z" fill="#AE8D92"/>
<path d="M21.6072 43.6045C21.9894 43.4726 22.1924 43.0558 22.0605 42.6736C21.9287 42.2913 21.5119 42.0883 21.1296 42.2202C20.7474 42.3521 20.5444 42.7689 20.6763 43.1511C20.8081 43.5334 21.2249 43.7364 21.6072 43.6045Z" fill="#AE8D92"/>
<path d="M25 44.1406C25.4045 44.1406 25.7324 43.8127 25.7324 43.4082C25.7324 43.0037 25.4045 42.6758 25 42.6758C24.5955 42.6758 24.2676 43.0037 24.2676 43.4082C24.2676 43.8127 24.5955 44.1406 25 44.1406Z" fill="#AE8D92"/>
<path d="M29.3303 43.1438C29.4391 42.7543 29.2116 42.3503 28.822 42.2415C28.4325 42.1326 28.0285 42.3602 27.9197 42.7498C27.8109 43.1393 28.0384 43.5433 28.428 43.6521C28.8175 43.7609 29.2215 43.5333 29.3303 43.1438Z" fill="#AE8D92"/>
<path d="M31.3727 41.8976C31.5749 42.2478 32.0229 42.3679 32.3731 42.1656C32.7234 41.9634 32.8435 41.5154 32.6412 41.1651C32.439 40.8148 31.991 40.6948 31.6407 40.8971C31.2904 41.0993 31.1704 41.5472 31.3727 41.8976Z" fill="#AE8D92"/>
<path d="M34.9092 40.0352C35.3137 40.0352 35.6416 39.7072 35.6416 39.3027C35.6416 38.8982 35.3137 38.5703 34.9092 38.5703C34.5047 38.5703 34.1768 38.8982 34.1768 39.3027C34.1768 39.7072 34.5047 40.0352 34.9092 40.0352Z" fill="#AE8D92"/>
<path d="M36.7697 37.0367C37.12 37.239 37.568 37.1189 37.7702 36.7687C37.9724 36.4184 37.8524 35.9704 37.5021 35.7682C37.1518 35.5659 36.7039 35.6859 36.5016 36.0362C36.2993 36.3865 36.4193 36.8345 36.7697 37.0367Z" fill="#AE8D92"/>
<path d="M38.7331 33.7097C39.1227 33.6009 39.3503 33.1969 39.2414 32.8074C39.1326 32.4178 38.7286 32.1903 38.3391 32.2991C37.9496 32.4079 37.722 32.8119 37.8308 33.2014C37.9396 33.591 38.3436 33.8185 38.7331 33.7097Z" fill="#AE8D92"/>
<path d="M39.0137 30.127C39.4182 30.127 39.7461 29.799 39.7461 29.3945C39.7461 28.99 39.4182 28.6621 39.0137 28.6621C38.6092 28.6621 38.2812 28.99 38.2812 29.3945C38.2812 29.799 38.6092 30.127 39.0137 30.127Z" fill="#AE8D92"/>
<path d="M39.2578 25.9951C39.3873 25.6116 39.1813 25.1958 38.7979 25.0664C38.4144 24.937 37.9986 25.1429 37.8691 25.5264C37.7397 25.9098 37.9456 26.3256 38.3291 26.4551C38.7126 26.5845 39.1284 26.3786 39.2578 25.9951Z" fill="#AE8D92"/>
<path d="M36.7701 21.7545C36.4198 21.9567 36.2998 22.4047 36.5021 22.755C36.7043 23.1053 37.1522 23.2253 37.5025 23.023C37.8528 22.8208 37.9729 22.3729 37.7706 22.0226C37.5684 21.6723 37.1204 21.5523 36.7701 21.7545Z" fill="#AE8D92"/>
<path d="M34.9092 20.2188C35.3137 20.2188 35.6416 19.8908 35.6416 19.4863C35.6416 19.0818 35.3137 18.7539 34.9092 18.7539C34.5047 18.7539 34.1768 19.0818 34.1768 19.4863C34.1768 19.8908 34.5047 20.2188 34.9092 20.2188Z" fill="#AE8D92"/>
<path d="M32.2021 17.9617C32.5929 17.8569 32.8247 17.4552 32.72 17.0645C32.6152 16.6737 32.2135 16.4419 31.8228 16.5466C31.432 16.6514 31.2002 17.0531 31.3049 17.4438C31.4097 17.8346 31.8114 18.0664 32.2021 17.9617Z" fill="#AE8D92"/>
<path d="M28.8557 16.542C29.238 16.4101 29.4409 15.9933 29.3091 15.6111C29.1772 15.2288 28.7604 15.0258 28.3782 15.1577C27.9959 15.2896 27.7929 15.7064 27.9248 16.0886C28.0567 16.4709 28.4735 16.6739 28.8557 16.542Z" fill="#AE8D92"/>
<path d="M25 30.127C25.4045 30.127 25.7324 29.799 25.7324 29.3945C25.7324 28.99 25.4045 28.6621 25 28.6621C24.5955 28.6621 24.2676 28.99 24.2676 29.3945C24.2676 29.799 24.5955 30.127 25 30.127Z" fill="#AE8D92"/>
<path d="M46.3029 12.2348C46.5889 11.9487 46.5889 11.485 46.3029 11.199L43.1955 8.0916C42.9095 7.80557 42.4457 7.80557 42.1597 8.0916L37.3448 12.9065C34.8316 11.0201 31.8751 9.69394 28.6621 9.11523V7.32422H29.3945C29.799 7.32422 30.1269 6.99629 30.1269 6.5918V0.732422C30.1269 0.32793 29.799 0 29.3945 0H20.6054C20.201 0 19.873 0.32793 19.873 0.732422V6.5918C19.873 6.99629 20.201 7.32422 20.6054 7.32422H21.3379V9.11523C18.1248 9.69394 15.1683 11.0201 12.6552 12.9065L7.84011 8.0915C7.55408 7.80547 7.09031 7.80547 6.80437 8.0915L3.69695 11.1989C3.41091 11.485 3.41091 11.9487 3.69695 12.2347L8.51189 17.0496C5.92742 20.4927 4.39441 24.7679 4.39441 29.3945C4.39441 40.7564 13.638 50 24.9999 50C36.3618 50 45.6053 40.7564 45.6053 29.3945C45.6053 24.7679 44.0723 20.4927 41.488 17.0497L46.3029 12.2348ZM42.6776 9.64521L44.7492 11.7168L42.6776 13.7884L40.606 11.7168L42.6776 9.64521ZM24.2675 5.85938V1.46484H25.7323V5.85938H24.2675ZM28.662 5.85938H27.1971V1.46484H28.662V5.85938ZM21.3378 1.46484H22.8026V5.85938H21.3378V1.46484ZM22.8026 7.32422H27.1971V8.90635C26.475 8.82949 25.7421 8.78906 24.9999 8.78906C24.2577 8.78906 23.5248 8.82949 22.8026 8.90635V7.32422ZM7.32214 9.64521L9.39373 11.7168L7.32214 13.7885L5.25056 11.7168L7.32214 9.64521ZM8.35798 14.8242L10.4296 12.7526L11.5089 13.8319C10.7706 14.4729 10.0781 15.1652 9.43728 15.9035L8.35798 14.8242ZM24.9999 48.5352C14.4457 48.5352 5.85925 39.9487 5.85925 29.3945C5.85925 18.8403 14.4457 10.2539 24.9999 10.2539C35.5541 10.2539 44.1405 18.8403 44.1405 29.3945C44.1405 39.9487 35.5541 48.5352 24.9999 48.5352ZM38.4908 13.8319L39.5701 12.7526L41.6417 14.8242L40.5624 15.9035C39.9216 15.1652 39.2292 14.4729 38.4908 13.8319Z" fill="#AE8D92"/>
<path d="M25 11.7188C20.8442 11.7188 16.806 13.1905 13.629 15.8629C13.3194 16.1232 13.2796 16.5853 13.5399 16.8948C13.8003 17.2044 14.2623 17.2443 14.5719 16.9838C17.4854 14.5332 21.1888 13.1836 25 13.1836C33.9388 13.1836 41.2109 20.4558 41.2109 29.3945C41.2109 38.3333 33.9388 45.6055 25 45.6055C16.0612 45.6055 8.78906 38.3333 8.78906 29.3945C8.78906 25.5833 10.1387 21.8799 12.5894 18.9665C12.8498 18.6569 12.8099 18.1949 12.5004 17.9346C12.1907 17.6741 11.7288 17.714 11.4685 18.0236C8.796 21.2005 7.32422 25.2388 7.32422 29.3945C7.32422 39.141 15.2535 47.0703 25 47.0703C34.7465 47.0703 42.6758 39.141 42.6758 29.3945C42.6758 19.648 34.7465 11.7188 25 11.7188Z" fill="#AE8D92"/>
<path d="M22.8027 19.7754V26.4668C21.9139 27.1355 21.3379 28.1989 21.3379 29.3945C21.3379 30.5901 21.9139 31.6534 22.8027 32.3223V36.084C22.8027 37.2956 23.7884 38.2812 25 38.2812C26.2116 38.2812 27.1973 37.2956 27.1973 36.084V32.3223C28.0861 31.6535 28.6621 30.5901 28.6621 29.3945C28.6621 28.1989 28.0861 27.1356 27.1973 26.4668V19.7754C27.1973 18.5638 26.2116 17.5781 25 17.5781C23.7884 17.5781 22.8027 18.5638 22.8027 19.7754ZM25.7324 36.084C25.7324 36.4879 25.4039 36.8164 25 36.8164C24.5961 36.8164 24.2676 36.4879 24.2676 36.084V32.9829C24.5043 33.0312 24.7492 33.0566 25 33.0566C25.2508 33.0566 25.4957 33.0312 25.7324 32.9829V36.084ZM25 31.5918C23.7884 31.5918 22.8027 30.6062 22.8027 29.3945C22.8027 28.1829 23.7884 27.1973 25 27.1973C26.2116 27.1973 27.1973 28.1829 27.1973 29.3945C27.1973 30.6062 26.2116 31.5918 25 31.5918ZM25 19.043C25.4039 19.043 25.7324 19.3715 25.7324 19.7754V25.8062C25.4957 25.7579 25.2508 25.7324 25 25.7324C24.7492 25.7324 24.5043 25.7579 24.2676 25.8062V19.7754C24.2676 19.3715 24.5961 19.043 25 19.043Z" fill="#AE8D92"/>
</svg>
