<svg width="50" height="50" viewBox="0 0 50 50" fill="none" xmlns="http://www.w3.org/2000/svg">
<path d="M49.4713 42.0135L40.3584 32.9006C39.7022 32.2445 38.6639 32.1999 37.9543 32.7648L35.1826 29.9927C37.2612 26.9207 38.4766 23.2185 38.4766 19.2383C38.4766 15.7166 37.516 12.2715 35.6991 9.27544C35.4191 8.81424 34.8186 8.66737 34.3575 8.94661C33.8963 9.22661 33.7494 9.82704 34.029 10.2882C35.6609 12.9791 36.5234 16.074 36.5234 19.2383C36.5234 23.9353 34.6394 28.1998 31.5884 31.3183L31.3183 31.5884C28.1998 34.6394 23.9353 36.5234 19.2383 36.5234C9.70726 36.5234 1.95312 28.7693 1.95312 19.2383C1.95312 9.70726 9.70726 1.95312 19.2383 1.95312C22.4026 1.95312 25.4978 2.81563 28.1887 4.44794C28.6495 4.72755 29.2503 4.58031 29.53 4.11911C29.8096 3.65829 29.6623 3.05748 29.2015 2.77786C26.2054 0.960541 22.76 0 19.2383 0C8.63037 0 0 8.63037 0 19.2383C0 29.8462 8.63037 38.4766 19.2383 38.4766C23.2185 38.4766 26.9207 37.2612 29.9927 35.1826L32.7648 37.9543C32.1999 38.6639 32.2445 39.7022 32.9006 40.3584L42.0135 49.4713C42.366 49.8238 42.8291 50 43.2922 50C43.7553 50 44.2184 49.8238 44.5713 49.4713L49.4713 44.5713C50.1762 43.866 50.1762 42.7185 49.4713 42.0135V42.0135ZM31.8768 33.7299C32.5428 33.1486 33.1684 32.5226 33.7486 31.8558L34.0481 31.6208L36.5646 34.137L34.137 36.5646L31.6204 34.0481L31.8768 33.7299ZM43.2922 47.9881L34.3838 39.0797L39.0797 34.3842L47.9877 43.2922L43.2922 47.9881Z" fill="#AE8D92"/>
<path d="M32.1509 7.30124C32.408 7.30124 32.6598 7.19786 32.8413 7.0159C33.0229 6.83356 33.1274 6.58255 33.1274 6.32544C33.1274 6.06795 33.0233 5.81694 32.8413 5.63422C32.6598 5.45264 32.408 5.34888 32.1509 5.34888C31.8941 5.34888 31.6424 5.45264 31.4608 5.63422C31.2788 5.81694 31.1743 6.06871 31.1743 6.32544C31.1743 6.58255 31.2788 6.83356 31.4608 7.0159C31.6424 7.19786 31.8941 7.30124 32.1509 7.30124Z" fill="#AE8D92"/>
<path d="M22.6225 20.1922C25.0651 18.8261 26.4441 16.1417 26.1358 13.3528C25.7834 10.1595 23.2096 7.58575 20.0163 7.23327C18.0464 7.01545 16.0761 7.64487 14.6082 8.9598C13.1804 10.2381 12.3388 12.0699 12.298 13.9853C12.2809 14.8039 12.5967 15.6065 13.1643 16.1867C13.7144 16.7494 14.4453 17.0599 15.2224 17.0607H15.2266C16.8394 17.0607 18.1532 15.75 18.1559 14.1367C18.1563 13.9914 18.1769 13.7842 18.2741 13.6225C18.5198 13.2128 18.9211 13.0064 19.3731 13.0568C19.8469 13.1094 20.2597 13.5218 20.3119 13.996C20.3612 14.4392 20.1456 14.8638 19.763 15.0778C17.6321 16.2695 16.308 18.4866 16.308 20.8643C16.308 22.3036 17.4792 23.4747 18.9184 23.4747H19.557C20.9963 23.4747 22.1674 22.3036 22.1674 20.8643C22.1674 20.5988 22.3334 20.3535 22.6225 20.1922ZM20.2143 20.8647C20.2143 21.2271 19.9194 21.522 19.557 21.522H18.9184C18.556 21.522 18.2615 21.2271 18.2615 20.8647C18.2615 19.1935 19.2022 17.6295 20.7163 16.7826C21.7856 16.1848 22.3887 15.0069 22.2536 13.7816C22.1022 12.4129 20.9562 11.2669 19.5879 11.1159C19.4723 11.1029 19.3571 11.0968 19.2431 11.0968C18.1662 11.0968 17.1747 11.6591 16.5995 12.6173C16.3374 13.0541 16.2039 13.5638 16.2031 14.1333C16.202 14.6708 15.7641 15.1079 15.2266 15.1079C15.2262 15.1079 15.2254 15.1079 15.225 15.1079C14.9069 15.1076 14.6883 14.9519 14.5609 14.8215C14.3576 14.6136 14.2447 14.324 14.2508 14.0265C14.2801 12.6501 14.8852 11.3337 15.9109 10.4147C16.9661 9.46982 18.3836 9.01816 19.8019 9.17457C22.0942 9.42748 23.9416 11.2749 24.1945 13.5676C24.4166 15.5745 23.4251 17.5055 21.6692 18.4874C20.7583 18.9966 20.2143 19.8855 20.2143 20.8647Z" fill="#AE8D92"/>
<path d="M19.2384 25.4272C17.6232 25.4272 16.3091 26.7414 16.3091 28.3566C16.3091 29.9717 17.6232 31.2855 19.2384 31.2855C20.8535 31.2855 22.1673 29.9717 22.1673 28.3566C22.1673 26.7414 20.8535 25.4272 19.2384 25.4272ZM19.2384 29.3324C18.7001 29.3324 18.2622 28.8948 18.2622 28.3566C18.2622 27.8179 18.7001 27.3804 19.2384 27.3804C19.7766 27.3804 20.2146 27.8183 20.2146 28.3566C20.2146 28.8944 19.7766 29.3324 19.2384 29.3324V29.3324Z" fill="#AE8D92"/>
</svg>
