<svg width="50" height="50" viewBox="0 0 50 50" fill="none" xmlns="http://www.w3.org/2000/svg">
<path d="M16.4109 10.1006C16.2557 10.1006 16.1039 10.1471 15.9753 10.2333L14.4079 11.2881C14.2526 11.3926 14.1431 11.5498 14.0939 11.7253L12.5024 11.7192L12.4971 13.2817L14.1206 13.287C14.1774 13.4278 14.2698 13.5529 14.3987 13.641L15.9578 14.7076C16.0875 14.7957 16.2416 14.8442 16.3976 14.8442L46.0923 14.9002H46.0939C46.5242 14.9002 46.8736 14.5527 46.8751 14.1224L46.8782 13.2817H48.4376V11.7192H46.8839L46.8869 10.941C46.8877 10.7331 46.8057 10.5339 46.6596 10.3871C46.5135 10.2402 46.3144 10.1574 46.1072 10.1567L16.4132 10.1006C16.4125 10.1006 16.4117 10.1006 16.4109 10.1006V10.1006ZM39.0626 13.2817H37.5001V11.7192H39.0626V13.2817ZM34.3751 11.7192H35.9376V13.2817H34.3751V11.7192ZM45.3157 13.3362L40.6251 13.3278V11.7089L45.3214 11.7176L45.3157 13.3362ZM32.8126 11.694V13.3129L16.6414 13.2824L15.6228 12.5847L15.6236 12.3528L16.6486 11.6631L32.8126 11.694Z" fill="#AE8D92"/>
<path d="M2.34375 8.59375H36.7188C37.151 8.59375 37.5 8.24471 37.5 7.8125V0.78125C37.5 0.349045 37.151 0 36.7188 0H2.34375C1.91269 0 1.5625 0.349045 1.5625 0.78125V7.8125C1.5625 8.24471 1.91269 8.59375 2.34375 8.59375ZM3.125 1.5625H35.9375V7.03125H34.375V4.6875H32.8125V7.03125H31.25V5.46875H29.6875V7.03125H28.125V4.6875H26.5625V7.03125H25V5.46875H23.4375V7.03125H21.875V5.46875H20.3125V7.03125H18.75V4.6875H17.1875V7.03125H15.625V5.46875H14.0625V7.03125H12.5V5.46875H10.9375V7.03125H9.375V4.6875H7.8125V7.03125H6.25V5.46875H4.6875V7.03125H3.125V1.5625Z" fill="#AE8D92"/>
<path d="M49.2188 16.4062H9.375V14.0625C9.375 13.6303 9.02481 13.2812 8.59375 13.2812H4.6875C2.10228 13.2812 0 15.3835 0 17.9688V45.3125C0 47.8977 2.10228 50 4.6875 50H49.2188C49.651 50 50 49.651 50 49.2188V17.1875C50 16.7553 49.651 16.4062 49.2188 16.4062ZM1.5625 17.9688C1.5625 16.2453 2.96402 14.8438 4.6875 14.8438H7.8125V41.8209C6.9828 41.0782 5.88684 40.625 4.6875 40.625C3.48816 40.625 2.3922 41.0782 1.5625 41.8209V17.9688ZM48.4375 48.4375H4.6875C2.96402 48.4375 1.5625 47.036 1.5625 45.3125C1.5625 43.589 2.96402 42.1875 4.6875 42.1875C6.41098 42.1875 7.8125 43.589 7.8125 45.3125C7.8125 45.7447 8.16269 46.0938 8.59375 46.0938C9.02481 46.0938 9.375 45.7447 9.375 45.3125V17.9688H48.4375V48.4375Z" fill="#AE8D92"/>
<path d="M11.7188 34.375H28.9062C29.3385 34.375 29.6875 34.026 29.6875 33.5938V20.3125C29.6875 19.8803 29.3385 19.5312 28.9062 19.5312H11.7188C11.2877 19.5312 10.9375 19.8803 10.9375 20.3125V33.5938C10.9375 34.026 11.2877 34.375 11.7188 34.375ZM12.5 21.0938H28.125V32.8125H12.5V21.0938Z" fill="#AE8D92"/>
<path d="M11.7188 46.875H19.5312C19.9623 46.875 20.3125 46.526 20.3125 46.0938V36.7188C20.3125 36.2865 19.9623 35.9375 19.5312 35.9375H11.7188C11.2877 35.9375 10.9375 36.2865 10.9375 36.7188V46.0938C10.9375 46.526 11.2877 46.875 11.7188 46.875ZM12.5 37.5H18.75V45.3125H12.5V37.5Z" fill="#AE8D92"/>
<path d="M32.0312 40.625H46.0938C46.526 40.625 46.875 40.276 46.875 39.8438V26.5625C46.875 26.1303 46.526 25.7812 46.0938 25.7812H32.0312C31.599 25.7812 31.25 26.1303 31.25 26.5625V39.8438C31.25 40.276 31.599 40.625 32.0312 40.625ZM32.8125 27.3438H45.3125V39.0625H32.8125V27.3438Z" fill="#AE8D92"/>
<path d="M32.0312 46.875H46.0938C46.526 46.875 46.875 46.526 46.875 46.0938V42.9688C46.875 42.5365 46.526 42.1875 46.0938 42.1875H32.0312C31.599 42.1875 31.25 42.5365 31.25 42.9688V46.0938C31.25 46.526 31.599 46.875 32.0312 46.875ZM32.8125 43.75H45.3125V45.3125H32.8125V43.75Z" fill="#AE8D92"/>
<path d="M31.25 22.6562H35.9375V24.2188H31.25V22.6562Z" fill="#AE8D92"/>
<path d="M37.5 22.6562H46.875V24.2188H37.5V22.6562Z" fill="#AE8D92"/>
<path d="M42.1875 19.5312H46.875V21.0938H42.1875V19.5312Z" fill="#AE8D92"/>
<path d="M31.25 19.5312H40.625V21.0938H31.25V19.5312Z" fill="#AE8D92"/>
<path d="M21.875 35.9375H29.6875V37.5H21.875V35.9375Z" fill="#AE8D92"/>
<path d="M21.875 45.3125H29.6875V46.875H21.875V45.3125Z" fill="#AE8D92"/>
<path d="M21.875 39.0625H26.5625V40.625H21.875V39.0625Z" fill="#AE8D92"/>
<path d="M28.125 39.0625H29.6875V40.625H28.125V39.0625Z" fill="#AE8D92"/>
<path d="M21.875 42.1875H23.4375V43.75H21.875V42.1875Z" fill="#AE8D92"/>
<path d="M25 42.1875H29.6875V43.75H25V42.1875Z" fill="#AE8D92"/>
</svg>
