<svg width="50" height="50" viewBox="0 0 50 50" fill="none" xmlns="http://www.w3.org/2000/svg">
<path d="M36.9942 8.85278C36.5587 9.10942 36.4131 9.67046 36.6694 10.1059C37.8894 12.1784 38.5343 14.552 38.5343 16.971C38.5343 21.1658 36.6377 25.0565 33.3306 27.6466C31.4561 29.1149 30.1131 31.1516 29.4954 33.4407H20.4657C19.8489 31.1505 18.5074 29.1149 16.636 27.6509C13.326 25.0614 11.4277 21.1689 11.4275 16.9721C11.4266 9.50052 17.5048 3.42026 24.9764 3.41769H24.9804C27.3854 3.41769 29.7472 4.0557 31.8108 5.26191C32.2474 5.51682 32.8082 5.37005 33.0631 4.93375C33.3183 4.49687 33.1713 3.93668 32.735 3.68119C30.3915 2.31104 27.7099 1.58691 24.9804 1.58691C24.979 1.58691 24.9776 1.58691 24.9759 1.58691C16.4955 1.58978 9.59639 8.49143 9.59668 16.9721C9.59668 21.7357 11.7513 26.1534 15.5079 29.0926C17.0047 30.2636 18.0936 31.874 18.6332 33.6908C17.5229 34.1666 16.743 35.2701 16.743 36.553C16.743 38.0167 17.7589 39.2469 19.1225 39.5774V42.594C19.1225 45.8244 21.7503 48.4523 24.9807 48.4523C28.2108 48.4523 30.8387 45.8244 30.8387 42.594V39.5774C32.2028 39.2469 33.2188 38.0167 33.2188 36.553C33.2188 35.2704 32.4388 34.1669 31.3285 33.6908C31.8684 31.8752 32.9593 30.263 34.4593 29.0883C38.2124 26.1486 40.3648 21.7323 40.3648 16.971C40.3648 14.2258 39.6329 11.5307 38.2473 9.17751C37.9907 8.74206 37.4299 8.59643 36.9942 8.85278V8.85278ZM29.0082 41.6788H20.9532V39.6649H29.0082V41.6788ZM24.9807 46.6215C23.0747 46.6215 21.4751 45.2906 21.0594 43.5096H28.9018C28.4863 45.2906 26.8867 46.6215 24.9807 46.6215ZM30.1068 37.8344H19.8549C19.1482 37.8344 18.5732 37.2596 18.5732 36.553C18.5732 35.8463 19.1482 35.2715 19.8549 35.2715H30.1068C30.8135 35.2715 31.388 35.8463 31.388 36.553C31.388 37.2596 30.8135 37.8344 30.1068 37.8344Z" fill="#AE8D92"/>
<path d="M34.5726 7.39581C34.7517 7.57605 34.9865 7.66618 35.222 7.66618C35.4552 7.66618 35.6887 7.57748 35.8672 7.4001C36.0474 7.22128 36.137 6.98639 36.1376 6.75093C36.1376 6.51775 36.0489 6.28429 35.8715 6.10576L35.8637 6.09804C35.5075 5.73955 34.9282 5.73755 34.5691 6.09375C34.3894 6.27256 34.2993 6.50745 34.2993 6.74263C34.2987 6.97638 34.3874 7.20955 34.5648 7.38837L34.5726 7.39581Z" fill="#AE8D92"/>
<path d="M32.3563 24.6372C32.5388 24.2896 32.6349 23.8973 32.6349 23.5031V20.3697C32.6349 19.9085 32.3815 19.4879 31.9735 19.2722C31.5652 19.057 31.0754 19.0848 30.694 19.3449C30.486 19.4871 30.2414 19.5626 29.9873 19.5626H29.8972C29.204 19.5626 28.6398 18.9984 28.6398 18.3052C28.6398 17.6122 29.204 17.048 29.8972 17.048H29.9873C30.2414 17.048 30.486 17.1233 30.6946 17.2655C31.0754 17.5255 31.5652 17.5539 31.9735 17.3381C32.3815 17.123 32.6349 16.7018 32.6349 16.2406V13.111C32.6349 11.762 31.5375 10.6645 30.1882 10.6645H27.9274C28.0281 10.3569 28.0802 10.0336 28.0802 9.70777V9.61765C28.0802 7.91505 26.6949 6.53003 24.9926 6.53003C23.2897 6.53003 21.9044 7.91505 21.9044 9.61765V9.70777C21.9044 10.0339 21.957 10.3569 22.0571 10.6645H19.7964C18.4471 10.6645 17.3496 11.762 17.3496 13.111V16.2441C17.3496 16.7058 17.6031 17.1264 18.0111 17.3419C18.4193 17.5573 18.9094 17.5295 19.2905 17.2692C19.4985 17.1267 19.7431 17.0517 19.9972 17.0517H20.0873C20.7806 17.0517 21.3447 17.6157 21.3447 18.3089C21.3447 19.0021 20.7806 19.5663 20.0873 19.5663H19.9972C19.7431 19.5663 19.4988 19.4908 19.29 19.3483C18.9092 19.0885 18.4193 19.0605 18.0111 19.2759C17.6031 19.4913 17.3496 19.9119 17.3496 20.3737V23.5031C17.3496 24.8518 18.4471 25.9495 19.7964 25.9495H22.0571C21.957 26.2571 21.9044 26.5804 21.9044 26.906V26.9961C21.9044 28.699 23.2897 30.084 24.9926 30.084C26.6949 30.084 28.0802 28.699 28.0802 26.9961V26.906C28.0802 26.5798 28.0281 26.2571 27.9274 25.9495H30.1882C31.1014 25.9498 31.9323 25.4469 32.3563 24.6372ZM26.9541 24.1191C26.4734 24.1191 26.0446 24.388 25.8354 24.8214C25.6269 25.2523 25.6821 25.753 25.9788 26.1275C26.1559 26.3507 26.2494 26.6205 26.2494 26.9066V26.9967C26.2494 27.6896 25.6852 28.2535 24.992 28.2535C24.299 28.2535 23.7351 27.6896 23.7351 26.9967V26.9066C23.7351 26.6205 23.8284 26.3509 24.0055 26.1275C24.3022 25.753 24.3574 25.2523 24.1491 24.8214C23.9397 24.3883 23.5111 24.1191 23.0302 24.1191H19.7961C19.4565 24.1191 19.1798 23.8427 19.1798 23.5034V21.2878C19.4439 21.3602 19.7183 21.3968 19.9966 21.3968H20.0868C21.7899 21.3968 23.175 20.0115 23.175 18.3092C23.175 16.6066 21.7896 15.221 20.0868 15.221H19.9966C19.7183 15.221 19.4439 15.2582 19.1798 15.3306V13.1113C19.1798 12.7716 19.4565 12.4953 19.7961 12.4953H23.0302C23.5108 12.4953 23.9397 12.2263 24.1491 11.7929C24.3574 11.3617 24.3025 10.8611 24.0055 10.4868C23.8284 10.2637 23.7351 9.99388 23.7351 9.70777V9.61765C23.7351 8.92471 24.299 8.36052 24.992 8.36052C25.6852 8.36052 26.2494 8.92471 26.2494 9.61765V9.70777C26.2494 9.99388 26.1559 10.2631 25.9788 10.4868C25.6821 10.8611 25.6269 11.3617 25.8354 11.7929C26.0446 12.2258 26.4734 12.4953 26.9541 12.4953H30.1882C30.5278 12.4953 30.8042 12.7716 30.8042 13.1113V15.3268C30.5404 15.2547 30.266 15.2175 29.9873 15.2175H29.8972C28.1946 15.2175 26.8093 16.6026 26.8093 18.3052C26.8093 20.0078 28.1946 21.3934 29.8972 21.3934H29.9873C30.266 21.3934 30.5404 21.3562 30.8042 21.2838V23.5034C30.8042 23.6041 30.7807 23.6999 30.7346 23.788C30.6276 23.9923 30.4185 24.1191 30.1882 24.1191H26.9541Z" fill="#AE8D92"/>
<path d="M42.5548 13.7502C42.7894 13.7502 43.0235 13.6606 43.2023 13.4818L44.5959 12.0882C44.9535 11.7308 44.9535 11.1512 44.5959 10.7939C44.2385 10.4362 43.6589 10.4362 43.3013 10.7939L41.9077 12.1877C41.5503 12.5448 41.5503 13.1247 41.9077 13.4818C42.0865 13.6606 42.3208 13.7502 42.5548 13.7502Z" fill="#AE8D92"/>
<path d="M43.2022 20.4018C42.8449 20.0441 42.2655 20.0441 41.9079 20.4018C41.5502 20.7588 41.5502 21.3388 41.9079 21.6958L43.3015 23.0897C43.4803 23.2685 43.7143 23.3578 43.9486 23.3578C44.1827 23.3578 44.417 23.2685 44.5958 23.0897C44.9534 22.7324 44.9534 22.1527 44.5958 21.7954L43.2022 20.4018Z" fill="#AE8D92"/>
<path d="M47.4981 16.0264H42.6606C42.1551 16.0264 41.7451 16.4364 41.7451 16.9416C41.7451 17.4472 42.1551 17.8571 42.6606 17.8571H47.4981C48.0033 17.8571 48.4133 17.4472 48.4133 16.9416C48.4133 16.4364 48.0033 16.0264 47.4981 16.0264Z" fill="#AE8D92"/>
<path d="M6.64981 10.7939C6.29218 10.4369 5.71282 10.4369 5.35519 10.7939C4.99814 11.1513 4.99814 11.7309 5.35519 12.0885L6.74909 13.4824C6.9279 13.6607 7.16193 13.7502 7.39625 13.7502C7.63057 13.7502 7.86489 13.6607 8.04313 13.4824C8.40076 13.1248 8.40076 12.5454 8.04313 12.1878L6.64981 10.7939Z" fill="#AE8D92"/>
<path d="M6.74909 20.4018L5.35519 21.7954C4.99814 22.1527 4.99814 22.7324 5.35519 23.0897C5.53401 23.2685 5.76833 23.3578 6.00265 23.3578C6.23696 23.3578 6.471 23.2685 6.64981 23.0897L8.04313 21.6958C8.40076 21.3388 8.40076 20.7588 8.04313 20.4018C7.68607 20.0441 7.10614 20.0441 6.74909 20.4018Z" fill="#AE8D92"/>
<path d="M8.206 16.9416C8.206 16.4364 7.7963 16.0264 7.29076 16.0264H2.45333C1.94779 16.0264 1.53809 16.4364 1.53809 16.9416C1.53809 17.4472 1.94779 17.8571 2.45333 17.8571H7.29076C7.7963 17.8571 8.206 17.4472 8.206 16.9416Z" fill="#AE8D92"/>
</svg>
