<svg width="50" height="50" viewBox="0 0 50 50" fill="none" xmlns="http://www.w3.org/2000/svg">
<path d="M46.7742 6.85471V3.62891H3.22581V6.85471H0V41.5321H19.4119C19.8041 44.2645 22.1605 46.3708 25 46.3708C27.8395 46.3708 30.1951 44.2645 30.5881 41.5321H50V6.85471H46.7742ZM45.1613 5.24181V36.6934H25.8065V5.24181H45.1613ZM4.83871 5.24181H24.1935V36.6934H4.83871V5.24181ZM48.3871 39.9192H29.0323V40.7257C29.0323 42.9489 27.2233 44.7579 25 44.7579C22.7767 44.7579 20.9677 42.9489 20.9677 40.7257V39.9192H1.6129V8.46762H3.22581V38.3063H46.7742V8.46762H48.3871V39.9192Z" fill="#AE8D92"/>
<path d="M14.5162 6.85449C10.0693 6.85449 6.45166 10.4721 6.45166 14.919V18.9513C6.45166 20.6382 7.75821 22.0117 9.41049 22.1503C10.313 24.0684 12.2598 25.4029 14.5162 25.4029C16.7725 25.4029 18.7193 24.0684 19.6219 22.1503C21.2741 22.0117 22.5807 20.6382 22.5807 18.9513V14.919C22.5807 10.4721 18.9631 6.85449 14.5162 6.85449ZM14.5162 8.4674C18.0735 8.4674 20.9678 11.3616 20.9678 14.919V16.174C20.7177 16.0279 20.4484 15.9141 20.1613 15.84V14.919H16.9355C14.6768 14.919 12.4378 15.5361 10.4839 16.6619V14.919H8.87102V15.84C8.58395 15.9149 8.31461 16.0279 8.06456 16.174V14.919C8.06456 11.3616 10.9588 8.4674 14.5162 8.4674ZM8.06456 18.9513C8.06456 18.3571 8.391 17.8424 8.87102 17.5624V19.7577C8.87102 19.9601 8.88322 20.1602 8.90409 20.3578C8.40636 20.0826 8.06456 19.5593 8.06456 18.9513ZM14.5162 23.79C12.2929 23.79 10.4839 21.981 10.4839 19.7577V18.5681C12.3677 17.2576 14.6394 16.5319 16.9355 16.5319H18.5484V19.7577C18.5484 21.981 16.7394 23.79 14.5162 23.79ZM20.1283 20.3578C20.1491 20.1602 20.1613 19.9601 20.1613 19.7577V17.5624C20.6413 17.8424 20.9678 18.3571 20.9678 18.9513C20.9678 19.5593 20.626 20.0826 20.1283 20.3578Z" fill="#AE8D92"/>
<path d="M30.3783 31.9586C31.2816 33.877 33.2276 35.2112 35.4839 35.2112C37.7403 35.2112 39.6863 33.8763 40.5896 31.9586C42.2419 31.82 43.5485 30.4473 43.5485 28.7595V22.9837C43.5485 18.9821 40.2927 15.7256 36.2904 15.7256C34.0179 15.7256 31.847 16.8112 30.4838 18.6297L30.1428 19.0837C28.5035 19.7417 27.4194 21.3298 27.4194 23.1144V28.7595C27.4194 30.4473 28.726 31.82 30.3783 31.9586ZM29.0323 28.7595C29.0323 28.1649 29.3588 27.6507 29.8388 27.3707V29.566C29.8388 29.7684 29.851 29.9684 29.8719 30.1657C29.3741 29.8909 29.0323 29.3667 29.0323 28.7595V28.7595ZM35.4839 33.5983C33.2607 33.5983 31.4517 31.7893 31.4517 29.566V26.3378C32.3838 26.8627 33.4387 27.1466 34.5389 27.1466H34.6775V26.7182C35.3961 26.9966 36.1648 27.1466 36.9582 27.1466H37.0969V26.7182C37.8155 26.9966 38.5841 27.1466 39.3776 27.1466H39.5162V29.566C39.5162 31.7893 37.7072 33.5983 35.4839 33.5983ZM41.096 30.1657C41.1169 29.9684 41.1291 29.7684 41.1291 29.566V27.3707C41.6091 27.6507 41.9356 28.1649 41.9356 28.7595C41.9356 29.3667 41.5938 29.8909 41.096 30.1657ZM30.9 20.5233L31.1386 20.4434L31.7734 19.5964C32.8346 18.1827 34.5227 17.3385 36.2904 17.3385C39.4024 17.3385 41.9356 19.8709 41.9356 22.9837V25.9819C41.6855 25.8362 41.4162 25.7224 41.1291 25.6483V23.7901H39.5162V25.5337H39.3776C38.1218 25.5337 36.9413 25.0451 36.0541 24.1571L35.0736 25.1376C34.5444 24.9053 34.0557 24.578 33.6348 24.1571L32.6543 25.1376C32.2203 24.9474 31.8163 24.6895 31.4517 24.3717V23.7901H29.8388V25.6483C29.5517 25.7224 29.2824 25.8362 29.0323 25.9819V23.1144C29.0323 21.937 29.7833 20.8951 30.9 20.5233Z" fill="#AE8D92"/>
<path d="M6.45166 27.0166H22.5807V28.6295H6.45166V27.0166Z" fill="#AE8D92"/>
<path d="M15.3228 30.2422H22.5808V31.8551H15.3228V30.2422Z" fill="#AE8D92"/>
<path d="M6.45166 30.2422H13.7097V31.8551H6.45166V30.2422Z" fill="#AE8D92"/>
<path d="M27.4194 6.85449H43.5485V8.4674H27.4194V6.85449Z" fill="#AE8D92"/>
<path d="M27.4194 13.3066H43.5485V14.9195H27.4194V13.3066Z" fill="#AE8D92"/>
<path d="M36.2905 10.0811H43.5486V11.694H36.2905V10.0811Z" fill="#AE8D92"/>
<path d="M27.4194 10.0811H34.6775V11.694H27.4194V10.0811Z" fill="#AE8D92"/>
<path d="M6.45166 33.4678H22.5807V35.0807H6.45166V33.4678Z" fill="#AE8D92"/>
</svg>
