<svg width="50" height="50" viewBox="0 0 50 50" fill="none" xmlns="http://www.w3.org/2000/svg">
<path d="M37.5 1.5625C31.4688 1.5625 26.5625 6.46875 26.5625 12.5C26.5625 18.5312 31.4688 23.4375 37.5 23.4375C43.5312 23.4375 48.4375 18.5312 48.4375 12.5C48.4375 6.46875 43.5312 1.5625 37.5 1.5625ZM45.0656 6.98672C44.3891 7.14375 43.6898 7.27813 42.9648 7.39063C42.7484 6.70469 42.4906 6.04062 42.1844 5.40781C42.5117 5.29531 42.8227 5.16328 43.1273 5.01953C43.8664 5.57656 44.5195 6.23828 45.0656 6.98672V6.98672ZM40.6508 19.1648C39.8836 19.0055 39.0883 18.9039 38.2812 18.8648V17.2008C39.3414 17.2219 40.3898 17.2852 41.3977 17.393C41.1883 18.0203 40.9359 18.6102 40.6508 19.1648V19.1648ZM34.35 19.1656C34.0648 18.6109 33.8125 18.0219 33.6023 17.393C34.6094 17.2852 35.6586 17.2219 36.7195 17.2008V18.8648C35.9172 18.9047 35.1219 19.0062 34.35 19.1656ZM34.3531 5.83672C35.1148 5.99531 35.9055 6.09688 36.7188 6.13594V7.78906C35.6578 7.76719 34.6172 7.70391 33.6062 7.59766C33.8133 6.98438 34.0656 6.39766 34.3531 5.83672V5.83672ZM40.6469 5.83672C40.9344 6.39688 41.1859 6.98359 41.3938 7.59766C40.3828 7.70469 39.3422 7.76719 38.2812 7.78906V6.13594C39.1016 6.09688 39.8953 5.99453 40.6469 5.83672V5.83672ZM38.2812 15.6391V13.2812H42.1625C42.1195 14.1625 42.0016 15.0273 41.8133 15.8695C40.6758 15.7391 39.4859 15.6625 38.2812 15.6391V15.6391ZM33.1859 15.8695C32.9977 15.0281 32.8805 14.1633 32.8375 13.2812H36.7188V15.6391C35.5133 15.6625 34.3227 15.7391 33.1859 15.8695V15.8695ZM38.2812 11.7188V9.35156C39.4852 9.32813 40.668 9.25625 41.8125 9.12656C42.0008 9.96875 42.1187 10.8359 42.1617 11.7188H38.2812ZM36.7188 9.35156V11.7188H32.8375C32.8805 10.8367 32.9984 9.97031 33.1875 9.12656C34.332 9.25547 35.5148 9.32813 36.7188 9.35156ZM31.275 11.7188H28.1641C28.2625 10.5328 28.5852 9.41172 29.0859 8.39141C29.9 8.59609 30.7516 8.76641 31.6344 8.90781C31.4367 9.82266 31.318 10.7633 31.275 11.7188ZM31.275 13.2812C31.318 14.2375 31.4367 15.1781 31.6336 16.093C30.7453 16.2344 29.8945 16.4055 29.0852 16.6078C28.5852 15.5875 28.2625 14.4672 28.1641 13.2812H31.275ZM43.725 13.2812H46.8359C46.7375 14.4672 46.4148 15.5875 45.9148 16.6078C45.1055 16.4055 44.2539 16.2344 43.3664 16.093C43.5633 15.1773 43.682 14.2375 43.725 13.2812ZM43.725 11.7188C43.682 10.7617 43.5633 9.82188 43.3656 8.90703C44.2477 8.76563 45.1 8.59609 45.9141 8.39141C46.4148 9.41172 46.7367 10.5328 46.8359 11.7188H43.725ZM41.4391 4.00391C41.2305 4.06953 41.0313 4.14219 40.8078 4.19688C40.725 4.22422 40.6398 4.24688 40.5242 4.26953C38.6141 4.7 36.4141 4.70547 34.4508 4.26406C34.3617 4.24766 34.2766 4.22422 34.1273 4.17813C33.9336 4.13203 33.75 4.06406 33.5617 4.00469C34.7602 3.44609 36.0922 3.125 37.5 3.125C38.9078 3.125 40.2398 3.44609 41.4391 4.00391V4.00391ZM31.8727 5.01953C32.1813 5.16484 32.4922 5.29687 32.8156 5.40781C32.5086 6.04062 32.2508 6.70547 32.0352 7.38984C31.3109 7.27734 30.6109 7.14297 29.9344 6.98594C30.4805 6.23906 31.1336 5.57656 31.8727 5.01953V5.01953ZM29.9336 18.0125C30.6062 17.8578 31.3055 17.7227 32.0352 17.6094C32.2539 18.3047 32.5109 18.9695 32.8125 19.593C32.4789 19.7086 32.1687 19.8391 31.8703 19.9789C31.1312 19.4211 30.4789 18.7594 29.9336 18.0125V18.0125ZM33.5555 20.993C33.7492 20.9313 33.932 20.8625 34.1398 20.8094L34.475 20.7305C36.4023 20.3 38.6172 20.3047 40.5062 20.7258L40.868 20.8109C41.0727 20.8633 41.2531 20.9313 41.4445 20.9922C40.2437 21.5531 38.9102 21.875 37.5 21.875C36.0898 21.875 34.7563 21.5531 33.5555 20.993ZM43.1305 19.9781C42.832 19.8383 42.5211 19.7078 42.1883 19.5922C42.4898 18.9687 42.7469 18.3031 42.9656 17.6086C43.6953 17.7211 44.3945 17.8563 45.0672 18.0117C44.5211 18.7594 43.8688 19.4211 43.1305 19.9781V19.9781Z" fill="#AE8D92"/>
<path d="M26.5625 21.0938C26.5625 14.2016 20.9547 8.59375 14.0625 8.59375C7.17031 8.59375 1.5625 14.2016 1.5625 21.0938C1.5625 26.3281 4.8 30.8148 9.375 32.6734V35.9375C9.375 36.3695 9.72422 36.7188 10.1562 36.7188H10.9375V47.6562C10.9375 48.0883 11.2867 48.4375 11.7188 48.4375H16.4219C16.6297 48.4375 16.8281 48.3555 16.975 48.2086C17.1219 48.0617 17.2031 47.8625 17.2031 47.6555L17.1883 36.7188H17.9688C18.4008 36.7188 18.75 36.3695 18.75 35.9375V32.6734C23.325 30.8148 26.5625 26.3281 26.5625 21.0938V21.0938ZM15.6398 46.875H12.5V36.7188H15.6258L15.6398 46.875ZM17.1875 35.1562H10.9375V33.182C11.9383 33.4414 12.982 33.5938 14.0625 33.5938C15.143 33.5938 16.1867 33.4414 17.1875 33.182V35.1562ZM14.0625 32.0312C8.03125 32.0312 3.125 27.125 3.125 21.0938C3.125 15.0625 8.03125 10.1562 14.0625 10.1562C20.0937 10.1562 25 15.0625 25 21.0938C25 27.125 20.0937 32.0312 14.0625 32.0312Z" fill="#AE8D92"/>
<path d="M14.0625 11.7188C8.89297 11.7188 4.6875 15.9242 4.6875 21.0938C4.6875 26.2633 8.89297 30.4688 14.0625 30.4688C19.232 30.4688 23.4375 26.2633 23.4375 21.0938C23.4375 15.9242 19.232 11.7188 14.0625 11.7188ZM14.0625 28.9062C9.75469 28.9062 6.25 25.4016 6.25 21.0938C6.25 16.7859 9.75469 13.2812 14.0625 13.2812C18.3703 13.2812 21.875 16.7859 21.875 21.0938C21.875 25.4016 18.3703 28.9062 14.0625 28.9062Z" fill="#AE8D92"/>
<path d="M8.59375 21.957H10.1562V24.3008H8.59375V21.957Z" fill="#AE8D92"/>
<path d="M11.7188 20.3945H13.2812V24.3008H11.7188V20.3945Z" fill="#AE8D92"/>
<path d="M14.8438 18.832H16.4062V24.3008H14.8438V18.832Z" fill="#AE8D92"/>
<path d="M17.9688 17.1875H19.5312V24.2188H17.9688V17.1875Z" fill="#AE8D92"/>
<path d="M46.1805 33.1906C46.6086 32.6555 46.875 31.9867 46.875 31.25C46.875 29.5266 45.4734 28.125 43.75 28.125C43.4742 28.125 43.2117 28.1719 42.957 28.2398C42.9586 28.2008 42.9688 28.1641 42.9688 28.125C42.9688 26.4016 41.5672 25 39.8438 25C38.1203 25 36.7188 26.4016 36.7188 28.125C36.7188 28.1641 36.7289 28.2008 36.7305 28.2398C36.4758 28.1719 36.2133 28.125 35.9375 28.125C35.6617 28.125 35.3992 28.1719 35.1445 28.2398C35.1461 28.2008 35.1562 28.1641 35.1562 28.125C35.1562 26.4016 33.7547 25 32.0312 25C30.3078 25 28.9062 26.4016 28.9062 28.125C28.9062 28.1641 28.9164 28.2008 28.918 28.2398C28.6633 28.1719 28.4008 28.125 28.125 28.125C26.4016 28.125 25 29.5266 25 31.25C25 31.9867 25.2664 32.6555 25.6945 33.1906C24.3656 33.8148 23.4375 35.1562 23.4375 36.7188V40.625C23.4375 40.9211 23.6047 41.1914 23.8695 41.3242L25 41.8891V47.6562C25 48.0883 25.3492 48.4375 25.7812 48.4375H30.4688C30.9008 48.4375 31.25 48.0883 31.25 47.6562V41.8891L32.0312 41.4984L32.8125 41.8891V47.6562C32.8125 48.0883 33.1617 48.4375 33.5938 48.4375H38.2812C38.7133 48.4375 39.0625 48.0883 39.0625 47.6562V41.8891L39.8438 41.4984L40.625 41.8891V47.6562C40.625 48.0883 40.9742 48.4375 41.4062 48.4375H46.0938C46.5258 48.4375 46.875 48.0883 46.875 47.6562V41.8891L48.0055 41.3234C48.2703 41.1914 48.4375 40.9211 48.4375 40.625V36.7188C48.4375 35.1562 47.5094 33.8148 46.1805 33.1906V33.1906ZM45.3125 31.25C45.3125 32.1117 44.6117 32.8125 43.75 32.8125C42.8883 32.8125 42.1875 32.1117 42.1875 31.25C42.1875 30.3883 42.8883 29.6875 43.75 29.6875C44.6117 29.6875 45.3125 30.3883 45.3125 31.25ZM39.8438 34.3992C39.4594 33.8836 38.9555 33.4664 38.368 33.1906C38.7961 32.6555 39.0625 31.9867 39.0625 31.25C39.0625 31.2109 39.0523 31.1742 39.0508 31.1352C39.3055 31.2031 39.568 31.25 39.8438 31.25C40.1195 31.25 40.382 31.2031 40.6367 31.1352C40.6352 31.1742 40.625 31.2109 40.625 31.25C40.625 31.9867 40.8914 32.6555 41.3195 33.1906C40.732 33.4664 40.2281 33.8836 39.8438 34.3992ZM39.8438 26.5625C40.7055 26.5625 41.4062 27.2633 41.4062 28.125C41.4062 28.9867 40.7055 29.6875 39.8438 29.6875C38.982 29.6875 38.2812 28.9867 38.2812 28.125C38.2812 27.2633 38.9828 26.5625 39.8438 26.5625ZM37.5 31.25C37.5 32.1117 36.7992 32.8125 35.9375 32.8125C35.0758 32.8125 34.375 32.1117 34.375 31.25C34.375 30.3883 35.0758 29.6875 35.9375 29.6875C36.7992 29.6875 37.5 30.3883 37.5 31.25ZM32.0312 34.3992C31.6469 33.8836 31.143 33.4664 30.5555 33.1906C30.9836 32.6555 31.25 31.9867 31.25 31.25C31.25 31.2109 31.2398 31.1742 31.2383 31.1352C31.493 31.2031 31.7555 31.25 32.0312 31.25C32.307 31.25 32.5695 31.2031 32.8242 31.1352C32.8227 31.1742 32.8125 31.2109 32.8125 31.25C32.8125 31.9867 33.0789 32.6555 33.507 33.1906C32.9195 33.4664 32.4156 33.8836 32.0312 34.3992ZM32.0312 26.5625C32.893 26.5625 33.5938 27.2633 33.5938 28.125C33.5938 28.9867 32.893 29.6875 32.0312 29.6875C31.1695 29.6875 30.4688 28.9867 30.4688 28.125C30.4688 27.2633 31.1703 26.5625 32.0312 26.5625ZM28.125 29.6875C28.9867 29.6875 29.6875 30.3883 29.6875 31.25C29.6875 32.1117 28.9867 32.8125 28.125 32.8125C27.2633 32.8125 26.5625 32.1117 26.5625 31.25C26.5625 30.3883 27.2641 29.6875 28.125 29.6875ZM30.1195 40.707C29.8547 40.8398 29.6875 41.1102 29.6875 41.4062V46.875H26.5625V41.4062C26.5625 41.1102 26.3953 40.8398 26.1305 40.707L25 40.1422V36.7188C25 35.4266 26.0516 34.375 27.3438 34.375H28.9062C30.1984 34.375 31.25 35.4266 31.25 36.7188V40.1422L30.1195 40.707ZM37.932 40.707C37.6672 40.8398 37.5 41.1102 37.5 41.4062V46.875H34.375V41.4062C34.375 41.1102 34.2078 40.8398 33.943 40.707L32.8125 40.1422V36.7188C32.8125 35.4266 33.8641 34.375 35.1562 34.375H36.7188C38.0109 34.375 39.0625 35.4266 39.0625 36.7188V40.1422L37.932 40.707ZM46.875 40.1422L45.7445 40.7078C45.4797 40.8398 45.3125 41.1102 45.3125 41.4062V46.875H42.1875V41.4062C42.1875 41.1102 42.0203 40.8398 41.7555 40.707L40.625 40.1422V36.7188C40.625 35.4266 41.6766 34.375 42.9688 34.375H44.5312C45.8234 34.375 46.875 35.4266 46.875 36.7188V40.1422Z" fill="#AE8D92"/>
</svg>
