<svg width="50" height="50" viewBox="0 0 50 50" fill="none" xmlns="http://www.w3.org/2000/svg">
<path d="M47.5 0H2.5C1.11929 0 0 1.11929 0 2.5V47.5C0 48.8807 1.11929 50 2.5 50H47.5C48.8807 50 50 48.8807 50 47.5V2.5C50 1.11929 48.8807 0 47.5 0ZM2.5 1.66667H47.5C47.9602 1.66667 48.3333 2.03976 48.3333 2.5V6.66667H1.66667V2.5C1.66667 2.03976 2.03976 1.66667 2.5 1.66667ZM47.5 48.3333H2.5C2.03976 48.3333 1.66667 47.9602 1.66667 47.5V8.33333H48.3333V47.5C48.3333 47.9602 47.9602 48.3333 47.5 48.3333Z" fill="#AE8D92"/>
<path d="M42.5001 14.9998H32.5001C31.1194 14.9998 30.0001 16.1191 30.0001 17.4998V18.3332H20.7909C20.3469 13.9152 16.5168 10.6213 12.0822 10.8436C7.64751 11.0659 4.16602 14.7263 4.16602 19.1665C4.16602 23.6067 7.64751 27.2671 12.0822 27.4894C16.5168 27.7117 20.3469 24.4178 20.7909 19.9998H30.0001V20.8332C30.0001 22.2139 31.1194 23.3332 32.5001 23.3332H36.6667V25.8332H32.5001C31.1194 25.8332 30.0001 26.9525 30.0001 28.3332V31.6665C30.0001 33.0472 31.1194 34.1665 32.5001 34.1665H36.6667V36.6665H32.5001C31.1194 36.6665 30.0001 37.7858 30.0001 39.1665V39.9998H20.7501C20.3514 38.0612 18.646 36.669 16.6667 36.6665H10.0001C7.69889 36.6665 5.83341 38.532 5.83341 40.8332C5.83341 43.1344 7.69889 44.9998 10.0001 44.9998H16.6667C18.646 44.9973 20.3514 43.6052 20.7501 41.6665H30.0001V42.4998C30.0001 43.8806 31.1194 44.9998 32.5001 44.9998H42.5001C43.8808 44.9998 45.0001 43.8806 45.0001 42.4998V39.1665C45.0001 37.7858 43.8808 36.6665 42.5001 36.6665H38.3334V34.1665H42.5001C43.8808 34.1665 45.0001 33.0472 45.0001 31.6665V28.3332C45.0001 26.9525 43.8808 25.8332 42.5001 25.8332H38.3334V23.3332H42.5001C43.8808 23.3332 45.0001 22.2139 45.0001 20.8332V17.4998C45.0001 16.1191 43.8808 14.9998 42.5001 14.9998ZM8.55674 24.529C9.11312 22.822 10.7047 21.6668 12.5001 21.6668C14.2955 21.6668 15.887 22.822 16.4434 24.529C14.1021 26.268 10.898 26.268 8.55674 24.529V24.529ZM10.8334 18.3332C10.8334 17.4127 11.5796 16.6665 12.5001 16.6665C13.4206 16.6665 14.1667 17.4127 14.1667 18.3332C14.1667 19.2537 13.4206 19.9998 12.5001 19.9998C11.5796 19.9998 10.8334 19.2537 10.8334 18.3332ZM17.7267 23.2923C17.1408 22.0951 16.1631 21.1341 14.9559 20.569C16.1756 19.24 16.1168 17.1819 14.8232 15.9247C13.5296 14.6675 11.4706 14.6675 10.177 15.9247C8.88335 17.1819 8.82453 19.24 10.0442 20.569C8.83702 21.1341 7.85932 22.0951 7.27341 23.2923C5.1115 20.5619 5.41554 16.6275 7.97127 14.2617C10.527 11.8958 14.4732 11.8958 17.0289 14.2617C19.5846 16.6275 19.8887 20.5619 17.7267 23.2923V23.2923ZM16.6667 43.3332H10.0001C8.61937 43.3332 7.50008 42.2139 7.50008 40.8332C7.50008 39.4525 8.61937 38.3332 10.0001 38.3332H16.6667C18.0475 38.3332 19.1667 39.4525 19.1667 40.8332C19.1667 42.2139 18.0475 43.3332 16.6667 43.3332ZM43.3334 39.1665V42.4998C43.3334 42.9601 42.9603 43.3332 42.5001 43.3332H32.5001C32.0398 43.3332 31.6667 42.9601 31.6667 42.4998V39.1665C31.6667 38.7063 32.0398 38.3332 32.5001 38.3332H42.5001C42.9603 38.3332 43.3334 38.7063 43.3334 39.1665ZM43.3334 28.3332V31.6665C43.3334 32.1267 42.9603 32.4998 42.5001 32.4998H32.5001C32.0398 32.4998 31.6667 32.1267 31.6667 31.6665V28.3332C31.6667 27.8729 32.0398 27.4998 32.5001 27.4998H42.5001C42.9603 27.4998 43.3334 27.8729 43.3334 28.3332ZM43.3334 20.8332C43.3334 21.2934 42.9603 21.6665 42.5001 21.6665H32.5001C32.0398 21.6665 31.6667 21.2934 31.6667 20.8332V17.4998C31.6667 17.0396 32.0398 16.6665 32.5001 16.6665H42.5001C42.9603 16.6665 43.3334 17.0396 43.3334 17.4998V20.8332Z" fill="#AE8D92"/>
<path d="M5.00032 5.00016H5.83366C6.29389 5.00016 6.66699 4.62707 6.66699 4.16683C6.66699 3.70659 6.29389 3.3335 5.83366 3.3335H5.00032C4.54009 3.3335 4.16699 3.70659 4.16699 4.16683C4.16699 4.62707 4.54009 5.00016 5.00032 5.00016Z" fill="#AE8D92"/>
<path d="M9.99984 5.00016H10.8332C11.2934 5.00016 11.6665 4.62707 11.6665 4.16683C11.6665 3.70659 11.2934 3.3335 10.8332 3.3335H9.99984C9.5396 3.3335 9.1665 3.70659 9.1665 4.16683C9.1665 4.62707 9.5396 5.00016 9.99984 5.00016Z" fill="#AE8D92"/>
<path d="M14.9998 5.00016H15.8332C16.2934 5.00016 16.6665 4.62707 16.6665 4.16683C16.6665 3.70659 16.2934 3.3335 15.8332 3.3335H14.9998C14.5396 3.3335 14.1665 3.70659 14.1665 4.16683C14.1665 4.62707 14.5396 5.00016 14.9998 5.00016Z" fill="#AE8D92"/>
<path d="M39.9998 5.00016H44.9998C45.4601 5.00016 45.8332 4.62707 45.8332 4.16683C45.8332 3.70659 45.4601 3.3335 44.9998 3.3335H39.9998C39.5396 3.3335 39.1665 3.70659 39.1665 4.16683C39.1665 4.62707 39.5396 5.00016 39.9998 5.00016Z" fill="#AE8D92"/>
<path d="M34.9997 18.3335H34.1663C33.7061 18.3335 33.333 18.7066 33.333 19.1668C33.333 19.6271 33.7061 20.0002 34.1663 20.0002H34.9997C35.4599 20.0002 35.833 19.6271 35.833 19.1668C35.833 18.7066 35.4599 18.3335 34.9997 18.3335Z" fill="#AE8D92"/>
<path d="M40.8333 18.3335H38.3333C37.8731 18.3335 37.5 18.7066 37.5 19.1668C37.5 19.6271 37.8731 20.0002 38.3333 20.0002H40.8333C41.2936 20.0002 41.6667 19.6271 41.6667 19.1668C41.6667 18.7066 41.2936 18.3335 40.8333 18.3335Z" fill="#AE8D92"/>
<path d="M34.9997 29.167H34.1663C33.7061 29.167 33.333 29.5401 33.333 30.0003C33.333 30.4606 33.7061 30.8336 34.1663 30.8336H34.9997C35.4599 30.8336 35.833 30.4606 35.833 30.0003C35.833 29.5401 35.4599 29.167 34.9997 29.167Z" fill="#AE8D92"/>
<path d="M38.3333 30.8336H40.8333C41.2936 30.8336 41.6667 30.4606 41.6667 30.0003C41.6667 29.5401 41.2936 29.167 40.8333 29.167H38.3333C37.8731 29.167 37.5 29.5401 37.5 30.0003C37.5 30.4606 37.8731 30.8336 38.3333 30.8336Z" fill="#AE8D92"/>
<path d="M34.9997 40H34.1663C33.7061 40 33.333 40.3731 33.333 40.8333C33.333 41.2936 33.7061 41.6667 34.1663 41.6667H34.9997C35.4599 41.6667 35.833 41.2936 35.833 40.8333C35.833 40.3731 35.4599 40 34.9997 40Z" fill="#AE8D92"/>
<path d="M38.3333 41.6667H40.8333C41.2936 41.6667 41.6667 41.2936 41.6667 40.8333C41.6667 40.3731 41.2936 40 40.8333 40H38.3333C37.8731 40 37.5 40.3731 37.5 40.8333C37.5 41.2936 37.8731 41.6667 38.3333 41.6667Z" fill="#AE8D92"/>
<path d="M10.8332 40H9.99984C9.5396 40 9.1665 40.3731 9.1665 40.8333C9.1665 41.2936 9.5396 41.6667 9.99984 41.6667H10.8332C11.2934 41.6667 11.6665 41.2936 11.6665 40.8333C11.6665 40.3731 11.2934 40 10.8332 40Z" fill="#AE8D92"/>
<path d="M16.6668 40H14.1668C13.7066 40 13.3335 40.3731 13.3335 40.8333C13.3335 41.2936 13.7066 41.6667 14.1668 41.6667H16.6668C17.1271 41.6667 17.5002 41.2936 17.5002 40.8333C17.5002 40.3731 17.1271 40 16.6668 40Z" fill="#AE8D92"/>
</svg>
