<svg width="50" height="50" viewBox="0 0 50 50" fill="none" xmlns="http://www.w3.org/2000/svg">
<g clip-path="url(#clip0)">
<path d="M30.7663 35.3208H28.0254C27.6209 35.3208 27.293 35.6487 27.293 36.0532C27.293 36.4578 27.6209 36.7857 28.0254 36.7857H30.7663C31.1708 36.7857 31.4987 36.4578 31.4987 36.0532C31.4987 35.6487 31.1708 35.3208 30.7663 35.3208Z" fill="#AE8D92"/>
<path d="M46.8994 27.4799L42.911 25.9415L40.8775 23.908C40.7469 23.7774 40.5787 23.7067 40.4068 23.6957V22.0776C41.3652 21.0557 42.0474 19.7617 42.3227 18.3039C42.4936 18.3116 42.6662 18.2978 42.8364 18.2631C43.8109 18.0635 44.5182 17.1593 44.5182 16.1132V15.5792C44.5182 14.974 44.2728 14.4185 43.8732 14.0213C44.52 10.5038 43.9873 7.63714 42.3257 5.71848C40.7186 3.86271 38.1293 2.97569 34.8382 3.15372C31.7976 3.31808 29.8347 4.71711 29.2128 5.22893C28.8724 5.26936 28.2925 5.38889 27.7056 5.74104C26.8921 6.22913 25.9224 7.25442 25.9224 9.36703C25.9224 11.21 26.217 12.7487 26.4303 13.6216C25.7154 13.9699 25.2372 14.7246 25.2372 15.5874V16.1131C25.2372 17.1592 25.9445 18.0634 26.919 18.263C27.0892 18.2978 27.2619 18.3115 27.4327 18.3038C27.708 19.7616 28.3903 21.0556 29.3486 22.0775V23.6956C29.1768 23.7066 29.0084 23.7773 28.8779 23.9079L26.8444 25.9414L22.856 27.4798C22.511 27.6128 22.1814 27.7854 21.8765 27.9925C21.542 28.2198 21.455 28.6753 21.6823 29.0099C21.824 29.2185 22.0544 29.3308 22.2887 29.3308C22.4304 29.3308 22.5736 29.2897 22.6997 29.2041C22.9123 29.0597 23.1423 28.9394 23.3832 28.8464L27.0847 27.4187L29.9147 31.6639C30.2655 32.1902 30.8278 32.5278 31.4572 32.5901C31.5272 32.597 31.5973 32.6004 31.6668 32.6004C32.0312 32.6004 32.3847 32.5046 32.6976 32.3276L32.0902 46.1038C32.0724 46.5079 32.3856 46.85 32.7898 46.8678C32.8007 46.8682 32.8116 46.8684 32.8226 46.8684C33.2122 46.8684 33.5364 46.5613 33.5537 46.1682L34.1174 33.381H35.6379L36.2016 46.1682C36.2189 46.5614 36.5431 46.8684 36.9327 46.8684C36.9437 46.8684 36.9546 46.8682 36.9656 46.8678C37.3697 46.85 37.6828 46.5079 37.6651 46.1038L37.0577 32.3276C37.3706 32.5046 37.7241 32.6004 38.0885 32.6004C38.158 32.6004 38.2281 32.597 38.2981 32.5901C38.9275 32.5278 39.4897 32.1902 39.8406 31.6639L42.6707 27.4187L46.3721 28.8464C46.8913 29.0466 47.3381 29.366 47.6895 29.7646L45.1572 32.2969C44.2422 33.2118 43.7384 34.4283 43.7384 35.722V46.1361C43.7384 46.5406 44.0664 46.8685 44.4709 46.8685C44.8753 46.8685 45.2033 46.5406 45.2033 46.1361V35.722C45.2033 34.8196 45.5547 33.9709 46.1929 33.3327L48.4154 31.1103C48.5047 31.4377 48.5464 31.782 48.5323 32.1339L47.965 46.1064C47.9486 46.5106 48.263 46.8515 48.6671 46.8681C48.6772 46.8684 48.6873 46.8686 48.6973 46.8686C49.0881 46.8686 49.4127 46.5599 49.4286 46.166L49.9961 32.1931C50.0792 30.1204 48.8347 28.2264 46.8994 27.4799ZM28.8665 18.0018C28.7373 17.2986 28.0861 16.7875 27.3833 16.8395C27.3277 16.8435 27.2705 16.8396 27.2129 16.8279C26.9217 16.7683 26.702 16.461 26.702 16.1132V15.5873C26.702 15.2475 26.9291 14.9415 27.2188 14.8906C27.4634 14.8476 27.6975 14.9374 27.8457 15.1306C27.9802 15.3059 28.1596 15.4313 28.3643 15.493C28.6643 15.5837 28.9951 15.5304 29.2494 15.3509C29.7074 15.0276 30.1115 14.6326 30.4505 14.1767C30.6919 13.8521 30.6243 13.3933 30.2998 13.152C29.9751 12.9106 29.5164 12.9781 29.275 13.3027C29.106 13.53 28.9149 13.7364 28.7047 13.919C28.4725 13.7204 28.2012 13.5768 27.9104 13.4949C27.7223 12.774 27.3873 11.2295 27.3873 9.36683C27.3873 8.24505 27.7331 7.45686 28.415 7.02425C28.9472 6.68665 29.5103 6.67317 29.51 6.67307C29.6972 6.67307 29.8794 6.59934 30.0153 6.47073C30.0332 6.45393 31.8337 4.78303 34.9171 4.61633C37.7396 4.46398 39.9185 5.17648 41.2182 6.67727C42.5282 8.18997 42.9644 10.5123 42.4912 13.4191C42.295 13.4122 42.0802 13.427 41.8665 13.4627L41.1784 11.8101C41.0379 11.473 40.6702 11.291 40.3168 11.3831C40.2488 11.4008 33.485 13.1155 30.6489 9.58461C30.3957 9.26927 29.9348 9.21888 29.6192 9.47221C29.3039 9.72553 29.2535 10.1865 29.5069 10.5019C32.403 14.1076 38.1495 13.3232 40.0624 12.9407L40.5946 14.2185C40.8234 14.7678 41.4087 15.0678 41.9857 14.9318C42.2225 14.876 42.4488 14.8748 42.5337 14.8916C42.8299 14.9505 43.0533 15.246 43.0533 15.579V16.1131C43.0533 16.461 42.8336 16.7682 42.5424 16.8278C42.4849 16.8396 42.4274 16.8435 42.372 16.8394C41.6693 16.7882 41.0181 17.2984 40.8888 18.0018C40.356 20.9026 37.828 23.0081 34.8777 23.0081C31.9273 23.0081 29.3993 20.9026 28.8665 18.0018ZM32.1156 30.9488C31.9299 31.1345 31.714 31.1436 31.6017 31.1324C31.4895 31.1214 31.2794 31.07 31.1337 30.8515L28.2826 26.5749L29.4292 25.4283L33.8062 29.2582L32.1156 30.9488ZM34.1819 31.9162L34.2263 30.9096L34.8776 30.2583L35.5288 30.9096L35.5732 31.9162H34.1819ZM34.8777 28.2492L30.8135 24.6931V23.2913C31.9951 24.0428 33.3932 24.4729 34.8777 24.4729C36.3621 24.4729 37.7603 24.0428 38.9419 23.2913V24.6931L34.8777 28.2492ZM38.6218 30.8515C38.476 31.0701 38.2659 31.1214 38.1538 31.1324C38.0414 31.1436 37.8255 31.1345 37.6398 30.9487L35.9492 29.2581L40.3262 25.4282L41.4728 26.5748L38.6218 30.8515Z" fill="#AE8D92"/>
<path d="M23.2271 31.3186L19.6507 29.7575L17.6957 27.8025C17.5648 27.6715 17.3964 27.6012 17.225 27.5902V26.438C18.8958 25.34 20.1185 23.5938 20.5114 21.5131C20.7038 21.5217 20.898 21.5032 21.0894 21.458C22.0266 21.2362 22.7068 20.3381 22.7068 19.3224V18.7884C22.7068 18.0464 22.3386 17.379 21.7682 16.9874C21.936 16.3227 22.0215 15.6427 22.0215 14.9582C22.0215 11.9239 20.3813 9.2512 17.9089 7.71662C17.8826 5.18409 15.7209 3.13135 13.0663 3.13135C10.4117 3.13135 8.2501 5.18409 8.22373 7.71662C5.75146 9.2512 4.11121 11.924 4.11121 14.9582C4.11121 15.6407 4.19618 16.3187 4.36297 16.9815C3.79285 17.3711 3.42596 18.0418 3.42596 18.7964V19.3224C3.42596 20.3381 4.10614 21.2362 5.04335 21.458C5.23475 21.5033 5.42889 21.5217 5.62138 21.5131C6.01425 23.5938 7.23701 25.34 8.90782 26.438V27.5902C8.73643 27.6012 8.56807 27.6715 8.43711 27.8025L6.48212 29.7575L2.90584 31.3186C1.0862 32.1129 -0.0798178 33.9793 0.00426452 35.963L0.436786 46.1675C0.453485 46.561 0.777803 46.8689 1.16804 46.8689C1.17849 46.8689 1.18903 46.8687 1.19958 46.8682C1.60378 46.8511 1.91746 46.5096 1.90037 46.1054L1.46775 35.9009C1.43991 35.2434 1.61081 34.6054 1.9321 34.0563L3.85447 36.3631C4.462 37.0921 4.79647 38.0162 4.79647 38.965V46.1365C4.79647 46.541 5.1244 46.8689 5.5289 46.8689C5.93339 46.8689 6.26132 46.541 6.26132 46.1365V38.965C6.26132 37.6742 5.80614 36.4171 4.97977 35.4254L2.93611 32.973C3.10984 32.8532 3.29451 32.7472 3.49188 32.6611L6.60868 31.3005L8.81123 34.8756C9.02871 35.2286 9.38829 35.468 9.79786 35.5325C9.87149 35.5441 9.94532 35.5497 10.0189 35.5497C10.3537 35.5497 10.6799 35.4311 10.9385 35.2104L12.3342 34.0195V46.1364C12.3342 46.5409 12.6621 46.8688 13.0666 46.8688C13.4711 46.8688 13.799 46.5409 13.799 46.1364V34.0197L15.1947 35.2106C15.4533 35.4313 15.7794 35.5499 16.1143 35.5499C16.1877 35.5499 16.2617 35.5442 16.3353 35.5326C16.7449 35.4682 17.1044 35.2288 17.3219 34.8758L19.5245 31.3006L22.6413 32.6612C22.8385 32.7473 23.0233 32.8533 23.197 32.9731L21.1534 35.4255C20.327 36.4171 19.8718 37.6743 19.8718 38.9651V46.1366C19.8718 46.5411 20.1998 46.869 20.6042 46.869C21.0087 46.869 21.3367 46.5411 21.3367 46.1366V38.9651C21.3367 38.0162 21.6712 37.0922 22.2787 36.3632L24.201 34.0564C24.5223 34.6055 24.6932 35.2435 24.6654 35.901L24.2329 46.1055C24.2158 46.5096 24.5295 46.8511 24.9337 46.8683C24.9442 46.8688 24.9547 46.869 24.9652 46.869C25.3554 46.869 25.6798 46.5612 25.6965 46.1676L26.129 35.9631C26.213 33.9794 25.0468 32.1129 23.2271 31.3186ZM13.0665 4.5962C14.6247 4.5962 15.9394 5.59024 16.3282 6.93712C15.317 6.55548 14.2168 6.34562 13.0665 6.34562C11.9162 6.34562 10.816 6.55548 9.80489 6.93712C10.1937 5.59024 11.5082 4.5962 13.0665 4.5962ZM7.05527 21.2112C6.92617 20.5078 6.27392 19.9968 5.57216 20.0488C5.50995 20.0532 5.44569 20.0479 5.38085 20.0325C5.10155 19.9664 4.8909 19.6611 4.8909 19.3224V18.7964C4.8909 18.4567 5.11796 18.1506 5.4077 18.0998C5.65224 18.0568 5.88632 18.1466 6.03437 18.3397C6.16884 18.5151 6.34824 18.6405 6.55322 18.7024C6.85312 18.793 7.18408 18.7398 7.43818 18.5602C7.88926 18.2419 8.28809 17.8538 8.62363 17.4069C8.86651 17.0835 8.80117 16.6243 8.47773 16.3815C8.1542 16.1386 7.69511 16.204 7.45224 16.5274C7.28613 16.7486 7.09912 16.9497 6.89345 17.1283C6.58007 16.8603 6.19579 16.6925 5.78817 16.6417C5.64784 16.09 5.57606 15.5258 5.57606 14.9583C5.57606 11.0171 8.93623 7.81056 13.0665 7.81056C17.1967 7.81056 20.5569 11.017 20.5569 14.9583C20.5569 15.5248 20.4855 16.0877 20.3457 16.6384C20.1529 16.6538 19.957 16.6853 19.7756 16.7324L19.225 16.2796C18.9484 16.0521 18.6001 15.9382 18.2477 15.9592C17.1711 16.0228 11.6576 16.1684 8.82891 12.783C8.56953 12.4727 8.10771 12.4313 7.79726 12.6907C7.48681 12.95 7.44551 13.412 7.70488 13.7223C9.1 15.3919 11.1462 16.521 13.7865 17.078C15.8081 17.5045 17.6052 17.463 18.3093 17.4229L19.1683 18.1293C19.4047 18.3237 19.7363 18.3511 20.001 18.197C20.1252 18.1294 20.5413 18.0647 20.7228 18.1009C21.019 18.1598 21.2422 18.4553 21.2422 18.7884V19.3224C21.2422 19.6612 21.0316 19.9665 20.7523 20.0325C20.6875 20.0478 20.6232 20.0534 20.561 20.0487C19.8596 19.9977 19.207 20.5078 19.0778 21.2111C18.545 24.112 16.0169 26.2175 13.0666 26.2175C10.1162 26.2175 7.58808 24.112 7.05527 21.2112ZM10.0295 34.0605L7.82656 30.4847L8.95508 29.3562L11.9881 32.3892L10.0295 34.0605ZM13.0665 31.3959L10.3728 28.7022V27.1869C11.2137 27.507 12.1224 27.6823 13.0665 27.6823C14.0107 27.6823 14.9194 27.507 15.7603 27.187V28.7022L13.0665 31.3959ZM16.1035 34.0605L14.1449 32.3892L17.178 29.3562L18.3065 30.4847L16.1035 34.0605Z" fill="#AE8D92"/>
<path d="M10.3257 38.5513H8.27002C7.86553 38.5513 7.5376 38.8792 7.5376 39.2837C7.5376 39.6882 7.86553 40.0161 8.27002 40.0161H10.3257C10.7302 40.0161 11.0581 39.6882 11.0581 39.2837C11.0581 38.8792 10.7302 38.5513 10.3257 38.5513Z" fill="#AE8D92"/>
</g>
<defs>
<clipPath id="clip0">
<rect width="50" height="50" fill="white"/>
</clipPath>
</defs>
</svg>
