<svg width="50" height="50" viewBox="0 0 50 50" fill="none" xmlns="http://www.w3.org/2000/svg">
<g clip-path="url(#clip0)">
<path d="M11.6699 2.39258C10.4584 2.39258 9.47266 3.3783 9.47266 4.58984C9.47266 5.80139 10.4584 6.78711 11.6699 6.78711C12.8815 6.78711 13.8672 5.80139 13.8672 4.58984C13.8672 3.3783 12.8815 2.39258 11.6699 2.39258ZM11.6699 5.32227C11.2659 5.32227 10.9375 4.99382 10.9375 4.58984C10.9375 4.18587 11.2659 3.85742 11.6699 3.85742C12.0739 3.85742 12.4023 4.18587 12.4023 4.58984C12.4023 4.99382 12.0739 5.32227 11.6699 5.32227Z" fill="#AE8D92"/>
<path d="M17.5293 2.39258C16.3177 2.39258 15.332 3.3783 15.332 4.58984C15.332 5.80139 16.3177 6.78711 17.5293 6.78711C18.7408 6.78711 19.7266 5.80139 19.7266 4.58984C19.7266 3.3783 18.7408 2.39258 17.5293 2.39258ZM17.5293 5.32227C17.1253 5.32227 16.7969 4.99382 16.7969 4.58984C16.7969 4.18587 17.1253 3.85742 17.5293 3.85742C17.9333 3.85742 18.2617 4.18587 18.2617 4.58984C18.2617 4.99382 17.9333 5.32227 17.5293 5.32227Z" fill="#AE8D92"/>
<path d="M23.3887 2.39258C22.1771 2.39258 21.1914 3.3783 21.1914 4.58984C21.1914 5.80139 22.1771 6.78711 23.3887 6.78711C24.6002 6.78711 25.5859 5.80139 25.5859 4.58984C25.5859 3.3783 24.6002 2.39258 23.3887 2.39258ZM23.3887 5.32227C22.9847 5.32227 22.6562 4.99382 22.6562 4.58984C22.6562 4.18587 22.9847 3.85742 23.3887 3.85742C23.7926 3.85742 24.1211 4.18587 24.1211 4.58984C24.1211 4.99382 23.7926 5.32227 23.3887 5.32227Z" fill="#AE8D92"/>
<path d="M12.4512 48.5352H7.91016V15.4873C7.91016 15.0826 7.58209 14.7549 7.17773 14.7549C6.77338 14.7549 6.44531 15.0826 6.44531 15.4873V49.2676C6.44531 49.6723 6.77338 50 7.17773 50H12.4512C12.8555 50 13.1836 49.6723 13.1836 49.2676C13.1836 48.8629 12.8555 48.5352 12.4512 48.5352Z" fill="#AE8D92"/>
<path d="M42.7246 0H7.17773C6.77338 0 6.44531 0.327683 6.44531 0.732422V12.4676C6.44531 12.8719 6.77338 13.2 7.17773 13.2C7.58209 13.2 7.91016 12.8719 7.91016 12.4676V9.27734H31.1417C30.6141 9.53255 30.2486 10.07 30.2486 10.693V41.0164C30.2486 41.8125 30.8453 42.4709 31.6158 42.5755V44.2028C31.6158 45.4681 32.6454 46.4977 33.9108 46.4977C35.1761 46.4977 36.2057 45.4681 36.2057 44.2028V42.5755C36.9762 42.4717 37.5729 41.8133 37.5729 41.0172V31.2824C37.5729 30.8777 37.2448 30.55 36.8404 30.55C36.4361 30.55 36.108 30.8781 36.108 31.2824V31.8989H31.7135V12.9917H36.108V28.125C36.108 28.5297 36.4357 28.8574 36.8404 28.8574C37.2448 28.8574 37.5729 28.5297 37.5729 28.125V12.9917H37.8403V19.2768C37.8403 19.6815 38.1683 20.0092 38.5727 20.0092C38.9774 20.0092 39.3051 19.6815 39.3051 19.2768V12.2593C39.3051 11.8546 38.9774 11.5269 38.5727 11.5269H37.5729V10.6926C37.5725 10.07 37.2074 9.53255 36.6798 9.27734H41.9922V48.5352H15.5762C15.1718 48.5352 14.8438 48.8628 14.8438 49.2676C14.8438 49.6723 15.1718 50 15.5762 50H42.7246C43.129 50 43.457 49.6723 43.457 49.2676V0.732422C43.457 0.327683 43.129 0 42.7246 0V0ZM34.9606 9.11903H32.8609V7.73926C32.8609 7.16019 33.3317 6.68945 33.9108 6.68945C34.4898 6.68945 34.9606 7.16019 34.9606 7.73926V9.11903ZM36.108 41.0172C36.108 41.0774 36.0569 41.1266 35.994 41.1266H31.8287C31.7654 41.1266 31.7135 41.077 31.7135 41.0164V39.0831H36.108V41.0172ZM34.7408 44.2028C34.7408 44.6602 34.3685 45.0329 33.9108 45.0329C33.453 45.0329 33.0807 44.6602 33.0807 44.2028V42.5915H34.7408V44.2028ZM36.108 33.3637V37.6183H31.7135V33.3637H36.108ZM31.7135 11.5269V10.693C31.7135 10.6327 31.7646 10.5839 31.8275 10.5839H35.9936C36.0569 10.5839 36.108 10.6327 36.108 10.693V11.5269H31.7135ZM36.4254 7.8125V7.73926C36.4254 6.35262 35.2974 5.22461 33.9108 5.22461C32.5241 5.22461 31.3961 6.35262 31.3961 7.73926V7.8125H7.91016V1.46484H41.9922V7.8125H36.4254Z" fill="#AE8D92"/>
<path d="M16.6139 14.7542L11.1196 14.7549C10.7149 14.7549 10.3872 15.0826 10.3872 15.4873C10.3872 15.8917 10.7149 16.2198 11.1196 16.2198L16.6139 16.219C17.0187 16.219 17.3464 15.8913 17.3464 15.4866C17.3464 15.0822 17.0187 14.7542 16.6139 14.7542Z" fill="#AE8D92"/>
<path d="M26.3766 17.6677L13.8667 17.6681C13.4623 17.6681 13.1343 17.9962 13.1343 18.4005C13.1343 18.8053 13.4623 19.1329 13.8667 19.1329L26.3766 19.1326C26.781 19.1326 27.109 18.8045 27.109 18.4001C27.109 17.9954 26.781 17.6677 26.3766 17.6677Z" fill="#AE8D92"/>
<path d="M26.3765 20.5811L11.1196 20.5814C10.7153 20.5814 10.3872 20.9095 10.3872 21.3139C10.3872 21.7186 10.7153 22.0463 11.1196 22.0463L26.3765 22.0459C26.7813 22.0459 27.1089 21.7178 27.1089 21.3135C27.1089 20.9087 26.7813 20.5811 26.3765 20.5811Z" fill="#AE8D92"/>
<path d="M26.3765 23.574L11.1196 23.5747C10.7153 23.5747 10.3872 23.9024 10.3872 24.3072C10.3872 24.7115 10.7153 25.0396 11.1196 25.0396L26.3765 25.0388C26.7813 25.0388 27.1089 24.7111 27.1089 24.3064C27.1089 23.902 26.7809 23.574 26.3765 23.574Z" fill="#AE8D92"/>
<path d="M27.1089 27.1228C27.1089 26.7184 26.7809 26.3904 26.3765 26.3904L11.1196 26.3911C10.7153 26.3911 10.3872 26.7188 10.3872 27.1236C10.3872 27.5279 10.7153 27.856 11.1196 27.856L26.3765 27.8552C26.7813 27.8552 27.1089 27.5275 27.1089 27.1228Z" fill="#AE8D92"/>
<path d="M11.1196 29.2076C10.7153 29.2076 10.3872 29.5352 10.3872 29.94C10.3872 30.3443 10.7153 30.6724 11.1196 30.6724L19.7824 30.6716C20.1868 30.6716 20.5148 30.3439 20.5148 29.9392C20.5148 29.5349 20.1868 29.2068 19.7824 29.2068L11.1196 29.2076Z" fill="#AE8D92"/>
<path d="M11.1196 41.7122L27.899 41.7114C28.3033 41.7114 28.6314 41.3834 28.6314 40.979C28.6314 40.5743 28.3033 40.2466 27.899 40.2466L11.1196 40.2473C10.7153 40.2473 10.3872 40.575 10.3872 40.9798C10.3872 41.3841 10.7153 41.7122 11.1196 41.7122Z" fill="#AE8D92"/>
<path d="M11.1196 44.776L22.2784 44.7749C22.6827 44.7749 23.0108 44.4472 23.0108 44.0425C23.0108 43.6381 22.6827 43.3101 22.2784 43.3101L11.1196 43.3112C10.7153 43.3112 10.3872 43.6389 10.3872 44.0436C10.3872 44.448 10.7153 44.776 11.1196 44.776Z" fill="#AE8D92"/>
</g>
<defs>
<clipPath id="clip0">
<rect width="50" height="50" fill="white"/>
</clipPath>
</defs>
</svg>
