<svg width="50" height="50" viewBox="0 0 50 50" fill="none" xmlns="http://www.w3.org/2000/svg">
<path d="M19.1406 31.6406C18.4766 31.6406 17.9688 32.1484 17.9688 32.8125C17.9688 33.4766 18.4766 33.9844 19.1406 33.9844H31.6406C32.3047 33.9844 32.8125 33.4766 32.8125 32.8125C32.8125 32.1484 32.3047 31.6406 31.6406 31.6406H19.1406Z" fill="#AE8D92"/>
<path d="M17.5781 2.73438H42.5781C44.1016 2.73438 45.3125 3.94531 45.3125 5.46875V28.9062C45.3125 29.5703 45.8203 30.0781 46.4844 30.0781C47.1484 30.0781 47.6562 29.5703 47.6562 28.9062V5.46875C47.6562 2.65625 45.3906 0.390625 42.5781 0.390625H17.5781C16.9141 0.390625 16.4062 0.898437 16.4062 1.5625C16.4062 2.22656 16.9141 2.73438 17.5781 2.73438Z" fill="#AE8D92"/>
<path d="M3.51562 5.46875C3.51562 8.28125 5.78125 10.5469 8.59375 10.5469C11.4062 10.5469 13.6719 8.28125 13.6719 5.46875C13.6719 2.65625 11.4062 0.390625 8.59375 0.390625C5.78125 0.390625 3.51562 2.65625 3.51562 5.46875ZM11.3281 5.46875C11.3281 6.99219 10.1172 8.20312 8.59375 8.20312C7.07031 8.20312 5.85938 6.99219 5.85938 5.46875C5.85938 3.94531 7.07031 2.73438 8.59375 2.73438C10.1172 2.73438 11.3281 3.94531 11.3281 5.46875Z" fill="#AE8D92"/>
<path d="M35.5469 14.4531H39.4531C40.1172 14.4531 40.625 13.9453 40.625 13.2812C40.625 12.6172 40.1172 12.1094 39.4531 12.1094H35.5469C34.8828 12.1094 34.375 12.6172 34.375 13.2812C34.375 13.9453 34.8828 14.4531 35.5469 14.4531Z" fill="#AE8D92"/>
<path d="M26.5625 19.1406C26.5625 19.8047 27.0703 20.3125 27.7344 20.3125H39.4531C40.1172 20.3125 40.625 19.8047 40.625 19.1406C40.625 18.4766 40.1172 17.9688 39.4531 17.9688H27.7344C27.0703 17.9688 26.5625 18.4766 26.5625 19.1406Z" fill="#AE8D92"/>
<path d="M34.7656 25C34.7656 24.3359 34.2578 23.8281 33.5938 23.8281H23.8281C23.1641 23.8281 22.6562 24.3359 22.6562 25C22.6562 25.6641 23.1641 26.1719 23.8281 26.1719H33.5938C34.2578 26.1719 34.7656 25.6641 34.7656 25Z" fill="#AE8D92"/>
<path d="M38.6719 33.9844H48.4375C49.1016 33.9844 49.6094 33.4766 49.6094 32.8125C49.6094 32.1484 49.1016 31.6406 48.4375 31.6406H39.8047C39.5313 30.0781 38.1641 28.9062 36.5234 28.9062C36.4844 28.9062 36.4453 28.9062 36.4453 28.9062C36.4063 28.9062 36.3672 28.9062 36.3672 28.9062H34.0234C33.3594 28.9062 32.8516 29.4141 32.8516 30.0781C32.8516 30.7422 33.3594 31.25 34.0234 31.25H36.3672H36.4453H36.5234C37.0703 31.25 37.5 31.6797 37.5 32.2266V32.8125C37.5 33.4766 38.0078 33.9844 38.6719 33.9844Z" fill="#AE8D92"/>
<path d="M1.5625 30.0781C2.22656 30.0781 2.73438 29.5703 2.73438 28.9062V17.1875C2.73438 15.6641 3.94531 14.4531 5.46875 14.4531H27.7344C28.3984 14.4531 28.9062 13.9453 28.9062 13.2812C28.9062 12.6172 28.3984 12.1094 27.7344 12.1094H5.46875C2.65625 12.1094 0.390625 14.375 0.390625 17.1875V28.9062C0.390625 29.5703 0.898437 30.0781 1.5625 30.0781Z" fill="#AE8D92"/>
<path d="M1.5625 49.6094H48.4375C49.1016 49.6094 49.6094 49.1016 49.6094 48.4375C49.6094 47.7734 49.1016 47.2656 48.4375 47.2656H14.4531V19.1406C14.4531 18.4766 13.9453 17.9688 13.2812 17.9688C12.6172 17.9688 12.1094 18.4766 12.1094 19.1406V47.2656H9.76562V32.0312C9.76562 31.3672 9.25781 30.8594 8.59375 30.8594C7.92969 30.8594 7.42188 31.3672 7.42188 32.0312V47.2656H5.07812V30.9766C5.07812 30.3125 4.57031 29.8047 3.90625 29.8047C3.24219 29.8047 2.73438 30.3125 2.73438 30.9766V47.2656H1.5625C0.898437 47.2656 0.390625 47.7734 0.390625 48.4375C0.390625 49.1016 0.898437 49.6094 1.5625 49.6094Z" fill="#AE8D92"/>
<path d="M39.4531 26.1719C40.1003 26.1719 40.625 25.6472 40.625 25C40.625 24.3528 40.1003 23.8281 39.4531 23.8281C38.8059 23.8281 38.2812 24.3528 38.2812 25C38.2812 25.6472 38.8059 26.1719 39.4531 26.1719Z" fill="#AE8D92"/>
</svg>
