<svg width="64" height="64" viewBox="0 0 64 64" fill="none" xmlns="http://www.w3.org/2000/svg">
<path d="M25.225 16.366C24.812 16.401 24.506 16.763 24.54 17.176C24.613 18.047 24.388 18.747 23.852 19.315C22.587 20.656 19.859 20.951 18.475 20.918C18.014 20.903 17.717 21.234 17.706 21.649C17.696 22.063 18.023 22.407 18.437 22.418C18.498 22.419 18.579 22.42 18.678 22.42C19.789 22.42 23.141 22.253 24.944 20.344C25.777 19.461 26.144 18.353 26.036 17.051C26.001 16.638 25.641 16.336 25.225 16.366Z" fill="#AE8D92"/>
<path d="M16.2379 37.255C15.8299 37.202 15.4469 37.48 15.3879 37.889C15.3279 38.299 15.6119 38.68 16.0219 38.74C18.7059 39.131 23.1109 40.695 22.4589 46.785C22.4149 47.197 22.7129 47.566 23.1249 47.611C23.1519 47.614 23.1789 47.615 23.2059 47.615C23.5839 47.615 23.9099 47.33 23.9509 46.945C24.7889 39.116 18.2599 37.549 16.2379 37.255Z" fill="#AE8D92"/>
<path d="M48.2559 26.537C48.6549 26.537 48.9869 26.222 49.0039 25.819C49.0219 25.405 48.7009 25.055 48.2869 25.037C43.2239 24.82 40.5629 22.745 40.3799 18.87C40.3609 18.456 39.9789 18.137 39.5959 18.157C39.1819 18.177 38.8629 18.528 38.8819 18.942C39.0089 21.634 40.3929 26.201 48.2229 26.536C48.2329 26.537 48.2439 26.537 48.2559 26.537Z" fill="#AE8D92"/>
<path d="M54.8119 28.748C56.5469 23.928 54.3659 18.421 51.6049 15.345C49.8589 13.4 47.9299 12.399 46.2059 12.506C44.4359 8.32002 41.6599 6.94502 39.6019 6.53602C36.3359 5.88902 33.1259 7.19902 31.4589 8.38602C30.6979 7.38402 29.1429 6.74302 27.1029 6.65202C22.8559 6.46602 17.9439 8.52602 16.4509 12.832C13.0809 13.404 10.4359 15.281 8.96793 18.153C7.06593 21.875 7.40193 26.74 9.87893 31.57C9.33693 32.257 8.91293 33.009 8.61793 33.815C7.47693 36.936 8.42093 40.265 9.86193 42.179C10.6399 43.212 11.5629 43.886 12.5399 44.152C11.7009 46.274 12.0109 48.6 13.4409 50.556C15.0049 52.695 17.5439 53.908 19.7799 53.649C21.1359 55.745 22.8119 56.951 24.7659 57.237C25.0719 57.282 25.3729 57.302 25.6709 57.302C28.1029 57.302 30.2169 55.931 31.1709 55.199C32.0819 55.989 33.8289 57.202 36.0099 57.202C36.2809 57.202 36.5569 57.183 36.8389 57.142C39.1199 56.814 41.1329 55.118 42.8369 52.13C43.3349 52.218 43.8339 52.279 44.3289 52.279C46.0129 52.279 47.6189 51.769 48.7499 50.769C49.7999 49.84 51.2749 47.74 49.9319 43.839C51.5929 43.237 53.7399 41.606 54.5829 39.285C55.1839 37.637 55.3279 35.073 52.8099 32.053C53.8089 30.949 54.4339 29.798 54.8119 28.748ZM24.9839 55.752C23.3659 55.516 21.9579 54.401 20.7969 52.442C20.6599 52.211 20.4119 52.074 20.1509 52.074C20.0949 52.074 20.0379 52.08 19.9819 52.094C18.2219 52.505 15.9769 51.484 14.6509 49.671C13.3359 47.872 13.2179 45.771 14.3269 43.904C14.4699 43.665 14.4669 43.365 14.3209 43.128C14.1749 42.89 13.9039 42.759 13.6299 42.774C12.7549 42.83 11.8209 42.289 11.0599 41.278C9.90093 39.739 9.08393 36.909 10.0259 34.331C10.3079 33.56 10.7569 32.816 11.3239 32.18C11.3309 32.172 11.3389 32.163 11.3459 32.155C13.5249 29.732 17.7699 28.388 23.1599 31.869C23.5069 32.095 23.9719 31.994 24.1969 31.646C24.4219 31.298 24.3219 30.834 23.9739 30.609C18.3559 26.979 13.6519 28.12 10.9809 30.42C8.93893 26.185 8.68393 22.006 10.3039 18.837C11.6089 16.283 14.0309 14.654 17.1239 14.249C17.4219 14.21 17.6679 13.997 17.7489 13.707C18.8149 9.87602 23.3319 7.97602 27.0359 8.15302C28.8869 8.23602 30.2439 8.83902 30.4499 9.66002V53.86C29.7149 54.451 27.4149 56.109 24.9839 55.752ZM53.1739 38.773C52.3519 41.032 49.9479 42.433 48.8339 42.584C48.6029 42.615 48.3989 42.752 48.2829 42.954C48.1669 43.156 48.1509 43.401 48.2409 43.616C49.3439 46.253 49.1719 48.393 47.7559 49.645C46.1559 51.06 43.1379 51.161 40.8859 49.876C39.5939 49.139 37.5319 47.358 38.2349 43.71C38.3129 43.304 38.0469 42.91 37.6399 42.832C37.2299 42.747 36.8409 43.02 36.7619 43.427C36.1189 46.762 37.3519 49.587 40.1429 51.179C40.5269 51.398 40.9309 51.574 41.3419 51.727C39.9299 54.081 38.3479 55.409 36.6269 55.657C34.4739 55.964 32.6299 54.51 31.9509 53.885V9.91502C33.1439 8.84102 36.3329 7.41802 39.3109 8.00802C41.8949 8.52002 43.8189 10.402 45.0299 13.6C45.1639 13.954 45.5379 14.153 45.9079 14.063C47.2149 13.748 48.9239 14.602 50.4909 16.347C52.9639 19.103 54.9289 24 53.4029 28.241C52.0639 31.959 48.2349 34.389 42.3319 35.269C41.9219 35.331 41.6399 35.712 41.6999 36.122C41.7559 36.494 42.0759 36.762 42.4409 36.762C42.4779 36.762 42.5149 36.759 42.5519 36.754C46.9279 36.101 49.8109 34.709 51.7209 33.102C53.3299 35.065 53.8289 36.972 53.1739 38.773Z" fill="#AE8D92"/>
</svg>
