<svg width="64" height="64" viewBox="0 0 64 64" fill="none" xmlns="http://www.w3.org/2000/svg">
<path d="M55.2229 10.477H8.77795C6.92595 10.477 5.41895 11.984 5.41895 13.836V45.723C5.41895 47.576 6.92595 49.082 8.77795 49.082H26.7119L25.9139 52.578H24.0109C23.5969 52.578 23.2609 52.914 23.2609 53.328C23.2609 53.742 23.5969 54.078 24.0109 54.078H39.9899C40.4039 54.078 40.7399 53.742 40.7399 53.328C40.7399 52.914 40.4039 52.578 39.9899 52.578H38.0889L37.2889 49.082H55.2229C57.0749 49.082 58.5809 47.575 58.5809 45.723V13.836C58.5809 11.983 57.0749 10.477 55.2229 10.477ZM8.77795 11.977H55.2229C56.2479 11.977 57.0809 12.811 57.0809 13.836V41.912H6.91895V13.836C6.91895 12.811 7.75294 11.977 8.77795 11.977ZM36.5499 52.578H27.4519L28.2509 49.082H35.7509L36.5499 52.578ZM55.2229 47.582H36.9459H27.0549H8.77795C7.75294 47.582 6.91895 46.748 6.91895 45.723V43.412H57.0819V45.723C57.0809 46.748 56.2479 47.582 55.2229 47.582Z" fill="#AE8D92"/>
<path d="M23.8019 37.736H32.2919C33.5989 37.736 34.6619 36.673 34.6619 35.367V33.564H36.4649C37.7719 33.564 38.8349 32.501 38.8349 31.195V29.83H40.1989C41.5049 29.83 42.5679 28.768 42.5679 27.462V18.973C42.5679 17.667 41.5049 16.604 40.1989 16.604H31.7089C30.4029 16.604 29.3399 17.667 29.3399 18.973V20.336H27.9759C26.6699 20.336 25.6069 21.399 25.6069 22.705V24.51H23.8019C22.4959 24.51 21.4329 25.573 21.4329 26.879V35.367C21.4329 36.673 22.4959 37.736 23.8019 37.736ZM30.8399 18.973C30.8399 18.494 31.2299 18.104 31.7089 18.104H40.1989C40.6779 18.104 41.0679 18.494 41.0679 18.973V27.462C41.0679 27.941 40.6779 28.33 40.1989 28.33H38.8349V22.705C38.8349 21.399 37.7719 20.336 36.4649 20.336H30.8399V18.973ZM27.1069 22.705C27.1069 22.226 27.4969 21.836 27.9759 21.836H36.4639C36.9439 21.836 37.3339 22.226 37.3339 22.705V31.195C37.3339 31.674 36.9439 32.064 36.4639 32.064H34.6609V26.878C34.6609 25.572 33.5979 24.509 32.2909 24.509H27.1059V22.705H27.1069ZM22.9329 26.879C22.9329 26.4 23.3229 26.01 23.8019 26.01H32.2919C32.7709 26.01 33.1619 26.4 33.1619 26.879V35.367C33.1619 35.846 32.7719 36.236 32.2919 36.236H23.8019C23.3229 36.236 22.9329 35.846 22.9329 35.367V26.879Z" fill="#AE8D92"/>
</svg>
