<svg width="64" height="64" viewBox="0 0 64 64" fill="none" xmlns="http://www.w3.org/2000/svg">
<path d="M9.87498 13.325C10.496 13.325 11 12.822 11 12.201C11 11.58 10.497 11.076 9.87498 11.076C9.25398 11.076 8.75098 11.579 8.75098 12.201C8.75098 12.821 9.25398 13.325 9.87498 13.325Z" fill="#AE8D92"/>
<path d="M13.771 13.325C14.392 13.325 14.896 12.822 14.896 12.201C14.896 11.58 14.393 11.076 13.771 11.076C13.15 11.076 12.647 11.579 12.647 12.201C12.647 12.821 13.15 13.325 13.771 13.325Z" fill="#AE8D92"/>
<path d="M17.6679 13.325C18.2889 13.325 18.7929 12.822 18.7929 12.201C18.7929 11.58 18.2899 11.076 17.6679 11.076C17.0469 11.076 16.5439 11.579 16.5439 12.201C16.5429 12.821 17.0469 13.325 17.6679 13.325Z" fill="#AE8D92"/>
<path d="M20.337 21.526H11.677C10.712 21.526 9.927 22.311 9.927 23.276V31.936C9.927 32.901 10.712 33.686 11.677 33.686H20.337C21.302 33.686 22.087 32.901 22.087 31.936V23.276C22.087 22.311 21.302 21.526 20.337 21.526ZM20.587 31.935C20.587 32.071 20.473 32.185 20.337 32.185H11.677C11.541 32.185 11.427 32.07 11.427 31.935V23.275C11.427 23.139 11.541 23.025 11.677 23.025H20.337C20.473 23.025 20.587 23.139 20.587 23.275V31.935Z" fill="#AE8D92"/>
<path d="M36.46 21.526H27.8C26.835 21.526 26.05 22.311 26.05 23.276V31.936C26.05 32.901 26.835 33.686 27.8 33.686H36.46C37.425 33.686 38.21 32.901 38.21 31.936V23.276C38.21 22.311 37.425 21.526 36.46 21.526ZM36.71 31.935C36.71 32.071 36.596 32.185 36.46 32.185H27.8C27.664 32.185 27.55 32.07 27.55 31.935V23.275C27.55 23.139 27.664 23.025 27.8 23.025H36.46C36.596 23.025 36.71 23.139 36.71 23.275V31.935Z" fill="#AE8D92"/>
<path d="M52.5829 21.526H43.9229C42.9579 21.526 42.1729 22.311 42.1729 23.276V31.936C42.1729 32.901 42.9579 33.686 43.9229 33.686H52.5829C53.5479 33.686 54.3329 32.901 54.3329 31.936V23.276C54.3329 22.311 53.5479 21.526 52.5829 21.526ZM52.8329 31.935C52.8329 32.071 52.7189 32.185 52.5829 32.185H43.9229C43.7869 32.185 43.6729 32.07 43.6729 31.935V23.275C43.6729 23.139 43.7869 23.025 43.9229 23.025H52.5829C52.7189 23.025 52.8329 23.139 52.8329 23.275V31.935Z" fill="#AE8D92"/>
<path d="M57.7579 8.41901H6.24194C5.27694 8.41901 4.49194 9.20401 4.49194 10.169V53.435C4.49194 54.4 5.27694 55.185 6.24194 55.185H57.7579C58.7229 55.185 59.5079 54.4 59.5079 53.435V10.169C59.5079 9.20401 58.7229 8.41901 57.7579 8.41901ZM6.24194 9.91901H57.7579C57.8939 9.91901 58.0079 10.033 58.0079 10.169V14.284H5.99194V10.169C5.99194 10.033 6.10594 9.91901 6.24194 9.91901ZM57.7579 53.685H6.24194C6.10594 53.685 5.99194 53.571 5.99194 53.435V15.784H58.0079V53.435C58.0079 53.571 57.8939 53.685 57.7579 53.685Z" fill="#AE8D92"/>
<path d="M21.337 35.784H10.677V37.284H21.337V35.784Z" fill="#AE8D92"/>
<path d="M21.337 39.742H10.677V41.242H21.337V39.742Z" fill="#AE8D92"/>
<path d="M18.286 44.15H10.677V45.65H18.286V44.15Z" fill="#AE8D92"/>
<path d="M53.5829 35.784H42.9229V37.284H53.5829V35.784Z" fill="#AE8D92"/>
<path d="M53.5829 39.742H42.9229V41.242H53.5829V39.742Z" fill="#AE8D92"/>
<path d="M50.5319 44.15H42.9229V45.65H50.5319V44.15Z" fill="#AE8D92"/>
<path d="M34.599 44.15H26.99V45.65H34.599V44.15Z" fill="#AE8D92"/>
<path d="M37.65 35.784H26.99V37.284H37.65V35.784Z" fill="#AE8D92"/>
<path d="M37.65 39.742H26.99V41.242H37.65V39.742Z" fill="#AE8D92"/>
</svg>
