<svg width="500" height="500" viewBox="0 0 500 500" fill="none" xmlns="http://www.w3.org/2000/svg">
<g clip-path="url(#clip0)">
<path fill-rule="evenodd" clip-rule="evenodd" d="M153.458 30.4205C153.458 30.4207 153.459 30.4207 153.459 30.4205C164.395 19.5997 183.645 5.88474 208.013 2.59182C232.675 -0.740857 262.491 6.61374 294.13 38.253L358.452 102.574C362.333 106.455 362.333 112.748 358.452 116.629C354.57 120.51 348.278 120.51 344.396 116.629L280.075 52.308C276.049 48.2813 260.962 33.1991 240.294 25.7269C229.969 21.9938 218.265 20.1657 205.856 22.5548C193.562 24.922 180.538 31.4364 167.451 44.408C167.449 44.4095 167.449 44.4119 167.451 44.4134C167.452 44.4149 167.452 44.4174 167.451 44.4189L167.098 44.7597L166.751 45.1067C166.749 45.1082 166.747 45.1082 166.745 45.1067C166.744 45.1052 166.741 45.1052 166.74 45.1067C146.566 64.7319 140.179 84.4335 142.934 103.375C145.711 122.462 157.785 140.876 174.646 157.737L238.967 222.058C242.848 225.94 242.848 232.232 238.967 236.114C235.086 239.995 228.793 239.995 224.912 236.114L160.591 171.792C128.952 140.153 121.597 110.337 124.93 85.675C128.223 61.3073 141.938 42.0574 152.758 31.1209C152.759 31.1206 152.759 31.1202 152.758 31.12C152.758 31.1197 152.758 31.1193 152.758 31.119L153.457 30.4205C153.457 30.4202 153.458 30.4202 153.458 30.4205ZM160.484 37.4464C156.996 33.9582 156.991 28.2718 160.793 25.1287C172.025 15.8437 188.397 6.24083 208.145 3.57214C232.459 0.286502 261.978 7.49966 293.431 38.9524L357.752 103.274C361.247 106.768 361.247 112.435 357.752 115.93C354.257 119.424 348.591 119.424 345.096 115.93L280.771 51.6041C276.729 47.5625 261.513 32.3465 240.631 24.7966C230.178 21.0174 218.29 19.1534 205.669 21.5834C195.224 23.5946 184.301 28.5423 173.293 37.7394C169.533 40.8807 163.948 40.9108 160.484 37.4464ZM147.521 38.3894C150.637 34.6257 156.269 34.6308 159.724 38.086C163.2 41.5614 163.12 47.1847 159.879 50.8798C144.379 68.5519 139.452 86.3081 141.955 103.518C144.776 122.909 157.018 141.509 173.947 158.437L238.268 222.758C241.762 226.253 241.762 231.919 238.268 235.414C234.773 238.909 229.106 238.909 225.612 235.414L161.29 171.093C129.838 139.64 122.625 110.121 125.91 85.8074C128.584 66.0207 138.219 49.6235 147.521 38.3894Z" fill="#AE8D92"/>
<path d="M160.484 37.4464C156.996 33.9582 156.991 28.2718 160.793 25.1287C172.025 15.8437 188.397 6.24083 208.145 3.57214C232.459 0.286502 261.978 7.49966 293.431 38.9524L357.752 103.274C361.247 106.768 361.247 112.435 357.752 115.93C354.257 119.424 348.591 119.424 345.096 115.93L280.771 51.6041C276.729 47.5625 261.513 32.3465 240.631 24.7966C230.178 21.0174 218.29 19.1534 205.669 21.5834C195.224 23.5946 184.301 28.5423 173.293 37.7394C169.533 40.8807 163.948 40.9108 160.484 37.4464Z" fill="#AE8D92"/>
<path d="M159.879 50.8798C163.12 47.1847 163.2 41.5614 159.724 38.086C156.269 34.6308 150.637 34.6257 147.521 38.3894C138.219 49.6235 128.584 66.0207 125.91 85.8074C122.625 110.121 129.838 139.64 161.29 171.093L225.612 235.414C229.106 238.909 234.773 238.909 238.268 235.414C241.762 231.919 241.762 226.253 238.268 222.758L173.947 158.437C157.018 141.509 144.776 122.909 141.955 103.518C139.452 86.3081 144.379 68.5519 159.879 50.8798Z" fill="#AE8D92"/>
<path fill-rule="evenodd" clip-rule="evenodd" d="M352.92 469.11C352.92 469.109 352.919 469.109 352.919 469.11C341.982 479.93 322.732 493.645 298.365 496.938C273.703 500.271 243.887 492.916 212.247 461.277L147.926 396.956C144.045 393.075 144.045 386.782 147.926 382.901C151.807 379.02 158.1 379.02 161.981 382.901L226.302 447.222C230.329 451.249 245.416 466.331 266.083 473.803C276.409 477.536 288.113 479.364 300.521 476.975C312.816 474.608 325.84 468.094 338.927 455.122C338.928 455.121 338.928 455.118 338.927 455.117C338.925 455.115 338.925 455.113 338.927 455.111L339.28 454.77L339.627 454.423C339.629 454.422 339.631 454.422 339.633 454.423C339.634 454.425 339.637 454.425 339.638 454.423C359.811 434.798 366.199 415.097 363.443 396.155C360.667 377.068 348.593 358.654 331.732 341.793L267.411 277.472C263.529 273.59 263.529 267.298 267.411 263.417C271.292 259.535 277.585 259.535 281.466 263.417L345.787 327.738C377.426 359.377 384.781 389.193 381.448 413.855C378.155 438.223 364.44 457.473 353.619 468.409C353.619 468.409 353.619 468.41 353.619 468.41C353.62 468.41 353.62 468.411 353.619 468.411L352.921 469.11C352.92 469.11 352.92 469.11 352.92 469.11ZM345.894 462.084C349.382 465.572 349.387 471.258 345.585 474.401C334.352 483.686 317.981 493.289 298.232 495.958C273.919 499.244 244.4 492.03 212.947 460.578L148.626 396.257C145.131 392.762 145.131 387.095 148.626 383.6C152.121 380.106 157.787 380.106 161.282 383.6L225.607 447.926C229.649 451.968 244.865 467.184 265.747 474.733C276.2 478.513 288.087 480.377 300.708 477.947C311.154 475.935 322.077 470.988 333.085 461.791C336.844 458.649 342.429 458.619 345.894 462.084ZM358.857 461.141C355.74 464.904 350.108 464.899 346.653 461.444C343.178 457.969 343.257 452.345 346.498 448.65C361.999 430.978 366.926 413.222 364.422 396.012C361.601 376.621 349.359 358.021 332.431 341.093L268.11 276.772C264.615 273.277 264.615 267.611 268.11 264.116C271.605 260.621 277.271 260.621 280.766 264.116L345.087 328.437C376.54 359.89 383.753 389.409 380.468 413.723C377.794 433.509 368.159 449.907 358.857 461.141Z" fill="#AE8D92"/>
<path d="M345.894 462.084C349.382 465.572 349.387 471.258 345.585 474.401C334.352 483.686 317.981 493.289 298.232 495.958C273.919 499.244 244.4 492.03 212.947 460.578L148.626 396.257C145.131 392.762 145.131 387.095 148.626 383.6C152.121 380.106 157.787 380.106 161.282 383.6L225.607 447.926C229.649 451.968 244.865 467.184 265.747 474.733C276.2 478.513 288.087 480.377 300.708 477.947C311.154 475.935 322.077 470.988 333.085 461.791C336.844 458.649 342.429 458.619 345.894 462.084Z" fill="#AE8D92"/>
<path d="M346.498 448.65C343.257 452.345 343.178 457.969 346.653 461.444C350.108 464.899 355.74 464.904 358.857 461.141C368.159 449.907 377.794 433.509 380.468 413.723C383.753 389.409 376.54 359.89 345.087 328.437L280.766 264.116C277.271 260.621 271.605 260.621 268.11 264.116C264.615 267.611 264.615 273.277 268.11 276.772L332.431 341.093C349.359 358.021 361.601 376.621 364.422 396.012C366.926 413.222 361.999 430.978 346.498 448.65Z" fill="#AE8D92"/>
<rect x="113.38" y="375.257" width="356.888" height="19.7847" rx="9.89236" transform="rotate(-45 113.38 375.257)" fill="#BBA7A1"/>
</g>
<defs>
<clipPath id="clip0">
<rect width="500" height="500" fill="white"/>
</clipPath>
</defs>
</svg>
