<svg width="50" height="50" viewBox="0 0 50 50" fill="none" xmlns="http://www.w3.org/2000/svg">
<path d="M43.0629 11.1524V36.2312H6.9375V11.1524C6.9375 10.6408 7.32353 10.219 7.82112 10.1654C7.85689 10.1592 7.89459 10.1572 7.93269 10.1572H42.0678C42.6171 10.1572 43.0629 10.6031 43.0629 11.1524Z" fill="#F9F3F1"/>
<path d="M43.0631 11.1524V36.2312H9.96875V10.1572H42.0679C42.6172 10.1572 43.0631 10.6031 43.0631 11.1524Z" fill="white"/>
<path d="M9.45091 14.5014H9.60719C9.88281 14.5014 10.1059 14.725 10.1059 15.0002V21.696C10.1059 21.9712 10.3295 22.1947 10.6047 22.1947H10.7128C10.9884 22.1947 11.2115 21.9712 11.2115 21.696V14.0027C11.2115 13.727 10.9884 13.5039 10.7128 13.5039H9.45091C9.17529 13.5039 8.95215 13.727 8.95215 14.0027C8.95215 14.2783 9.17529 14.5014 9.45091 14.5014Z" fill="#AE8D92"/>
<path d="M16.5135 13.3716C14.1095 13.3716 13.4844 15.2706 13.4844 17.759C13.4844 20.2835 14.1095 22.1946 16.5135 22.1946C18.9058 22.1946 19.5306 20.2835 19.5306 17.759C19.5306 15.2706 18.9054 13.3716 16.5135 13.3716ZM16.5135 21.1971C14.7945 21.1971 14.5663 19.6343 14.5663 17.759C14.5663 15.956 14.7945 14.3695 16.5135 14.3695C18.2205 14.3695 18.4491 15.956 18.4491 17.759C18.4487 19.6343 18.2201 21.1971 16.5135 21.1971Z" fill="#AE8D92"/>
<path d="M21.6394 14.5014H21.7957C22.0713 14.5014 22.2944 14.725 22.2944 15.0002V21.696C22.2944 21.9712 22.518 22.1947 22.7932 22.1947H22.9013C23.1769 22.1947 23.4 21.9712 23.4 21.696V14.0027C23.4 13.727 23.1769 13.5039 22.9013 13.5039H21.6394C21.3638 13.5039 21.1406 13.727 21.1406 14.0027C21.1406 14.2783 21.3642 14.5014 21.6394 14.5014Z" fill="#AE8D92"/>
<path d="M11.4647 24.1813C9.06065 24.1813 8.43555 26.0807 8.43555 28.5691C8.43555 31.0932 9.06065 33.0046 11.4647 33.0046C13.857 33.0046 14.4821 31.0932 14.4821 28.5691C14.4821 26.0807 13.857 24.1813 11.4647 24.1813ZM11.4647 32.0067C9.74601 32.0067 9.51743 30.444 9.51743 28.5691C9.51743 26.7657 9.74562 25.1792 11.4647 25.1792C13.1716 25.1792 13.4002 26.766 13.4002 28.5691C13.4002 30.444 13.1716 32.0067 11.4647 32.0067Z" fill="#AE8D92"/>
<path d="M17.1556 24.3132H15.8933C15.6181 24.3132 15.3945 24.5368 15.3945 24.812C15.3945 25.0876 15.6181 25.3108 15.8933 25.3108H16.0496C16.3252 25.3108 16.5483 25.5343 16.5483 25.8095V32.5053C16.5483 32.7809 16.7719 33.004 17.0471 33.004H17.1552C17.4308 33.004 17.6539 32.7809 17.6539 32.5053V24.812C17.6543 24.5368 17.4312 24.3132 17.1556 24.3132Z" fill="#AE8D92"/>
<path d="M22.2586 24.1813C19.8546 24.1813 19.2295 26.0807 19.2295 28.5691C19.2295 31.0932 19.8546 33.0046 22.2586 33.0046C24.651 33.0046 25.2761 31.0932 25.2761 28.5691C25.2761 26.0807 24.651 24.1813 22.2586 24.1813ZM22.2586 32.0067C20.54 32.0067 20.3114 30.444 20.3114 28.5691C20.3114 26.7657 20.54 25.1792 22.2586 25.1792C23.9656 25.1792 24.1942 26.766 24.1942 28.5691C24.1942 30.444 23.9656 32.0067 22.2586 32.0067Z" fill="#AE8D92"/>
<path d="M48.3939 35.8276H45.6093V11.466C45.6093 9.33687 43.877 7.60461 41.7483 7.60461H8.25192C6.12276 7.60461 4.39089 9.33687 4.39089 11.466V35.8276H1.6063C0.720347 35.8276 0 36.548 0 37.4339V38.3642C0 40.5824 1.80456 42.3869 4.02275 42.3869H45.9771C48.1956 42.3869 49.9998 40.5824 49.9998 38.3642V37.4339C49.9998 36.548 49.2795 35.8276 48.3939 35.8276ZM5.18705 11.466C5.18705 9.77576 6.56204 8.40077 8.25192 8.40077H41.7479C43.4382 8.40077 44.8131 9.77576 44.8131 11.466V35.8276H43.4607V11.1461C43.4607 10.3779 42.836 9.75283 42.0674 9.75283H7.93237C7.16421 9.75283 6.53911 10.3779 6.53911 11.1461V35.8276H5.18705V11.466ZM7.33526 35.8268V23.4865V11.1461C7.33526 10.8168 7.60311 10.549 7.93237 10.549H42.0674C42.3967 10.549 42.6645 10.8168 42.6645 11.1461V35.8268H7.33526ZM30.2009 36.6238V37.243C30.2009 38.052 29.5428 38.7106 28.7334 38.7106H21.2664C20.4574 38.7106 19.7989 38.052 19.7989 37.243V36.6238H30.2009ZM49.2037 38.3642C49.2037 40.1431 47.7563 41.5908 45.9771 41.5908H4.02275C2.24346 41.5908 0.796153 40.1435 0.796153 38.3642V37.4339C0.796153 36.9872 1.15963 36.6238 1.6063 36.6238H19.0031V37.243C19.0031 38.4909 20.0185 39.5067 21.2668 39.5067H28.7334C29.9817 39.5067 30.9971 38.4909 30.9971 37.243V36.6238H48.3939C48.8406 36.6238 49.204 36.9872 49.204 37.4339L49.2037 38.3642Z" fill="#AE8D92"/>
<path d="M41.2906 16.6364H38.4784V15.4659C39.2349 15.4523 39.8468 14.8338 39.8468 14.0738V13.2777C39.8468 12.5095 39.2217 11.8844 38.4535 11.8844H27.9045C27.1364 11.8844 26.5113 12.5095 26.5113 13.2777V14.0738C26.5113 14.8334 27.1227 15.4523 27.8796 15.4659V16.6364H25.0612C24.8672 16.6364 24.7016 16.776 24.669 16.9669C24.6414 17.1274 24.054 20.9142 28.876 24.0032C29.2865 24.5735 29.8067 25.0598 30.4065 25.4295C30.5682 26.8309 30.4531 28.8645 29.1582 30.9889C28.5036 31.1029 28.004 31.6735 28.004 32.3604V32.5595C28.004 33.3276 28.6291 33.9528 29.3973 33.9528H36.9608C37.7289 33.9528 38.354 33.3276 38.354 32.5595V32.3604C38.354 31.6731 37.8537 31.1021 37.1983 30.9889C35.9053 28.8641 35.7887 26.8321 35.9485 25.4314C36.5522 25.0598 37.0751 24.5704 37.4871 23.9958C42.2967 20.908 41.7105 17.127 41.6829 16.9669C41.6502 16.776 41.4846 16.6364 41.2906 16.6364ZM27.3074 14.0738V13.2777C27.3074 12.9484 27.5753 12.6806 27.9045 12.6806H38.4535C38.7828 12.6806 39.0507 12.9484 39.0507 13.2777V14.0738C39.0507 14.4031 38.7828 14.6709 38.4535 14.6709C36.4293 14.6709 29.9373 14.6709 27.9045 14.6709C27.5753 14.6709 27.3074 14.4031 27.3074 14.0738ZM25.4282 17.4326H27.8796V20.9158C27.8796 21.453 27.9605 21.9716 28.1102 22.461C25.6288 20.3867 25.4103 18.2412 25.4282 17.4326ZM37.5579 32.3604V32.5595C37.5579 32.8888 37.29 33.1566 36.9608 33.1566H29.3973C29.068 33.1566 28.8002 32.8888 28.8002 32.5595V32.3604C28.8002 32.0312 29.068 31.7633 29.3973 31.7633H36.9608C37.29 31.7633 37.5579 32.0312 37.5579 32.3604ZM36.2672 30.9672H30.0901C31.1311 29.0549 31.327 27.2348 31.2419 25.847C32.4871 26.3376 33.8683 26.338 35.1138 25.8478C35.0299 27.2348 35.2269 29.0545 36.2672 30.9672ZM37.6823 20.9158C37.6823 23.3987 35.6623 25.419 33.179 25.419C30.6957 25.419 28.6758 23.3987 28.6758 20.9158V15.4671H37.6823V20.9158ZM38.251 22.4509C38.3983 21.965 38.4784 21.4495 38.4784 20.9158V17.4326H40.9209C40.931 18.2388 40.6997 20.3898 38.251 22.4509Z" fill="#AE8D92"/>
</svg>
