<svg width="50" height="50" viewBox="0 0 50 50" fill="none" xmlns="http://www.w3.org/2000/svg">
<path d="M46.0938 39.0625H3.90625C1.7498 39.0598 0.00267029 37.3127 0 35.1562V8.59375C0.00267029 6.4373 1.7498 4.69017 3.90625 4.6875H7.8125V2.34375C7.8125 1.48087 8.51212 0.78125 9.375 0.78125H40.625C41.4879 0.78125 42.1875 1.48087 42.1875 2.34375V4.6875H46.0938C48.2502 4.69017 49.9973 6.4373 50 8.59375V35.1562C49.9973 37.3127 48.2502 39.0598 46.0938 39.0625ZM3.90625 6.25C2.61192 6.25 1.5625 7.29942 1.5625 8.59375V35.1562C1.5625 36.4506 2.61192 37.5 3.90625 37.5H46.0938C47.3881 37.5 48.4375 36.4506 48.4375 35.1562V8.59375C48.4375 7.29942 47.3881 6.25 46.0938 6.25H41.4062C40.9748 6.25 40.625 5.90019 40.625 5.46875V2.34375H9.375V5.46875C9.375 5.90019 9.02519 6.25 8.59375 6.25H3.90625Z" fill="#AE8D92"/>
<path d="M37.5 6.25H12.5C12.0686 6.25 11.7188 5.90019 11.7188 5.46875C11.7188 5.03731 12.0686 4.6875 12.5 4.6875H37.5C37.9314 4.6875 38.2812 5.03731 38.2812 5.46875C38.2812 5.90019 37.9314 6.25 37.5 6.25Z" fill="#AE8D92"/>
<path d="M25 43.75C24.5686 43.75 24.2188 43.4002 24.2188 42.9688V38.2812C24.2188 37.8498 24.5686 37.5 25 37.5C25.4314 37.5 25.7812 37.8498 25.7812 38.2812V42.9688C25.7812 43.4002 25.4314 43.75 25 43.75Z" fill="#AE8D92"/>
<path d="M25.7812 49.2188H24.2188C22.9244 49.2188 21.875 48.1693 21.875 46.875V44.5312C21.875 43.2369 22.9244 42.1875 24.2188 42.1875H25.7812C27.0756 42.1875 28.125 43.2369 28.125 44.5312V46.875C28.125 48.1693 27.0756 49.2188 25.7812 49.2188ZM24.2188 43.75C23.7873 43.75 23.4375 44.0998 23.4375 44.5312V46.875C23.4375 47.3064 23.7873 47.6562 24.2188 47.6562H25.7812C26.2127 47.6562 26.5625 47.3064 26.5625 46.875V44.5312C26.5625 44.0998 26.2127 43.75 25.7812 43.75H24.2188Z" fill="#AE8D92"/>
<path d="M26.5625 33.5938H7.8125C6.08673 33.5938 4.6875 32.1945 4.6875 30.4688V13.2812C4.6875 11.5555 6.08673 10.1562 7.8125 10.1562H26.5625C28.2883 10.1562 29.6875 11.5555 29.6875 13.2812V30.4688C29.6875 32.1945 28.2883 33.5938 26.5625 33.5938ZM7.8125 11.7188C6.94962 11.7188 6.25 12.4184 6.25 13.2812V30.4688C6.25 31.3316 6.94962 32.0312 7.8125 32.0312H26.5625C27.4254 32.0312 28.125 31.3316 28.125 30.4688V13.2812C28.125 12.4184 27.4254 11.7188 26.5625 11.7188H7.8125Z" fill="#AE8D92"/>
<path d="M43.75 16.4062H34.375C33.5121 16.4062 32.8125 15.7066 32.8125 14.8438V11.7188C32.8125 10.8559 33.5121 10.1562 34.375 10.1562H43.75C44.6129 10.1562 45.3125 10.8559 45.3125 11.7188V14.8438C45.3125 15.7066 44.6129 16.4062 43.75 16.4062ZM34.375 11.7188V14.8438H43.75V11.7188H34.375Z" fill="#AE8D92"/>
<path d="M44.5312 20.3125H33.5938C33.1623 20.3125 32.8125 19.9627 32.8125 19.5312C32.8125 19.0998 33.1623 18.75 33.5938 18.75H44.5312C44.9627 18.75 45.3125 19.0998 45.3125 19.5312C45.3125 19.9627 44.9627 20.3125 44.5312 20.3125Z" fill="#AE8D92"/>
<path d="M44.5312 24.2188H33.5938C33.1623 24.2188 32.8125 23.8689 32.8125 23.4375C32.8125 23.0061 33.1623 22.6562 33.5938 22.6562H44.5312C44.9627 22.6562 45.3125 23.0061 45.3125 23.4375C45.3125 23.8689 44.9627 24.2188 44.5312 24.2188Z" fill="#AE8D92"/>
<path d="M44.5312 28.125H33.5938C33.1623 28.125 32.8125 27.7752 32.8125 27.3438C32.8125 26.9123 33.1623 26.5625 33.5938 26.5625H44.5312C44.9627 26.5625 45.3125 26.9123 45.3125 27.3438C45.3125 27.7752 44.9627 28.125 44.5312 28.125Z" fill="#AE8D92"/>
<path d="M44.5312 32.0312H42.1875C41.7561 32.0312 41.4062 31.6814 41.4062 31.25C41.4062 30.8186 41.7561 30.4688 42.1875 30.4688H44.5312C44.9627 30.4688 45.3125 30.8186 45.3125 31.25C45.3125 31.6814 44.9627 32.0312 44.5312 32.0312Z" fill="#AE8D92"/>
<path d="M39.0625 32.0312H36.7188C36.2873 32.0312 35.9375 31.6814 35.9375 31.25C35.9375 30.8186 36.2873 30.4688 36.7188 30.4688H39.0625C39.4939 30.4688 39.8438 30.8186 39.8438 31.25C39.8438 31.6814 39.4939 32.0312 39.0625 32.0312Z" fill="#AE8D92"/>
<path d="M25.0002 33.594C24.793 33.594 24.5943 33.5116 24.4478 33.3651L13.2814 22.1987L6.02128 29.4588C5.71458 29.7548 5.22744 29.7506 4.92608 29.4493C4.62472 29.1479 4.62052 28.6608 4.91655 28.3541L12.7291 20.5416C13.0342 20.2368 13.5286 20.2368 13.8338 20.5416L25.5525 32.2603C25.7757 32.4839 25.8428 32.82 25.7219 33.1118C25.601 33.4036 25.316 33.594 25.0002 33.594Z" fill="#AE8D92"/>
<path d="M28.9064 29.6877C28.6993 29.6877 28.5005 29.6053 28.3541 29.4588L21.0939 22.1987L17.74 25.5526C17.4333 25.8486 16.9462 25.8444 16.6448 25.543C16.3435 25.2417 16.3393 24.7545 16.6353 24.4478L20.5415 20.5416C20.8467 20.2368 21.3411 20.2368 21.6463 20.5416L29.4588 28.3541C29.682 28.5776 29.7491 28.9137 29.6282 29.2055C29.5072 29.4973 29.2223 29.6877 28.9064 29.6877Z" fill="#AE8D92"/>
<path d="M17.1875 19.5312C15.4617 19.5312 14.0625 18.132 14.0625 16.4062C14.0625 14.6805 15.4617 13.2812 17.1875 13.2812C18.9133 13.2812 20.3125 14.6805 20.3125 16.4062C20.3125 18.132 18.9133 19.5312 17.1875 19.5312ZM17.1875 14.8438C16.3246 14.8438 15.625 15.5434 15.625 16.4062C15.625 17.2691 16.3246 17.9688 17.1875 17.9688C18.0504 17.9688 18.75 17.2691 18.75 16.4062C18.75 15.5434 18.0504 14.8438 17.1875 14.8438Z" fill="#AE8D92"/>
</svg>
