<svg width="51" height="51" viewBox="0 0 51 51" fill="none" xmlns="http://www.w3.org/2000/svg">
<path d="M47.4268 37.0332H42.7393V33.9082H44.3018C44.509 33.9082 44.7077 33.8259 44.8542 33.6794C45.0007 33.5329 45.083 33.3342 45.083 33.127V27.6582C45.083 27.451 45.0007 27.2523 44.8542 27.1058C44.7077 26.9593 44.509 26.877 44.3018 26.877H42.7393V3.43945C42.7393 3.23225 42.6569 3.03354 42.5104 2.88703C42.3639 2.74051 42.1652 2.6582 41.958 2.6582C41.7508 2.6582 41.5521 2.74051 41.4056 2.88703C41.2591 3.03354 41.1768 3.23225 41.1768 3.43945V26.877H31.8018V3.43945C31.8018 3.23225 31.7194 3.03354 31.5729 2.88703C31.4264 2.74051 31.2277 2.6582 31.0205 2.6582C30.8133 2.6582 30.6146 2.74051 30.4681 2.88703C30.3216 3.03354 30.2393 3.23225 30.2393 3.43945V26.877H20.083V24.5332H21.6455C21.8527 24.5332 22.0514 24.4509 22.1979 24.3044C22.3444 24.1579 22.4268 23.9592 22.4268 23.752V18.2832C22.4268 18.076 22.3444 17.8773 22.1979 17.7308C22.0514 17.5843 21.8527 17.502 21.6455 17.502H20.083V15.1582H27.8955C28.1027 15.1582 28.3014 15.0759 28.4479 14.9294C28.5944 14.7829 28.6768 14.5842 28.6768 14.377V8.9082C28.6768 8.701 28.5944 8.50229 28.4479 8.35578C28.3014 8.20926 28.1027 8.12695 27.8955 8.12695H20.083V3.43945C20.083 3.23225 20.0007 3.03354 19.8542 2.88703C19.7077 2.74051 19.509 2.6582 19.3018 2.6582C19.0946 2.6582 18.8958 2.74051 18.7493 2.88703C18.6028 3.03354 18.5205 3.23225 18.5205 3.43945V8.12695H8.36426V3.43945C8.36426 3.23225 8.28195 3.03354 8.13543 2.88703C7.98892 2.74051 7.79021 2.6582 7.58301 2.6582C7.37581 2.6582 7.17709 2.74051 7.03058 2.88703C6.88407 3.03354 6.80176 3.23225 6.80176 3.43945V8.12695H3.67676C3.46956 8.12695 3.27084 8.20926 3.12433 8.35578C2.97782 8.50229 2.89551 8.701 2.89551 8.9082V14.377C2.89551 14.5842 2.97782 14.7829 3.12433 14.9294C3.27084 15.0759 3.46956 15.1582 3.67676 15.1582H6.80176V47.1895C6.80176 47.3967 6.88407 47.5954 7.03058 47.7419C7.17709 47.8884 7.37581 47.9707 7.58301 47.9707C7.79021 47.9707 7.98892 47.8884 8.13543 47.7419C8.28195 47.5954 8.36426 47.3967 8.36426 47.1895V15.1582H18.5205V17.502H10.708C10.5008 17.502 10.3021 17.5843 10.1556 17.7308C10.0091 17.8773 9.92676 18.076 9.92676 18.2832V23.752C9.92676 23.9592 10.0091 24.1579 10.1556 24.3044C10.3021 24.4509 10.5008 24.5332 10.708 24.5332H18.5205V26.877H15.3955C15.1883 26.877 14.9896 26.9593 14.8431 27.1058C14.6966 27.2523 14.6143 27.451 14.6143 27.6582V33.127C14.6143 33.3342 14.6966 33.5329 14.8431 33.6794C14.9896 33.8259 15.1883 33.9082 15.3955 33.9082H18.5205V47.1895C18.5205 47.3967 18.6028 47.5954 18.7493 47.7419C18.8958 47.8884 19.0946 47.9707 19.3018 47.9707C19.509 47.9707 19.7077 47.8884 19.8542 47.7419C20.0007 47.5954 20.083 47.3967 20.083 47.1895V33.9082H30.2393V47.1895C30.2393 47.3967 30.3216 47.5954 30.4681 47.7419C30.6146 47.8884 30.8133 47.9707 31.0205 47.9707C31.2277 47.9707 31.4264 47.8884 31.5729 47.7419C31.7194 47.5954 31.8018 47.3967 31.8018 47.1895V33.9082H41.1768V37.0332H33.3643C33.1571 37.0332 32.9583 37.1155 32.8118 37.262C32.6653 37.4085 32.583 37.6073 32.583 37.8145V43.2832C32.583 43.4904 32.6653 43.6891 32.8118 43.8356C32.9583 43.9821 33.1571 44.0645 33.3643 44.0645H41.1768V47.1895C41.1768 47.3967 41.2591 47.5954 41.4056 47.7419C41.5521 47.8884 41.7508 47.9707 41.958 47.9707C42.1652 47.9707 42.3639 47.8884 42.5104 47.7419C42.6569 47.5954 42.7393 47.3967 42.7393 47.1895V44.0645H47.4268C47.634 44.0645 47.8327 43.9821 47.9792 43.8356C48.1257 43.6891 48.208 43.4904 48.208 43.2832V37.8145C48.208 37.6073 48.1257 37.4085 47.9792 37.262C47.8327 37.1155 47.634 37.0332 47.4268 37.0332ZM34.1455 38.5957H46.6455V42.502H34.1455V38.5957ZM16.1768 28.4395H43.5205V32.3457H16.1768V28.4395ZM11.4893 19.0645H20.8643V22.9707H11.4893V19.0645ZM4.45801 9.68945H27.1143V13.5957H4.45801V9.68945Z" fill="#AE8D92"/>
</svg>
