<svg width="246" height="206" viewBox="0 0 246 206" fill="none" xmlns="http://www.w3.org/2000/svg">
<path d="M12.5677 14.4C11.4877 14.4 10.441 14.2467 9.42767 13.94C8.42767 13.6333 7.63434 13.2267 7.04767 12.72L7.94767 10.7C8.521 11.1533 9.221 11.5267 10.0477 11.82C10.8877 12.1 11.7277 12.24 12.5677 12.24C13.6077 12.24 14.381 12.0733 14.8877 11.74C15.4077 11.4067 15.6677 10.9667 15.6677 10.42C15.6677 10.02 15.521 9.69333 15.2277 9.44C14.9477 9.17333 14.5877 8.96667 14.1477 8.82C13.7077 8.67333 13.1077 8.50667 12.3477 8.32C11.281 8.06667 10.4143 7.81333 9.74767 7.56C9.09434 7.30667 8.52767 6.91333 8.04767 6.38C7.581 5.83333 7.34767 5.1 7.34767 4.18C7.34767 3.40667 7.55434 2.70667 7.96767 2.08C8.39434 1.44 9.02767 0.933333 9.86767 0.56C10.721 0.186667 11.761 0 12.9877 0C13.841 0 14.681 0.106667 15.5077 0.320001C16.3343 0.533334 17.0477 0.84 17.6477 1.24L16.8277 3.26C16.2143 2.9 15.5743 2.62667 14.9077 2.44C14.241 2.25333 13.5943 2.16 12.9677 2.16C11.941 2.16 11.1743 2.33333 10.6677 2.68C10.1743 3.02667 9.92767 3.48667 9.92767 4.06C9.92767 4.46 10.0677 4.78667 10.3477 5.04C10.641 5.29333 11.0077 5.49333 11.4477 5.64C11.8877 5.78667 12.4877 5.95333 13.2477 6.14C14.2877 6.38 15.141 6.63333 15.8077 6.9C16.4743 7.15333 17.041 7.54667 17.5077 8.08C17.9877 8.61333 18.2277 9.33333 18.2277 10.24C18.2277 11.0133 18.0143 11.7133 17.5877 12.34C17.1743 12.9667 16.541 13.4667 15.6877 13.84C14.8343 14.2133 13.7943 14.4 12.5677 14.4Z" fill="black"/>
<path d="M56.3258 14.4C54.3925 14.4 52.8858 13.86 51.8058 12.78C50.7258 11.6867 50.1858 10.1267 50.1858 8.1V0.2H52.7858V8C52.7858 10.7467 53.9725 12.12 56.3458 12.12C58.7058 12.12 59.8858 10.7467 59.8858 8V0.2H62.4458V8.1C62.4458 10.1267 61.9058 11.6867 60.8258 12.78C59.7591 13.86 58.2591 14.4 56.3258 14.4Z" fill="black"/>
<path d="M108.447 14.2L108.427 4.92L103.827 12.6H102.667L98.067 5.04V14.2H95.587V0.2H97.727L103.287 9.48L108.747 0.2H110.887L110.907 14.2H108.447Z" fill="black"/>
<path d="M157.049 14.2L157.029 4.92L152.429 12.6H151.269L146.669 5.04V14.2H144.189V0.2H146.329L151.889 9.48L157.349 0.2H159.489L159.509 14.2H157.049Z" fill="black"/>
<path d="M192.79 0.2H195.39V14.2H192.79V0.2Z" fill="black"/>
<path d="M231.517 2.4H226.877V0.2H238.757V2.4H234.117V14.2H231.517V2.4Z" fill="black"/>
<path fill-rule="evenodd" clip-rule="evenodd" d="M245.695 158.2L245 158.919L166.91 205.919L166.785 205.711L166 205.919L0 160.919L0.229729 160.071L0.222699 160.059L0.234899 160.052L0.261641 159.954L0.357122 159.979L0.883661 159.666L122 39.9187L122.695 39.2L245.695 158.2ZM119.912 43.389L4.45872 157.538L77.3487 114.143L119.912 43.389ZM78.587 114.024L122.357 41.2653L146.378 131.891L78.587 114.024ZM123.391 41.2648L147.491 132.185L243.531 157.497L123.391 41.2648ZM147.785 133.296L243.651 158.563L166.751 204.848L147.785 133.296ZM146.673 133.003L165.704 204.802L1.70034 160.344L78 114.919L77.9893 114.901L146.673 133.003Z" fill="black"/>
</svg>
